<mxfile host="app.diagrams.net" modified="2024-06-06T12:59:09.274Z" agent="Mozilla/5.0 (Macintosh; Intel Mac OS X 10_15_7) AppleWebKit/537.36 (KHTML, like Gecko) Chrome/124.0.0.0 Safari/537.36" etag="yd4fu2PH7Wc4ufHOJQt1" version="24.4.15" type="google">
  <diagram name="Page-1" id="xOY5v-qUZdpwyjnmDKQz">
    <mxGraphModel grid="1" page="1" gridSize="10" guides="1" tooltips="1" connect="1" arrows="1" fold="1" pageScale="1" pageWidth="827" pageHeight="1169" math="0" shadow="0">
      <root>
        <mxCell id="0" />
        <mxCell id="1" parent="0" />
        <mxCell id="QS2LKlXVZH9JBuo4vUgu-31" value="" style="html=1;dashed=0;whiteSpace=wrap;" vertex="1" parent="1">
          <mxGeometry x="557.5" y="360" width="260" height="220" as="geometry" />
        </mxCell>
        <mxCell id="MwO_69Fb2pUpIYAPg0iQ-1" value="Entrada" style="text;html=1;strokeColor=none;fillColor=none;align=center;verticalAlign=middle;whiteSpace=wrap;rounded=0;" vertex="1" parent="1">
          <mxGeometry x="970" y="90" width="60" height="30" as="geometry" />
        </mxCell>
        <mxCell id="MwO_69Fb2pUpIYAPg0iQ-2" value="Processamento" style="text;html=1;strokeColor=none;fillColor=none;align=center;verticalAlign=middle;whiteSpace=wrap;rounded=0;" vertex="1" parent="1">
          <mxGeometry x="1090" y="90" width="60" height="30" as="geometry" />
        </mxCell>
        <mxCell id="MwO_69Fb2pUpIYAPg0iQ-3" value="Saída" style="text;html=1;strokeColor=none;fillColor=none;align=center;verticalAlign=middle;whiteSpace=wrap;rounded=0;" vertex="1" parent="1">
          <mxGeometry x="1210" y="90" width="60" height="30" as="geometry" />
        </mxCell>
        <mxCell id="MwO_69Fb2pUpIYAPg0iQ-4" value="" style="shape=flexArrow;endArrow=classic;html=1;rounded=0;" edge="1" parent="1">
          <mxGeometry width="50" height="50" relative="1" as="geometry">
            <mxPoint x="1030" y="104.5" as="sourcePoint" />
            <mxPoint x="1070" y="104.5" as="targetPoint" />
          </mxGeometry>
        </mxCell>
        <mxCell id="MwO_69Fb2pUpIYAPg0iQ-5" value="" style="shape=flexArrow;endArrow=classic;html=1;rounded=0;" edge="1" parent="1">
          <mxGeometry width="50" height="50" relative="1" as="geometry">
            <mxPoint x="1170" y="104.5" as="sourcePoint" />
            <mxPoint x="1210" y="104.5" as="targetPoint" />
          </mxGeometry>
        </mxCell>
        <mxCell id="MwO_69Fb2pUpIYAPg0iQ-10" style="edgeStyle=orthogonalEdgeStyle;rounded=0;orthogonalLoop=1;jettySize=auto;html=1;entryX=0.5;entryY=0;entryDx=0;entryDy=0;" edge="1" parent="1" source="MwO_69Fb2pUpIYAPg0iQ-6" target="MwO_69Fb2pUpIYAPg0iQ-7">
          <mxGeometry relative="1" as="geometry" />
        </mxCell>
        <mxCell id="MwO_69Fb2pUpIYAPg0iQ-6" value="" style="strokeWidth=2;html=1;shape=mxgraph.flowchart.start_1;whiteSpace=wrap;" vertex="1" parent="1">
          <mxGeometry x="1010" y="150" width="40" height="30" as="geometry" />
        </mxCell>
        <mxCell id="MwO_69Fb2pUpIYAPg0iQ-11" style="edgeStyle=orthogonalEdgeStyle;rounded=0;orthogonalLoop=1;jettySize=auto;html=1;entryX=0.5;entryY=0;entryDx=0;entryDy=0;" edge="1" parent="1" source="MwO_69Fb2pUpIYAPg0iQ-7" target="MwO_69Fb2pUpIYAPg0iQ-8">
          <mxGeometry relative="1" as="geometry" />
        </mxCell>
        <mxCell id="MwO_69Fb2pUpIYAPg0iQ-7" value="ovos, leite, óleo, farinha, fubá" style="shape=parallelogram;html=1;strokeWidth=2;perimeter=parallelogramPerimeter;whiteSpace=wrap;rounded=1;arcSize=12;size=0.23;" vertex="1" parent="1">
          <mxGeometry x="935" y="210" width="190" height="60" as="geometry" />
        </mxCell>
        <mxCell id="MwO_69Fb2pUpIYAPg0iQ-12" style="edgeStyle=orthogonalEdgeStyle;rounded=0;orthogonalLoop=1;jettySize=auto;html=1;entryX=0.5;entryY=0;entryDx=0;entryDy=0;" edge="1" parent="1" source="MwO_69Fb2pUpIYAPg0iQ-8" target="MwO_69Fb2pUpIYAPg0iQ-9">
          <mxGeometry relative="1" as="geometry" />
        </mxCell>
        <mxCell id="MwO_69Fb2pUpIYAPg0iQ-8" value="Misturar os ingredientes" style="html=1;dashed=0;whiteSpace=wrap;" vertex="1" parent="1">
          <mxGeometry x="980" y="310" width="100" height="50" as="geometry" />
        </mxCell>
        <mxCell id="MwO_69Fb2pUpIYAPg0iQ-14" style="edgeStyle=orthogonalEdgeStyle;rounded=0;orthogonalLoop=1;jettySize=auto;html=1;entryX=0.5;entryY=0;entryDx=0;entryDy=0;" edge="1" parent="1" source="MwO_69Fb2pUpIYAPg0iQ-9" target="MwO_69Fb2pUpIYAPg0iQ-13">
          <mxGeometry relative="1" as="geometry" />
        </mxCell>
        <mxCell id="MwO_69Fb2pUpIYAPg0iQ-9" value="Bater os ingredientes" style="html=1;dashed=0;whiteSpace=wrap;" vertex="1" parent="1">
          <mxGeometry x="980" y="390" width="100" height="50" as="geometry" />
        </mxCell>
        <mxCell id="MwO_69Fb2pUpIYAPg0iQ-16" style="edgeStyle=orthogonalEdgeStyle;rounded=0;orthogonalLoop=1;jettySize=auto;html=1;" edge="1" parent="1" source="MwO_69Fb2pUpIYAPg0iQ-13" target="MwO_69Fb2pUpIYAPg0iQ-15">
          <mxGeometry relative="1" as="geometry" />
        </mxCell>
        <mxCell id="MwO_69Fb2pUpIYAPg0iQ-13" value="Colocar os ingredientes na forma com fermento" style="html=1;dashed=0;whiteSpace=wrap;" vertex="1" parent="1">
          <mxGeometry x="960" y="470" width="140" height="50" as="geometry" />
        </mxCell>
        <mxCell id="MwO_69Fb2pUpIYAPg0iQ-15" value="Colocar no formo" style="html=1;dashed=0;whiteSpace=wrap;" vertex="1" parent="1">
          <mxGeometry x="980" y="550" width="100" height="50" as="geometry" />
        </mxCell>
        <mxCell id="MwO_69Fb2pUpIYAPg0iQ-20" style="edgeStyle=orthogonalEdgeStyle;rounded=0;orthogonalLoop=1;jettySize=auto;html=1;entryX=0;entryY=0.75;entryDx=0;entryDy=0;" edge="1" parent="1" source="MwO_69Fb2pUpIYAPg0iQ-17" target="MwO_69Fb2pUpIYAPg0iQ-19">
          <mxGeometry relative="1" as="geometry" />
        </mxCell>
        <mxCell id="MwO_69Fb2pUpIYAPg0iQ-23" style="edgeStyle=orthogonalEdgeStyle;rounded=0;orthogonalLoop=1;jettySize=auto;html=1;entryX=0.5;entryY=0;entryDx=0;entryDy=0;" edge="1" parent="1" source="MwO_69Fb2pUpIYAPg0iQ-17" target="MwO_69Fb2pUpIYAPg0iQ-22">
          <mxGeometry relative="1" as="geometry" />
        </mxCell>
        <mxCell id="MwO_69Fb2pUpIYAPg0iQ-17" value="se o bolo estiver pronto" style="strokeWidth=2;html=1;shape=mxgraph.flowchart.decision;whiteSpace=wrap;" vertex="1" parent="1">
          <mxGeometry x="980" y="710" width="100" height="100" as="geometry" />
        </mxCell>
        <mxCell id="MwO_69Fb2pUpIYAPg0iQ-18" style="edgeStyle=orthogonalEdgeStyle;rounded=0;orthogonalLoop=1;jettySize=auto;html=1;entryX=0.5;entryY=0;entryDx=0;entryDy=0;entryPerimeter=0;" edge="1" parent="1" source="MwO_69Fb2pUpIYAPg0iQ-26" target="MwO_69Fb2pUpIYAPg0iQ-17">
          <mxGeometry relative="1" as="geometry" />
        </mxCell>
        <mxCell id="MwO_69Fb2pUpIYAPg0iQ-19" value="Retirar o bolo &lt;br&gt;do forno" style="shape=parallelogram;perimeter=parallelogramPerimeter;whiteSpace=wrap;html=1;dashed=0;" vertex="1" parent="1">
          <mxGeometry x="1160" y="725" width="100" height="50" as="geometry" />
        </mxCell>
        <mxCell id="MwO_69Fb2pUpIYAPg0iQ-21" value="sim" style="text;html=1;strokeColor=none;fillColor=none;align=center;verticalAlign=middle;whiteSpace=wrap;rounded=0;" vertex="1" parent="1">
          <mxGeometry x="1090" y="725" width="60" height="30" as="geometry" />
        </mxCell>
        <mxCell id="MwO_69Fb2pUpIYAPg0iQ-25" style="edgeStyle=orthogonalEdgeStyle;rounded=0;orthogonalLoop=1;jettySize=auto;html=1;entryX=0;entryY=0.5;entryDx=0;entryDy=0;" edge="1" parent="1" source="MwO_69Fb2pUpIYAPg0iQ-22" target="MwO_69Fb2pUpIYAPg0iQ-26">
          <mxGeometry relative="1" as="geometry">
            <mxPoint x="910" y="580" as="targetPoint" />
            <Array as="points">
              <mxPoint x="910" y="880" />
              <mxPoint x="910" y="645" />
            </Array>
          </mxGeometry>
        </mxCell>
        <mxCell id="MwO_69Fb2pUpIYAPg0iQ-22" value="Deixar no formo" style="html=1;dashed=0;whiteSpace=wrap;" vertex="1" parent="1">
          <mxGeometry x="980" y="855" width="100" height="50" as="geometry" />
        </mxCell>
        <mxCell id="MwO_69Fb2pUpIYAPg0iQ-24" value="Não" style="text;html=1;strokeColor=none;fillColor=none;align=center;verticalAlign=middle;whiteSpace=wrap;rounded=0;" vertex="1" parent="1">
          <mxGeometry x="1030" y="810" width="60" height="30" as="geometry" />
        </mxCell>
        <mxCell id="MwO_69Fb2pUpIYAPg0iQ-27" value="" style="edgeStyle=orthogonalEdgeStyle;rounded=0;orthogonalLoop=1;jettySize=auto;html=1;entryX=0.5;entryY=0;entryDx=0;entryDy=0;entryPerimeter=0;" edge="1" parent="1" source="MwO_69Fb2pUpIYAPg0iQ-15" target="MwO_69Fb2pUpIYAPg0iQ-26">
          <mxGeometry relative="1" as="geometry">
            <mxPoint x="1030" y="600" as="sourcePoint" />
            <mxPoint x="1030" y="710" as="targetPoint" />
          </mxGeometry>
        </mxCell>
        <mxCell id="MwO_69Fb2pUpIYAPg0iQ-26" value="Bolo assando" style="html=1;dashed=0;whiteSpace=wrap;" vertex="1" parent="1">
          <mxGeometry x="980" y="620" width="100" height="50" as="geometry" />
        </mxCell>
        <mxCell id="MwO_69Fb2pUpIYAPg0iQ-29" style="edgeStyle=orthogonalEdgeStyle;rounded=0;orthogonalLoop=1;jettySize=auto;html=1;entryX=0.11;entryY=0.89;entryDx=0;entryDy=0;entryPerimeter=0;" edge="1" parent="1" source="MwO_69Fb2pUpIYAPg0iQ-19" target="MwO_69Fb2pUpIYAPg0iQ-31">
          <mxGeometry relative="1" as="geometry">
            <mxPoint x="1342.2" y="757.8" as="targetPoint" />
          </mxGeometry>
        </mxCell>
        <mxCell id="MwO_69Fb2pUpIYAPg0iQ-31" value="" style="strokeWidth=2;html=1;shape=mxgraph.flowchart.start_1;whiteSpace=wrap;" vertex="1" parent="1">
          <mxGeometry x="1370" y="730" width="17.8" height="20" as="geometry" />
        </mxCell>
        <mxCell id="Ng-HdXcxBQFtPuZuPeWe-1" value="Exemplo Fluxograma" style="text;html=1;strokeColor=none;fillColor=none;align=center;verticalAlign=middle;whiteSpace=wrap;rounded=0;fontStyle=1" vertex="1" parent="1">
          <mxGeometry x="840" y="60" width="190" height="30" as="geometry" />
        </mxCell>
        <mxCell id="Ng-HdXcxBQFtPuZuPeWe-2" value="Resposta - Diagrama de Atividades - Caso de Uso: Devolução de Livro" style="text;html=1;strokeColor=none;fillColor=none;align=center;verticalAlign=middle;whiteSpace=wrap;rounded=0;fontStyle=1" vertex="1" parent="1">
          <mxGeometry x="20" y="40" width="430" height="30" as="geometry" />
        </mxCell>
        <mxCell id="Ng-HdXcxBQFtPuZuPeWe-3" value="" style="shape=image;verticalLabelPosition=bottom;labelBackgroundColor=default;verticalAlign=top;aspect=fixed;imageAspect=0;image=data:image/png,iVBORw0KGgoAAAANSUhEUgAAAmAAAAFTCAYAAACebbBOAAAYQmlDQ1BJQ0MgUHJvZmlsZQAAWIWVWQk4Vd3X3+fcmWue53me53meQ+aZcl3zFNeYaKBXhSZJMkTIVIjKFIoGKZGoKBVJiIqUZPwOqvf9v//n+b7n28+zz/ndtddee+211h7WuQBwKZMiIkJhegDCwqMp9maG/K5u7vy4SQABDGACWkCLRI6KMLC1tQJI+f3+z7L4HOFGyoDMpqz/bv9fC4OvXxQZAMgWwT6+UeQwBF8HAK1KjqBEA4CZRehCcdERCMYiWgJmCqIggoU3ccA2Vt/EPtvYaovH0d4Iwd4A4IkkEiUAANpNvfhjyQGIHNoMpI0x3DcoHGEtQrAuOZDkCwDnKMIjHRa2B8FcRASL+/xDTsB/yPT5I5NECviDt+eyVfDGQVERoaS9/09z/N8lLDTm9xhCSCUGUsztN+e8abeQPZabGNEdehDus9MGwYwIHgzy3eLfxB8CY8ydfvEvkaOMEJsBVgBgoi/J2BLB3AgWDA/dafWLrusfZGqBYMT2sGNQtIXjdl/Yl7LH/pd8ON4vysThNyZRtsba5EmLCXEy+CXzQqCfxW+ZLQmBji7besJPYoOcdyKYFsEjUSEOlr94PiYEGu38zUOJsd/UGfE5CvhTTO23eVDCYVG/54XSDAyy2PkLW0UHOppv90XtIpO2dGNHcLBflKvVbz19/YxNtueFSvYLd/qlPyozItrQ/hd/aUSo7S9+VKtfqNkmXRDBvVGxDr/7zkUjwbY9XzSIiLZ13NYNzRxM2mG7rQNaElgBI2AM+EEMUn3AHhAMgnpnG2eRX9stpoAEKCAA+AGZX5TfPVy2WsKRpwNIAJ8Q5Aei/vQz3Gr1A7EIfe0PdfspA/y3WmO3eoSADwgOA5YgFPkds9Ur/M9ozuA9Qgn6r9HJiK6hSN1s+y8aP91vGtYEa4w1x5piJdCcaF20FtoKeeojVRGtjtb4rdff/JgPmH7MO8wzzChmeHdQMuVfmvMDazCK6Gj6a3Y+/5wdWhSRqoI2ROsg8hHZaFY0J5BBKyMjGaD1kLFVEOo/dY35M+O/bflLFkGeABPYCPoE8X9rQCtJq/JHyqal/mmLbb18/ljL6E/Lv+dh9A/7+SJvy39zoo6irqG6UB2oblQrqhHwo26hmlA9qLZN/Cc23m/Fxu/R7Lf0CUHkBP3XeKRfY25aLUr+svy0/OqvNhDtFx+9uViM9kTspQQFBEbzGyC7tR+/RThZVppfUV5RCYDNvX97a1mw39rTIda+v2k+CgCoryFbW8/ftLBVAGoOA8B772+aaCWyfPYDcDmfHEOJ3aahNx8YQAXokJXCAXiRvUscmZEiUEXOGH1gAnYAG+AI3MAuxM6BSJxSQBxIBIdAKkgHp8BZkAsKQQmoANWgHjSCVtAB7oNH4Al4Bl4hsTIBZsAcWAQrEAThIBqICeKA+CARSApShNQhXcgEsoLsITfIGwqAwqEYKBFKgdKhTCgXughVQnVQM9QBdUP90DA0Bk1DX6FlGAUTYWaYBxaF5WB12AC2hB1hLzgAjoQT4MPwCTgHLoavwA1wB/wIfgaPwjPwdxRAUaNYUQIoGZQ6yghlg3JH+aMoqP2oNFQ2qhhVg2pBPD2AGkXNon6isWgmND9aBolXc7QTmoyORO9HZ6Bz0RXoBvRd9AB6DD2HXsfQYLgxUhhNjAXGFROAicOkYrIxZZgbmHvI2pnALGKxWFasGFYNWXtu2GDsPmwGtgBbi72N7ceOY7/jcDgOnBROB2eDI+Gicam487gruFu4p7gJ3BKeGs+HV8Sb4t3x4fhkfDa+Ct+Of4qfxK8Q6AkiBE2CDcGXsJdwklBKaCH0ESYIK1QMVGJUOlSOVMFUh6hyqGqo7lGNUC1QU1MLUmtQ21EHUR+kzqG+Sv2Aeoz6J5GRKEk0InoSY4gniOXE28Rh4gINDY0ojT6NO000zQmaSpo7NG9olmiZaGVpLWh9aQ/Q5tE20D6l/UxHoBOhM6DbRZdAl013ja6PbpaeQC9Kb0RPot9Pn0ffTP+C/jsDE4MCgw1DGEMGQxVDN8MUI45RlNGE0ZfxMGMJ4x3GcSYUkxCTEROZKYWplOke0wQzllmM2YI5mDmduZq5l3mOhZFFmcWZJZ4lj6WNZZQVxSrKasEaynqStZ71OesyGw+bAZsf2zG2GranbD/Yudj12f3Y09hr2Z+xL3Pwc5hwhHCc5mjkeM2J5pTktOOM47zAeY9zlouZS4uLzJXGVc/1khvmluS2597HXcLdw/2dh5fHjCeC5zzPHZ5ZXlZefd5g3izedt5pPiY+Xb4gviy+W3wf+Vn4DfhD+XP47/LPCXALmAvECFwU6BVYERQTdBJMFqwVfC1EJaQu5C+UJdQpNCfMJ2wtnCh8WfilCEFEXSRQ5JxIl8gPUTFRF9Ejoo2iU2LsYhZiCWKXxUbEacT1xCPFi8UHJbAS6hIhEgUSTyRhSRXJQMk8yT4pWEpVKkiqQKpfGiOtIR0uXSz9QoYoYyATK3NZZkyWVdZKNlm2UfaznLCcu9xpuS65dXkV+VD5UvlXCowKOxSSFVoUvipKKpIV8xQHlWiUTJUOKDUpzStLKfspX1AeUmFSsVY5otKpsqaqpkpRrVGdVhNW81bLV3uhzqxuq56h/kADo2GocUCjVeOnpqpmtGa95hctGa0QrSqtKW0xbT/tUu1xHUEdks5FnVFdfl1v3SLdUT0BPZJesd47fSF9X/0y/UkDCYNggysGnw3lDSmGNwx/GGkaJRndNkYZmxmnGfeaMJo4meSavDEVNA0wvWw6Z6Zits/stjnG3NL8tPkLCx4LskWlxdwOtR1JO+5aEi0dLHMt31lJWlGsWqxh6x3WZ6xHdorsDN/ZaANsLGzO2Ly2FbONtL1ph7Wztcuz+2CvYJ9o3+XA5LDbocph0dHQ8aTjKydxpxinTmc6Z0/nSucfLsYumS6jrnKuSa6P3Djdgtya3HHuzu5l7t89TDzOekx4qnimej73EvOK9+rexbkrdFfbbrrdpN3XvDHeLt5V3qskG1Ix6buPhU++zxzZiHyOPOOr75vlO+2n45fpN+mv45/pPxWgE3AmYDpQLzA7cDbIKCg3aD7YPLgw+EeITUh5yEaoS2htGD7MO6w5nDE8JPzuHt498Xv6I6QiUiNGIzUjz0bOUSwpZVFQlFdUUzQzcsnuiRGP+StmLFY3Ni92Kc457lo8Q3x4fM9eyb3H9k4mmCZc2ofeR97XmSiQeChxLMkg6eJ+aL/P/s4DQgcOH5g4aHaw4hDVoZBDj5PlkzOTv6W4pLQc5jl88PD4X2Z/XU6lTaWkvjiidaTwKPpo0NHeY0rHzh9bT/NNe5gun56dvppBznh4XOF4zvGNE/4nek+qnrxwCnsq/NTz03qnKzIZMhMyx89Yn2nI4s9Ky/p2dvfZ7mzl7MJzVOdizo3mWOU0nRc+f+r8am5g7rM8w7zafO78Y/k/CnwLnl7Qv1BTyFOYXrhcFFQ0dNHsYkOxaHF2CbYktuRDqXNp1yX1S5VlnGXpZWvl4eWjFfYVdyvVKiuruKtOXoYvx1yevuJ55Um1cXVTjUzNxVrW2vSr4GrM1Y913nXP6y3rO6+pX6u5LnI9/wbTjbQGqGFvw1xjYONok1tTf/OO5s4WrZYbN2VvlrcKtOa1sbSdbKdqP9y+cSvh1vfbEbdnOwI6xjt3d76643pn8K7d3d57lvce3De9f6fLoOvWA50Hrd2a3c0P1R82PlJ91NCj0nPjscrjG72qvQ19an1NTzSetPRr97c/1XvaMWA8cH/QYvDRs53P+p87PR964flidMh3aGo4dHj+ZezLlVcHRzAjaa/pX2e/4X5T/Fbibe2o6mjbmPFYzzuHd6/GyeMz76Per04c/kDzIXuSb7JySnGqddp0+slHj48TMxEzK7Opnxg+5X8W/3z9i/6XnjnXuYl5yvzG14wFjoXyb8rfOr/bfn+zGLa48iNtiWOp4qf6z65ll+XJlbhV3GrOmsRay7rl+shG2MZGBIlC2roKoJAK+/sD8LUcABo3AJieAEDlsZ2b/Soo5PIBI29nSBaagQ+jFFFT6CIMCTnr5nBN+AxCAJUeNTORnoaRlp6OmZ6bQYBRikmT2ZrFhzWe7Qx7DUcP5xTXd+41XjwfO7+IgLygrpCNsLdIlOhRsQLxeonHUhhpkky7HL/8PoVBJUnlOJVONay6kUa0ZolWj/YXXSo9Bn0WA3ZDDiNOYzYTZlM6M7zZhvk3i5kdby0HrO5bN+6ssMm1PW6XYp/gEO0Y6RTlHOey3/WoW5Z7sUe1Z41X1a6y3SXeF0mFPkXki76lfpX+tQHNgXeC+oLfhMyHYcM590hFaEaaU5yidkX7xYTGRsbFxu/dm5RwcF9BYkvSwP6PB9YP0SZzpYgelv1LJVXziO5Rw2NmaXbplIz8490nlk5JnPbMPH6mPWs2m/WcVo7n+fjcU3kl+Q0FDy+8Lpy/iC5mLREv1bhkUeZaHlARU5lcdeJy3pVL1XU1t2r7ro7WLVzDXue6Id9g0ujWFNZ8sCXz5sXW423R7W63dG7zdYCOd5137pTdTb9Hue/VteOBZjdv98zD0kcuPdie2seOj5d6c/v0+iaenOk36V99enMgedDmGd+zz8/bXqQNOQ3zDU+9rH4VOaI08u11/ZuIt4pv10Z7xwrfRYzrv2d4/26i7sOhSdspvqlP0zc/HptxnOWYHf507rP7F6EvP+cm5+cXJL6dXJRaolu2W53d2NjyvxB0FbaC51DZaFP0d0w51gcnjJvC1xCiqQyoRYgMxGWaGdpXdE/o7zG0MzYyNTG3srSxdrB1s/dzdHG2cTVw1/Fc5q3gK+O/IHBG8JRQiXCXyGcxVnF9iVDJXKkH0ouyonIO8vsVqhT7lRZV2FXV1WzUSRrBmmQtN21rHQNdZT0RfWYD2OCL4Suj+8ZXTXJND5uFmttbqO7gsgSWk1a91jd2Ftocs421I9vbOxg6KjoJO7O64F1WXD+5vXXv97jr2YhEQ+HuLO800kGfWHK4b7hfuH9YQGhgSFBwcGCIXygpbFe4+x6XCIdIG4p1lFu0P3JlTopLjT+xNyvh/L78xIKkwv1FB4oOFh0qSW5I6T08lYo5IojEAzktJb0ko+P4mxM/TtGeFspUO2OV5XM2PvvkudKclvN9ueN5PwoIFzgLpYo0L5oVO5cElu6/lFVWXf6g4n0VuMxzRavapYZSm3H1Ul1r/ZNrr69P3/jeCDXRNHO0iNyUb9VoM2zfccv2tlOHe6fHHce7Fve078t0cT3APZjrfv6w+VFeT+Jjz16tPs6+pSfP+68/PTMQPej6TP+5zAu+IfZhtpe8ryRHtF87vPF56z5qNqb8TmCcdnz9/eeJsQ8vJvumHk13f+yeeTw78OnjF2iObV76q/GC97eU73WLM0vaP4tW2Fer1q22/C8F7kKW0BASAfdRFqhnaG/0N0wqVgDbiHPALeDLCV5UTFRPqE8Q7Wn4aeZoH9Jdoc9iOMQYzRTC7MWiw8rOuoBEQhFHLKcllwDXD+7HPKW8SXwu/EoC9AKTgs1CR4UdRXhERkWLxcjiIuIfJCol90ipS6Ol+2VyZUly4nKz8nUKsYqaiutKHcqHVcxU8aoP1dLVrTUIGvc1U7T0tVa1m3SideV1P+pd0vc24DQYNDxhZGG0bnzNJNiUz3TA7Ii5lvkni8IddpaQZb2VjzWD9b2dSTaaNj9sr9tRkPvDF4cax3AnGadPztUuYa7SrlNuxe5uHswe/Z6nvBx2cex6t7vGex/J0ofb5zO5wzfTz9NfyH8m4FpgYpBJMH3wSEhVaEKYdbhg+M89TyPKIyMoSpTFqObopBijWGLsUFx5fOJelwS1fVyJqMTPScP77xyoPnju0KHkkBTnwwZ/yabyHKE5sn50/tiHtBfp7RkXj6ec8DtpfkrmNNPptcyPZ0aynp59nP3oXF/O4Pmh3JG8t/nvC6YufClcvAiKqUs4SiUuaZfZlQdWHKzMqbp6uevKaPXPWqarMnUW9QHXUq+X3XjQMNvE0KzXknpzoI233f9W9e2FTq07f93tvy/clfjg1UPDR3WPJXsLn6D7SU87BhWftbygDJNfXXrjOVY5MTBDWhDa9P/2N7rNglUF4CwvkqHSA+BwFoDjyAEh9gUANioAbGkAcNQA8A4dADMnAMiE98/5ASGJJxVgBNxItqmKZNIuIBgcBFmgEtwGQ2AeIkLiSG5IhpKhEuguNAlTw/KwC5wM18KvUUSUDioCVYoaRtMjOdohdCt6CaOKicJcxrzFsmAtscnYm0iOpYALx9XgviC5VDz+NoFIcCdUEdaRLKmWmol6L/UY0YrYTCNJU4BkOhlIbnMUyWZOMLAwFDLKMLYyWTO9ZaawYFlyWWVZO9lc2GbZkzk4OOo47TmXuUq5bbnXeKp5vfjo+Dr5YwWkBEYFs4V2CmOF20SiRWVEp8UqxUMlFCVWJLulcqXDZUxk+WRX5V7JtylkKHopKSpTK0+pdKvWquWqH9NI1KRohWkH6QTpBuv561sbKBtyGgGjD8gNucH0otkJ8/0WUTtCLUOs9lgn7EyzuWjbbDdg/8WRxknG2c4lzrXIrcd9xVPGy2dX7u5nJCYfB3KO72t/wYCAwOqghRDN0JSwnj3sEf6RjVFU0aSYm3E88S0JXon4pOYDEYekkqcPl6eSj3IfG0g/clz9pMLp8DOPsi1yxvOOXZAoqisRuLS3vKHy3RXmGuurJ+qHb8g1ZrZArYm30B3Zd+H7Xg9aH/E/PtL37an/4JsXHsOvR/zefB07937XpMz01GzU5/a5h1/PfVP4XrG4sST702HZbsVqVXYNvTa0fmrDbGv/2PyKTQQsQADIAT1gB/xAIshEvN8JRsASxAIpQ45QLJQDtULvYAKsAHvA6fBN+BOKH+WMykDdQ0NoffQ+9HX0LEYUQ8IUYF5i2bEu2BzsSxwPzgdXiZvHa+GP4p8TxAgJhH4qKapjVHPUHtTdRA3iFRpBmnxadtocOk66Inpx+msMBgyDjMFMMFMBswbzEEs8KydrG5sPO579Koc7J4bzGheZm4X7IU8yrxbvD74b/DECqgLLgreEjgjbirCIjIiWiVHEDSQYJT5Itkmdk46SsZdVkmOTW5MfV2hXzFdKUiapWKgqqwmps2hQa2K0IG2gA+vi9Gj0MfrLBnOGE0avjJ+adJt2mrWZt1i07GizvGfVbz2287st0U7IXsvBCbnFnHK+6jLouuwu5GHjecCrfteUtyBpt08++YUfg79VwJHAzqA1xNvxYU3hyxF6kUcpg9HCMXGxffHKe/P3YRMpSWMH7A/eT9ZJafpLLbX5qN6xh+muGR9PHDmlevrjmbKzQedUzlPlTuX3XWgrqi++Unq5rLqioarjyuOa51eH659df9Bwtel4i3erVNvcrZqOwDtm9zy6IrvTHl16fKtvuH9+EPOcZUjwpfSI8huNUY13PO8xE/OTo9O9My2fCr/Ez5sswN8qF3V/3P+pv1y5Sr1GXr+25X8Y4AEzEELWvhXwBymgENwCoxAaWfU7oWgoD7oDzcKssAEcBVfCYygelAeqADWGFkNHoG9i8BgXTAVmHeuGbcbx4o7hfuJD8e+Q9T1AZU3VTW1NPUj0Jn6hSabloL1O50C3SF/AYM6wwljHFMosxfyZpYE1hc2BXYID5njL2cVVz13Cc573LN855B5yBfHqkPCMyE8xanF+CTVJB6lI6TMyzbLj8owKloqnlQZVWFWd1E6rP9JEa+lox+lc053XNzLIM/xh7GzSaMZhvs9ixFLbKtf6p42L7Qt7f4dlp9Muoq5N7iYeD73MdrV7y5HyyVS+SX7fAsICPwYHhXwMCw3/HBEZ+S0qLno5NimeY++dfZFJgvufHTySrJYy/lfaEamjXWm7078eTz7Jfqou0+rM9Nmj58RyunL98zEFxYV6RS+Lo0tpL5WXG1S8qUq6wlt9u9a3jlB/9brzjbXG0mbLlq+t59v1b012nLzDczfrPl3X8W66h2d7eB9X9Ck+aX9qPvD0mfPzoSHn4b5XxiPX3wi8/Wt09p37+NDE7g9TU+HTUzP2s7Wf5r7wz2nPG31VXeBf+PSt5TtlkXOx8wfpx4el0KX5n9E/Xy7rL5et0KxErdxfpVt1WS1anVpTWNu71rk2v86zbrEes1603rO+tCG8Ybuxb6N8Y2DT/1H+SopbxwdENAQA82ZjY0EUAFwmAGunNzZWijc21kqQZGMEgNuh2//7bJ01yBmTv7CJHgqcT/z3/y//AxrF3NrXnwVqAAABnWlUWHRYTUw6Y29tLmFkb2JlLnhtcAAAAAAAPHg6eG1wbWV0YSB4bWxuczp4PSJhZG9iZTpuczptZXRhLyIgeDp4bXB0az0iWE1QIENvcmUgNS40LjAiPgogICA8cmRmOlJERiB4bWxuczpyZGY9Imh0dHA6Ly93d3cudzMub3JnLzE5OTkvMDIvMjItcmRmLXN5bnRheC1ucyMiPgogICAgICA8cmRmOkRlc2NyaXB0aW9uIHJkZjphYm91dD0iIgogICAgICAgICAgICB4bWxuczpleGlmPSJodHRwOi8vbnMuYWRvYmUuY29tL2V4aWYvMS4wLyI+CiAgICAgICAgIDxleGlmOlBpeGVsWERpbWVuc2lvbj42MDg8L2V4aWY6UGl4ZWxYRGltZW5zaW9uPgogICAgICAgICA8ZXhpZjpQaXhlbFlEaW1lbnNpb24+MzM5PC9leGlmOlBpeGVsWURpbWVuc2lvbj4KICAgICAgPC9yZGY6RGVzY3JpcHRpb24+CiAgIDwvcmRmOlJERj4KPC94OnhtcG1ldGE+ChcPjh0AAEAASURBVHgB7N0HvO1FdS/wP7ZYQKOCGqOAisZeUKKChqtSFCGC0puABZRiQ4ot19CbVBWxgCKWiAUVxQiCoIBKrFERFUkE7PqCPo0v5v3f+q7n7PzvZtdz9rn33HtnfT7n7L3/ZcpvZtasWWvNrKadJ/3nf/5n+7rXva590IMe1B5xxBHtGWec0T7/+c9vv/e972XKv/vd79rtttuuvdOd7tQ+8YlPbI899tj2/ve/f7vRRhu1n/vc59oTTzyxvctd7tLusMMO7Ve/+tV23333bTfeeOP2Rz/6UfvHP/6xPeqoo9rb3/727d/93d+1V199dfvmN7+5veMd79g+5CEPaV/1qle1W221VXuve92rPfPMM29Vk9/+9rftfvvtl++vv/767bbbbts+6lGPah/2sIe1n/jEJ/L5yy+/vH3kIx/ZvvzlL2/POeecdq+99mq/9KUv3SotF66//vp2++23b+985ztnPX7+85+3//zP/5xlUR7fu3TWWWe1L3jBC9r//u//zsv/9V//lfnC6q//+q/bc889N+vo5k9/+tPEaYsttmjf+973ti972cuyTn/605+6Seb33/zmN+2RRx6ZOCjvv/7rv7bnn39+u+6667Ybbrhh+4UvfGEqnGANxyc96Unt29/+9vY1r3lNtqm2k39/Hce1ufp+9rOf7eFy4YUXtj/4wQ/aHXfcMbE74YQT2v/1v/7X2Dp/8YtfbNdZZ512gw02aN/xjndk3aUFu6Zp2jvc4Q7tIYcc0ioPgoG+4N6aa67ZHn/88Vn+b37zm+16662X9/SBN7zhDYmdtvnlL3/ZaqcHPvCB2f8yofqvIlARqAhUBCoCC4zAGtKPCWveFBNqc+211zZrrbVWEwJOc5vb3KaX5u9///vmu9/9bhNCUHPPe94zv9/jHvdo7n3ve/eemfTL//2//7cJ4a4JoayJSbP5xS9+0fz617/OPIelEQJG86tf/aoJQasJIaqJybgJoa/3uPJ961vfav7iL/6iefjDH97ExN67N58vIQA2IRw0IURMlEypm/oox93vfveJ3hv0UElrUpw8f+ONNzb/9m//1oSA2Nz3vvcdlOwy10a1+TIPjvhRyjmszjfccEMTgnjzN3/zN71U4Kq9QhDLtuzdiC/S0df0jb/6q7/q3frZz37W3HzzzYmri5556EMf2oQw30jv3//93/P3bW9729479UtFoCJQEagIVAQWCoGZCWALVcCabkWgIlARqAhUBCoCFYFVDYH/UVOtajWr9akIVAQqAhWBikBFoCKwSBGoAtgibZharIpARaAiUBGoCFQEVl0EqgC26rZtrVlFoCJQEagIVAQqAosUgSqALdKGqcWqCFQEKgIVgYpARWDVRaAKYKtu29aaVQQqAhWBikBFoCKwSBFYEAEszoFqHC9QqSJQEagIVAQqAhWBikBF4NYILIgAdtJJJzWf+cxnbp1b5woB7f/8n//TuVK/VgQqAhWBikBFoCJQEVg9EJi5AHbTTTc1Z599dhOnyjdxivpQFD/96U83car90Pv1RkWgIlARqAhUBCoCFYFVFYGZC2Af//jHmwg700SYoebrX//6QNycbn744Yc3TlKvVBGoCFQEKgIVgYpARWB1Q+C2S4NmVWkC1XHHHZdhXW655ZYMS7Tlllsuk/x1113X7L777k3EfcxQRCIhCUskhNGPf/zjJuLyNRGnMUMMCYkjlM5//Md/NDRmBDohY4SYIeh98pOfzPBCwslELMV813PeibiIma8yvfOd72wihmCaPGnohESqVBGoCFQEKgIVgYpARWBFITBTDdhll13WbL755k0Ezs76XHDBBY04jF362te+lnEZXRO3T2xGsRi/8Y1vNEuWLMl4kvvvv39z8sknNxGgO5+9293u1vzkJz9p9thjj+YVr3hFE8GUU4iLgNTNNddc03znO99pnv70pzcRPLp52tOe1uy8885NBLTOGIIveclLUlA74IADUgh73/ve1y1O/V4RqAhUBCoCFYGKQEVguSMwMwFM0GkC2DbbbJOCEi0U4etjH/vYMpXadttte9qpjTfeuDnssMOa+9///qk5Y5rcdNNN8/cTnvCE5qKLLmrOCV8ydJ/73KcRKFnA6Pvd737N+eef3zz/+c/PINwnnHBCasC22GKL5hGPeESz9tprN6eddloGXL7yyiubf/mXf0mT6Gtf+9q8nwnWfxWBikBFoCJQEagIVARWEAIzE8C+8pWvNHe/+92bBz7wgakFe/jDH55HUZx33nmp6RpVP9qtq6++urnd7W6XpkjP3vWud833L7744mVevctd7tJsttlmKeidccYZzW1uc5vmS1/6UvNf//Vf6fx/7LHHpm/Zz372s4ZQeK973SvNmXvuuWdDUNtnn32WSa/+qAhUBCoCFYGKQEWgIrC8EbjdLDJ07tdHPvKR5re//W1qtKS5zjrrpHD0rW99qyFE7bjjjkOzYjpkhiRM0Zx16X//7//d/dkwRxL0CrnPR4x2bLfddkvz55ve9KZyuznmmGOavfbaq+H7xaz5hz/8oTn11FNT2Os9VL9UBCoCFYGKQEWgIlARWI4IzEQDxgfrTne6U/O2t72toYHy99a3vjVNic76eve7353aqFKvNdZYo3zNT074hCpng9FkoT/+8Y/5ee973zs/yz+Clr9Cd77znVNrRoj713/913I5P6XxmMc8JgVA/mUc/jn4c/avVBGoCFQEKgIVgYpARWBFITBvAYzQxMz4kIc8ZBnBiCmSYzz64he/2Hz5y1/O78yMRctFOOP3RSDjO+bcsHI0xc9//vPG7kYO9Yjw5E9+/grxDXvqU5/a0MIRAPmdSfc973lPY8fl8ccfnz5jH/zgB5sNN9wwhTXpVqoIVAQqAhWBikBFoCKwohCY1zEUBJ23vOUtzYknnpgaK87x5fgHflmOhPj+97+f97773e82j33sY1MYYja85JJL8lgJAtfWW2+dwhGB6aqrrkqT4oc//OHGDsYXvehFubvRURLF10s+NFuEOcIbx3u7ITnbEwYvvfTSTHODDTbIw16l6VgMfmZ2Q9opWakiUBGoCFQEKgIVgYrAikJgjdAqtSsic4e18t0qgpQy0GwRwjjQ06g572tSoj1jgmR2fOQjH9lw1nftV7/6VcNM6R7BzY7LShWBikBFoCJQEagIVARWJAIrTABbkZWueVcEKgIVgYpARaAiUBFYkQjM2wdsRRa+5l0RqAhUBCoCFYGKQEVgZUSgCmArY6vVMlcEKgIVgYpARaAisFIjUAWwlbr5auErAhWBikBFoCJQEVgZEagC2MrYarXMFYGKQEWgIlARqAis1AisEgLYL37xi+byyy/P879WVGs4kuOKK65onF9WqSJQEagIVAQqAhWBisAoBOYlgDk2gtCx++67N3/zN3+TnwcffHDzqle9Kr87+PTzn//8qPxnco/w9brXva65+eabZ5JeN5GjjjqqecYzntH88Ic/7F6+1Xd5K4OyVKoIVAQqAhWBikBFoCIwCoGZHENxwQUX5In155xzTrPTTjtlfoQzwbIf8IAH5Cn3owqxWO/95je/afbYY4/mFa94RQphi7WctVwVgYpARaAiUBGoCKxcCMwkGLfQQt34jCAQWJtmrD+Y9soEj1P6DznkkAzwvTKVu5a1IlARqAhUBCoCFYHFjcBMBLBBVXSa/d3udrc8hV5IIsKM0+0f//jHN1/5ylfSpCcAt7BAAnB/6lOfys/NNtss4ziK7fjCF76wuec979lLXighaRHunve85+WJ9zRtX/3qV9PUuddee/We54v1oQ99qPm3f/u3DFXk+TXXXDNP2xeXUlijXXbZpbnssssyJNIOO+zQPO5xj+vlpfwXXnhhBu7++te/ns+us846KVBedNFFvdBLQirR+qnrRz/60eZv//Zv809C/MLUS353vetd8zkawUoVgYpARaAiUBGoCKzeCMzLB2wYdIQnwbB//etfZ0Btgs1xxx3XnH322fmK3xdffHH6TDHzffKTn2wOPfTQ5h3veEdz5JFHNjfeeGNz6qmnNq95zWt6gbdPO+205gMf+EDDx4wws/nmm2dsRyGGjj766OZNb3pThjaSwbe//e0U3ghDr3zlKxsmUgIYZ/2vfe1rDb+uk046qTnmmGMy9iQhjLbupptuyvL99Kc/bbbddtvmTne6U5ZRWffbb7+MSUmgohVTTgG+r7/++ubaa69t3vWud2UdfEe/+93vmgMPPDD90viG0RISLvnMVaoIVAQqAhWBikBFYPVGYGYCGE0UgeSwww5r9t577+b9739/D9m11lqr+cu//Mveb0G0//qv/zp/3+EOd2i233775qEPfWjjO6HolFNOSYFIcG2as2984xvNu9/97mbfffdtpPWsZz2rue9975sC06Mf/ejmOc95Ti9tWqcjjjgitV4bbbRRc5/73CfLJA0CIA3cNttsk9q2Pffcszn55JNTmCIIfu9738t05HnHO94xNVny22STTRqxK//whz80z33uc3PDgU0HhMRzzz03r+26664NjV4hwcQJhzvvvHNqAZV9vfXWa974xjeWR+pnRaAiUBGoCFQEKgKrKQIzE8CYBZnijj322NR+HXTQQRNDusYaa6RZkYlPEG1EcPrP//zPFJSYHgl4a6+9dt4jrBHOaLUQ7ZI00I9//OPmyiuvbNZff/387d/DH/7wNH8yFyL+avIp5k2CE6GQgIWkf+mll2aatFef/exnM7C3MpSyMmd6p5A0YYBoAD/+8Y+nWZK2DnmeBuxb3/pW/q7/KgIVgYpARaAiUBFYfRH4Hwlixhhst912acKba7IEnbZt8/Xf/va3adKj3RpHt9xySwpSPgvd+c53TuFt2BldRXgrz8vnxBNPTA3b0qVLU1BjHp2U/vjHP6bmTvmlVQS1+93vfilQTppOfa4iUBGoCFQEKgIVgVUTgZlpwPrh4ZTOpIiK1ogGaS607rrrNj/5yU/Seb+8b3flF7/4xfKz90lLxtzJF6ub35/+9Kdmgw026D036gufr/e+973Nq1/96oZWbloi8DGx8in71a9+1XtdGYoWr3exfqkIVAQqAhWBikBFYLVDYCYCmF2MhAufg4g/FVPcv//7v+fuQZ9MiEx1hCSaovLX/77rT3ziExvaI075n/vc55obbrghTZ3yRN13CT5///d/n7siOcgjzvf8unbbbbf83RXM8kL866ahfAQnfmH/8R//kbsklZVJlHYL9Wvjyvs+kbx++ctfNpeFg3+hb37zm8v4q5Xr9bMiUBGoCFQEKgIVgdULgduGiW3pXKtMkLnqqquaM888Mx3Omf04x9NYFX8oadOAefbNb35zapYcDeE5wsk97nGP3Cn4vve9L3dN8r+ye5LJ77vf/W46rj/pSU/KNM8///zmrW99a/POd76z2WKLLdLn7Ec/+lHzlre8pSHc8Bt75CMfmQLbNddc03zsYx/Lctgc8PSnPz19xr7//e9nOb7zne+kloofmPv8vAiKTu+n9XKExTlxsCxBkcO93Y+EMoKXe/K9173ulf5idjyed955eUSG+krDHwwcRksoExGAKfW1r31tOuV7rlJFoCJQEagIVAQqAqsnAjM5CX9S6K677rrm97//ffOoRz0qneUd83Dve9970tdTMCOUPfCBD2z+6q/+auR7BD67GglznPC7OxRHvvjnm84BE17Iu0i+hENC2jQkHfWmwatngE2DXH22IlARqAhUBCoCqy4Cy1UAW3VhrDWrCFQEKgIVgYpARaAiMDkCM/EBmzy7+mRFoCJQEagIVAQqAhWBikAVwGofqAhUBCoCFYGKQEWgIrCcEagC2HIGvGZXEagIVASWJwJ2c4sk0t2RvTzzr3lVBCoCgxGoAthgXOrVikBFoCKwSiDgXEOxcudypuEqAUCtREVgkSJQBbBF2jC1WBWBikBFYL4I2A0uJu1ZZ52V8XHnm159vyJQEZgdAlUAmyeWDmYth7POM6nV4nXnqF1xxRXNsLBQywOExVCGha7nD3/4wzzDbqHzmSR948NBxvMlaXzpS1/KCBPzTWuS9x3I7JzDlZ0OOOCAPAanG5Vj0jo5Nkh8XWcYzorg+pGPfCQPuJ5VmnNJxyHbl19+eR6wPZf3V8V3nGl50UUXNbSmDh5fSHJAOvz7DzVfyDz7017RZZi3APb1r3+9ecUrXpGHlT74wQ9utt9+++a5z31u84xnPKP5x3/8x8Y5WNPQ0UcfnWk5H3ZFNky3zCYQh7U+4QlPaNTxAx/4QN52mKtzwh796EfnWV/dd4Z9F4z7E5/4RAogOrvzxZYHWQkTfHbffffE1+fBBx/cvOpVr8prDo51WOxCk7PVBDg38GZJznt7znOe07zyla8cyzhmVQaTk8N+9XWH9e63337pZ1MiNMyyfpOmpa++613vajbeeOM8sHjS9xbqOUKTkF5XXnnlvLLQZi9/+cszoD2es5Ck/f7pn/6p2WSTTTIm7CzygoPQaVdffXUKo3jbtLxxLuVwGPQXvvCF5vGPf/ychMnjjjsu+/eNN944l+xv9Y7DrR1aLbTclltu2RxzzDG3emZ5XNAOz3rWs5qXvOQlGe1keeS52POgKT388MOTfx566KHNtttumxFkFqrc5gBzgbE9S5pmLlioMkxcnzilfd4UjKWN+Iti8LSh6m4jTmMbglj+ftrTntaGtmOiPCJ0TxuCQLvPPvu0seKa6J3l9ZCyBRPLOsXJ/5nt1772tTZO9G/vf//7tyFYjS1KnKbfRkimTCPiZLZxcn8bvhlj35vlAyEwtHGYbBtCZC/ZmBzaU089tf34xz/eu7ayfbn00kvbCEHVBmNf7kWPBUgbMT7br371q8s970EZGjubbrppG5PLoNvL9Vow9RwjsyhLaL/aCDXWfvKTn1zwOoQQ1m699dZtLCZnkteHP/zhNoTi9i53uUsbUTnaN7zhDa2xuDwoFlrt6aefPnVWsUDM+l9yySVTvzvohYhC0kZYuVafwHNiY0AbEVAGPZrX9OMQhIfen++NEP7aWEC3P/3pT+eb1Er/foQRbHfcccc2ospkXcxtoUBZdPPwJECvyLlgkvJ1n7ndxJLaiAdvd7vbZbih8ohg1LQR1MxWfVa/fo8jqyIatJe97GWLLlyPcEr+uvTYxz62iY6a1ydxcKXSFUaJSv8rX/lK86AHPajZa6+9ukku+Pfb3/72zW1ve9tl8rFKphET4HxlJW0TQmSGo1redVhrrbUS0xJ8fnnn35+f8ehvMRANIVMPs4bYrKJYzJXg2w1xNtd0JnnPGJklhrFIa0KQSX8sGkp1oTldaMJz/u7v/i61PdPmpd1e+tKXZhi3ad8d9DxtP5OPCCjacc899xz0WO+a+YOmaocdduhdm+WXv/iLv5hlcit1WuIWC+f37Gc/O+thbvO3MtKKnAumxWvBuDQGBoiQ9jJQ9w9+8INGfEa/MeENNtigOfvssxuMyQAzIJl0MAwxI3feeee8N6pCVPhMgwQaMSAJb7HCzFdcYyrk9/CYxzwmBUCCIfXkZRGDkqkmtHbpmPr+978/fxOGxLEshAFJ/6abbmqe8pSnlMv5SVjBUH0ayKHp64U7Ej8ytElZbzErn/rUp2b9tttuuxRIv/GNb6Qpkwr+bne72zLpxmqsERdT8HDvlnz9prrnO8W8JCRSaDnyXX4qBN3QHGZszWUSnOAHHJUD9uJcIvkK3yT4ORwe8YhHpKmV/8YFF1yQdWJW+ehHP5qhpZ73vOctM2FRK8NOeZ/85Cc3W221Vd6HpXf+9m//Nv/kxRwj1uaXv/zlDNq+00479cI2TZIfvJlXP/3pT2eaobnICU4f0A5Mx9/+9rezHszlg8qgHITp0K4kDptvvnlOXLOc8GEBX7FQ4QmzNddcU9ZJyuu+SYpJ2MRpotY2yqGe6sh0Db9STy/DUNmNMWGv9O8ujcK4+9wsv6uv8rzmNa9JdwRtzB9pGpKGcWxchPYr+Uf3/RtuuCEx00eNQX8mE6aFWNXn2DT+xJw1TpjSuBEwyU2KiXERq+ockw95yEPyXQsofnbGiDyL8E1g0EbaS/viS4ibwoUXXtiEljR3IxoP3baftCzduvvOtQAfUl8LAfFw5Vv4oDEqHz49G220USP27aQkDUIoE6b+iH+OI/yQ4GS8wSq0Kvme8QlD8YL1A/wfbhaE7qkDwczYX3/99ZvQGDbMYA972MOSj5gztDUaxpvcw8uMIWNJf9lll12W2f1pjONf8tVnujTu3e6z3e/6hzSZxuW566679vjwqHbVdvoD3q2c+hSs8X3YSE/84/XWW6/ZY489JgqDN47HdMtdvuvHn/nMZ3KuxGO0g75kzsF7xFE2jyqnOR1fEgd5Et48DJtSd24v5t3SL4eV3/PmBz6gsDKHw4fs8LjHPa5UJXnkpHMBRQ/8Jy1DL5NZfumqw+b6nWkgGFGa1pggqTNf8IIX5G9mO2ahP/zhD21I13mNWj+EjzYasw3wWua9WBWmKS8YSRt24TYGXktlPYxiNdXGJNb+wz/8QxtapTYGVBsN2cbE00bDtDFg05QZnaQNxtMGw8t8pBd+DVmOiEPZxmBpo8NnWXwW02d0uPaZz3xmGwJZpqdewcTzvWKCjEHXBlNqo/O0MXiyqNTqTJIhuLTROdrozD01ewiWaapl/guNQBtas5YanDoeBdPKer/xjW/M95lbzj333DY6cRsCaZYnOmh74IEHti9+8YvzHf+YMmKl2oZg0bs27EtMAmkGKSZIppbjjz++9y7zjnJ5DgXTayMGZhu+Aamqf/3rX9/G4Gz33XffNHHttttuWacQqnpZwiKEzTZ85NqYgNNsdNRRR6UpmlobZnBC8FYX2ATzbk888cRsO/2AaWBcfsy6IWD38op4m20Ecs93mXli8knc4KPM8Osvg3J4Z++99261ewzgNiaP9ogjjui1jWeGkXz0JaaVYeTeNtts0wYTyfEAH/1NeZA+G4JiG0Hh2xDQss+qy7HHHtvGxNAOq6d3jS31i0DvbTDNNCfrd8XsNwpj7y8UxYKhDZ+8rG/Ef23DpyrLN2l+xv9mm23Whs9ktmcZT8UECctgoomP8WS8nHbaadlm+AkMjPVCxldM8NnGk2ASPjA9EyQepp/tv//+mVzhcdosFnV5jRlfeULISNcCLgYh9GV5wn8txzCznudC+93iYWiSsuSDA/6FsNMygesDxiw+pw8jfYkrSCwwEwd9epTJr5u8tEIAat/znvckr8ZDYxHdfeRW3+O8sfaggw5qw+LRhqCbZvCwfGT91DX8e9PtAr/isgHDM844I8c+XPRffT6EgDYWqdlfuBWEUJt1GsWbFEYbPelJT8qxrA2MN3ONOQHBwRz0ox/9KNtFGxQT5Lh3M4EB/9QZ33jve9+bfdu8FprNfHJcu6ojPqDfxiIl+xbzdMQ5Tj4oXfMo9x58cRyN4zHD3sdfuJ/IF280rvQhbWncFhMtc3AIXm0I0hPx5lHYlLpz4QkBMIs2qvzmES4B5lZjyV8s7LP99DU0jEcq/6C5YNoyZCYz/mdFOW/qCmBAwihj5ZeCgsmkEAEphMc2VjitCdaAPOmkk7IBMIdY2eRgxUxN0ocddlh5dZlPQsOLXvSiNqTzTMdg1on5FwA7JOQ2VqC9Sd5E5HfpxJgK4S80BSn0/PM//3NO1H6HmSTzItTF6i8bXX7S1RmVvwhgmCvBswhgOgJhRTl0PkKFNDAWkwmhUDl1OOkZ/Dq0zoUZwUd60jUoMHyMjz2eIEgwIjh5FxOfC2GsJiYDH4ONlVUKwUV4M/iUsQhg6qGjE8AQocqgOfnkk/N38Y075JBD8jchyiTwtre9LX+bGMK82RMYMXHpFwEsnHLTN6ZMGphWrP56TGxcfiZavgvyxcSXLFmSk6DMvSuvt7/97VmW8q+/DNpG22IshQg+hKoiWJfrgz7HCWAmABN/tz8bM9IvAgL84AxvpH0xxGuvvTZ/j6qnhUBoxNrQOuazsCQYFAFsHMb50oz/aXfCub6Mli5dmoJ/aIcmysmYI1T6KwsUixrjxURsUWK86KcwIwSZcEPTlOODIBqarxRAygRs3BcBZBJMugKYvrVp+NUVAUwltHsRwAjQ/Ff1OUTg8Ds0GFlWY6D41xhjJhJ8Dk1SlnxwwL/Y4JDjSx3hhG/BAt+1+DUpFcKH8JFRCwXPElDwcLwQtnwbCZOE6VFkkaqPe8cfPmkBVMoAe/UuEy6s8CFl9bwJEW+xwNT+FsDauNA43gRz4z9MafmKMaw/WOTgb3gpYb4Q/lcEsFHvlucHfeKD+knpY8Yp/o8madezzz67Nwd4xyIB1saL9oSD9AmyZRx4rp8m4TH973R/W2jrG8ZIIfh1BTALU+136Z/55DjePAobecCnCGCTlN+cAhv9EYXWNHmkTzSKRw6bC6YtQ2Y0w38zN0HGiqUJ4Wikko46mQmFaQDZFRiDMNXpoXVIcwMTZgyKVDl2d0mE8JAmBGpD6nFqcWr+YPSpaqfiZgZwjxoVheN7pk0Nb9dfIeYDqk+qZyaD6Ow90w0Vp99MF8pCZT3OZ4C5hZ+L3VNMEqHZyZ0+0WlztxyVrbozH0pPXZibqFWjI+ZnCGJpmqX+pwKOtk6TGJWv9PlNBINqYoCWakz9qa5U/f5QdML8nOSfd+ERgk0+rg7U1DFB5W9mgu9973upNndBXUOLl/f88640UDCUNBF6Xxsh5pLQeqQ/l9/j8otVYqrnYyJOE4d+xGxR3vW+9LvULYPrfBSZrUIg6j3GBGAHmL4Uk2zv+ly+MIfIQ5qFgvGniYbpJYSvbOcQPrOtPaPMsCumrVH1tGOPD6I+goyJUudJMM6XhvzTZ5klCsEotAy9NizX+z+9w1xhdyizFJNbTMgNcz/zrjYYRczEzCLMUKW/GK9lDMakmuYD/c/4QUwRS5YsSczUn6kCP7HzOBZG+bwdmfPFZFC59RNmktiMkbfl18XNGOD+EIJ1mrphgr/MtyzMcc9//vPTdycErGavMOfAK4Se3GnInFeIyZp7B3MlE/gwYpZhQmT+wkeRPspsOIqYfoyjmHh7j+G3hVf0Lv75S0yKmU8skHpt/MIXvrA3fvufH/cb5iEcpJ+d3XXaBMbahfnMPML8XKg73ke9W57v/2ReNKdIsztOjdVJ29U40IeLCQ7/M35j8dXDxBzEdG5uKP2/vyyT8Jj+d+b7exRvHoVNydcciEegScoPK/NiwQo/0D9jsZdpjOKRyuqv8MV8If5NW4by3qw+Zy6ATVIwwka3I8WKPQUfHc02WL5ZoSHJpNi+Q73bS9Zgds9kFVJzEyunvEfIQQYZXzJgA7dLmN4oIuz4M2AJP8jvSQnz0fG8q1MYSBztkXuYgQ6jbIWkrw7KxidBJwvNQdrZnV5dyHbtvYK5mpgwOOlj5oVBlufm8hmr0GQCc3lXXQyigpNywb8IZKPS1H5FyIRbqQsfJsxmEPXnB49Ydacwb7KN1f2g10ZeIwQri3IXMpFqP5PmfMmiAC4+C0lbHgQJZBLFzGNFnH4zfEr0ff4faFg99Rt9HhMvbZAv/PnfXDDuvm+hY1IsRHjiWN/tw+Ve95OfnzKdcsopvct8ggicBHQC6CiCS+kbg57Tv7QXf6dhzuyOGZA/fyLfY/WcCx3vlbQn7XeDytC9hh8pk/QGkbYl/OBvoUlL30rPzbd9LHhDI9iENq4JjVHyiLAq5CKW/02X5xHQTWB40SgyHoxFfbII9aOedw9vw8cJduFCMe7xvK8cBA7Hi5RJtbxIgJmWYB9WjhwrS5cuzTTDtSCTCa1elnHQGPHAqHeHlUOd9aUyB3Wfm2+7dtOa5PskPGaSdObzTJc3j8JmUB5zKX8R3kp6w3hkuT/ucy5lGJfmuPv/IwmMe3KG98tEW5IkyVpBkIJJ+l0yuYYvQ++PQy4tEiENw6P56hIhTnqEqDKJGwyou+LpvtP/XUcqjMfgmpQZeIdgabBfd911yyRLqFBHHVPZpOm7vKxSTcg0durUL0Qov40EmPiSWOFjIrSG8JoFWRWUFVx3EM0lbUIFzU2YdbOeJY3+dnJdnQnUBg7mXQguRZNQrg37dG6c5wkJ/QL3sHf6rxNyYEx7VkiahOGiTSvXp/2kSVUX/TXMictgIo+iVVCGMDUkJpyYTUrh39gTdIbVE9a0h8pehLluGeeLMSEQNuXPZN8/frv5+c6p1yR+wgkn5GRsQvanPpgc4XIcqZO6cZo2XvpJn9VXjYPufdoweSPjitaHMIhvFEFtLphg9vLr5tUtU5hvUuPEkboQ4YfmhYad5o1DOs1/l+ZSlu770qaRNN4Im7ShvutX2kyfK4Qf6tNhViqXBn5aINNk20xQiKCBDw8jfYLWxjPhItF7TDr9/KzcJBCzGBQNpuvKTEgfRON4E/5osQ5rGuEu+U1IDneD7uXe91Hv9h7q+6Lt1CFMo8nDym39f77tWtKa9HMSHjNpWuU5fcVcM0xoLc8N+hyFzaDnZ1H+YTxyUH6Drs2iDIPSHXVtJgIYplQaaRiDUohyr1+gYeIhVBm44SeRg5BwQW1vAmSSKn9U7iYrK1pMkfmMiUHaduzpNOELkpOyVS4yMWHmdlZ2qXSu8uleqYfVJGGKKt6A8ldMoaUe/e+F7T9X9vLFDAlTtFoYmXsYn2uYmT+TEa2AXSUGMpMsbMLWnUKcVVnY5FOYC0f53N1mZ6EdSYQ1dZqWMGETfxFO+9+XLlyLMGJCUe+ysu/WuftuwY1AZdcMU1M4ROe72tHuHlTeL8/T9lkJE1QK2Q5dji0pz5d75dN19SDsep+GCXMtqvqy8tdW/XUtaZYywJ+pjMlFmkh7rx8TOG3FOKJpkFZ/v2a+w9hhQlNBm2TCQYQE/UT9kXb1rImcOUS/YUKB+6h6yttYUF5jx/O0dv7cQ+Mwzodm+I/GSX/vV/eHD06OAX2jO0kPyhoOhBXCKIEC4QnGjTpaTOEJjnXBeAnx4VOVZstuvoQeWMvPTsRCk2JS+kgRdLUpIaGYZrW5Pqa+Fll2fOJDBI/wocm2s7ggKBlHnmWaxAf0S5+TlqWUvftJ4MD/8D11pVmUh4UavGlUCx8kKNBQdU3h3bTKdy4U3DosApiA7b72vX8clefLpz6uH4bfXh5pQNP51re+NYURz+iP0jBWkfLBTNp2K4cjfPZhghIeRKjDI7U5/MbxJm0Ca4tm48cuOe0jX0cq0LLRkGkHY8rzyuOZUe9q72HEeoBXEvrUF8Zx5lo+Pmm7Fn7UzaP0u3Kt/3e5Xj4n4THl2UGfcICJ/lgIXrDEX2HIvKvtCo8cVG7vlrKOwqY8V56dpPz6dT+VMozikZPMBdKdpAz9+c/7d1RgXsRBnLNvDJZ0ULezi7NsNOgy6XJytOMxCpw7/WJCXuY+Z9XQIKWzfKzecgdjDJRlnun+4PBux0msinKXCAfZmMTyEe8FM0gnXI6AdtbYTRcDKXd3hGo9yxEdLA/6i8GT5Q+TSe6ikkg0Whsnm+f1YBLp4Ktcwegy7eiouVsztC5taI9aOxdRTBbpqBgMpA1BMZ2A1R1xXrTZgCOvHSYhdPYcVN3nHO6wRu+GNN6GuSffiQGQ3+2I4djKMTIYm1eSYgJqQ4DoOWyX693PYDJtrMZzV5A2sFPHLqn+doqBlrt6OM9y4uUkHpNLOhRz9j7yyCPzINe9wjmWM69247zJ4bi0qXrY8aYe8OJoGww0dwnZCBFmkHTy9VwMnMzDrleHRdqRaSeZOsfgH5ufjQ4xOSau4W+SGwD0I5s7lFWbqisHXhSTUW7G6JbBdZtCbByJySCdQ9UvVuZuDSV9xC407+n/nMA50/sLjVy2b9n4EQJA4mB82DGljtpS/RFn8tDcZr/UPv7gx3k7mF5u6BhUT2nEhJV9VV8MoTGddvURmHI6HoXx0MrN4YbxxQk8FhO5u1j/KKT/ccbW/41ZGydsnhlFHJI5ucdCKPu8Hcsw4iBuc0JMfNm2cPKHB3Ac75L+bANE/4GeozBRVmNDWf2VDSl2dYYQkNe0r92HymPnJX5QeJi2M370Zfm4Zwzoi8YS52bOzJzC9ctRZenWZdB3jvE263BQxgeUSx9HxleYaNMxHS9TXnxzEgphIsusfjDg4KycowjWHP31UxjYRGLHI8J7bIrQR5WjOFLDNia+fB4fNXakg+zIg1kskNJBfxRv4ojN+X694LnGP8d1mySUBd/ETziY4/lhJUn+pE20p53oyjfq3SzQgH/GpvqolzqHP1juovbouHYt7aOv4FexmGxj4Z5lUjYbO2zUMJaNa7xmFI3jMcPe1SfMR+pgDNkoo142J+Eh2tHuTDtWYRe+Vtke4+aCUdioOx4QmrI2NOXZZ0eV33g3p4dmPMebspX2tSFPHaadC6YtwzD85nN9DS9Hx1kUZKVG4xSDPrUAVM6jyMqFIyepnXaJP0Eh0jIzoJVTMJBUj5d7k36WNKyAaEisammqmJNGkVWYM8lisk3nVavTQsFEcnUobStyqtouxaBNlb08rUL5bLgmTc9S51s1Fp8379J2WOErYzevbrrTfKdhiB1JqcaXFxzL5oFJ05EGTZbyw39cubSTfOQXAvOk2eRq38ozmEeWkbYDHjSn05KVNm0CzSdNQjHLTpvOsOe1ubIqn/T180K0b+7TYiBtrr/RosTiIdt7XD1pA/UT/YamLSaUxL/kMVeMy/sr4lM/MsaNbVqvYLTZzwtvwAOMiRDAkmcMajNjg0mzf6ypz7SY6KP6CX5DIxcCwjKuDfCn0YkjT3pn+MnHOzYVxUSamhjfuUt03SKmLYt0aXOwcLjAiPZ03Fjz3kISbRKNpDE4jlcqB42XcUcDoc8WMga0PdNmMSmO400whEnxMYQzTEIQy2RpdIwjPIlmRD+SLxr3bj405B/NH01R4dndx+bSrt33p/k+isdMk055Fq+CFzz1M3U0F5TxV54b9TkKm/735lP+8u5854KSziA+3V/e+f5eVALYfCuzWN6n/rYDEoO2k4vqvFJFYBgC/HQ4PHMYNrEXIjiE5iEn9EHCQ3mufi4eBIx5p4lzE9B200xUi6cWtSQVgYrA8kDgdssjk9UpDys0fmm0F90TqVcnDGpdp0OAFgXRmPKfs+KnDabZ5bxeha/p8FyRT9No8cmjmavC14psiZp3RWDxI1A1YAvQRlSYlfkuALCrcJJM05zIOQ7rPzQoNoIU08kqXPVVqmp2bVqECXXEibxSRaAiUBEYhkAVwIYhU69XBCoCFYGKQEWgIlARWCAERnu5L1CmNdmKQEWgIlARqAhUBCoCqzMCMxHA7CZxjhOflRVBdll0w36siDJMkifThHAdgw7MnOT9+sziR6C/L9qhZ4fX8iIbQISaYdKcNem/5WDRWac9KD38xK7CWdOKbiP+YQ4ftVNwWlrebdBfPv2q8q9+VOrvisDcEJi3AGZycYJ3nFeUW1TnVoy5veWoBjuN4uysPJBxbqksv7dsjxajzARZaeVBgBDgRHWHLQ4TbAb1RdvoHY7qz/eFJge3cgCPc/nyIMpZ5mdTiRivcLAtfaHJgsqBrdP4UdmwIFRSOey2v4yLoY3wAMdUOESWv980tLzbYFDZHPPhcGZtQ5CsVBGoCMwdgXkLYLbNl6DOcy/G3N50XpNzk+Zy5tPccpzfW84Achq6M8LGkdX/hz70oXGP1fvLAQETJUHg4IMPHuoUP6gveofw5TTwaQSJuVZJSBqnkS8E6buOynCu20KTM+gsrESu6J5qPypfQjLBwEn0zikaRIuhjYT5Ed5p0np167E826Cbb/e7zUWO2XBqvSDalSoCFYG5IzBvAUzWGNuKIhPb8pjclnf9hGC5NEI/VFrxCDjYUmip7qGZg0q1GPriQo5FBxwu9O5eh3LSZNkBOs35eUyvwuaMC7OzGNqIFmmuOC6PNhjUt/uvRVSCDBMl9E6likBFYG4ILNg+aX4CNDjiZIk/5kys7kn1TDlixjnpWBBr8RutCjFdDIoJQgxFmiAx4Zg+yinX/CAEBb7mmmvy5HSmhS65H2FPMi6XE7Bp6Iadru7UZsGBSxxGgXtp9ZS3K9jZXi5P5WbmED9wGBPlYyL4L7OTujnf6UEPelD6fEhfffw5bkDgWSZJ9XbKfoSgyOMITCY0e2IEMrE6+Z4JAqYmGxNNmWwirEf65uyyyy6pBRB3UZ7u0944Zd0J01be5VgDmEUYkMa7BAxm5AgV1YVxme+D8h5Wf2YW5dYHnvzkJzdbbbVVD8tR/cJp4eL+mYRpcsS5c/LyXnvtladVaye+M8xspe7LFPLPP0blMej5ceUVnUF/GtSPR/VF9XEQrzO9InxHL2t+VCWwcYTTylO5CU5lfEzT1yTqediYnPWNfho1lvqfnWTsiBunf4t0wJTm7DLkEFIx/cR2hZmyRJiWPGFcv3XfqeP6aTnZvD9/7e9Ef8c4dMm4U0f9WRoEACfJI2VWFsIAbPvH+0K00bR9zPMwc7iu8vcHIOFHa9EFN6e00+yX/tDFoXwf1gbuD2tveTjqxNgXcQLvibBOeUo/87V2jNBB2c/xoWHpyAOvEvBb3FpttaJP31emShWBlQ6BYATzJjG2gqlkLCuJiQEnLp44Z6Gq7sXACyaUeYldJ56b+Iy+i+EnNl8Ecc13xIwT3yyEszaErIzlGKeE57viS3lOzDExz0499dSMFyYeJZJenEKfcaGC4WTcPzEXxfrrp2CGWYYQftoIHZIxLSOAasaWDEGp97i8xb8KM0fG+QoG2R5xxBFt+ED0nilfQqDLGFfievke6vqMjanuYpvFoZrtu9/97nxcbC9xxNRJTLQQVFrPhQkmY5WJfRWMMfOFpfiBEdYi44PBWww6z4ob5neYXzLOpLhd4neJQ6jcYqFFSJD8LWPlFvMwTDwZpw6GISC2JWZlqUv5HJZ3ud/9DDNQlqe0nXIdddRR+ciofiEmZQjkGUsthKs2zH0Zn0wcT7+XLl2abST+p7rpF4NoVB6Dnp9reaU1qi926xOBxXtZi1cmNqVxEcJKtos6iTMYAns7TV+TaPjiZB/T36666qpsxwgb0urbaNRYygc6/8aNHWMI9vqbMRjCV45b8SjlJzZbCA1taK/yvjGlnmEazXpFYOXkC8997nMzLmsn6/yqX4r3CI8QEnq3xQTVj8XQNObdhyEaV+aFaKNp+5i4dbASlxNOeJ8Yh7Ggyzqon1h8V155Zca0E49Pn1G3fhrVBp4d1t7wFA8TL4yFXbaPOKPaDq8W489vvEL812HpdMvjXXwjFmfdy/V7RaAiMCECVmLzpq4AZqALfnvYYYf10hXUOMw3ObBdFDjVxBw7AvMZQoQAquFTkL/D/yOFGAJUaMAymCzhA8UquA3tURtai/xNKBKwtwhgcQp9BrR2HWFiJvDCsPNi5x9BIfwyWkG7kaCtglALCoswz9CItZdGIO1Cgumqj8m7n9TtsY99bAbCdU9gckIUEvxTvYsAJgg4pgczk49AxhF/Kidik1hofvK9WP3nd0IaZu0ZTDNiSSZDP/vssxO/IpTEKjoDIhNapGtiF5wWU/dbevIN/6RMn4AlOLDAr/00Lu/u89qLECkwMDL5yYdAPEm/8I56may0O8LkCY+lr2gPGKpzP02aR3lvvuUd1xflA/MigOmT+hZBBcFWXUO7m200bV+LXXQZ0NnEXig0p21XABs1lso75XPc2DH5Gyv6IYKf9hKMHBlL2qaMY9cI9UuWLMlAyX4bO/ptWYy5Vsg1Y2efffYpl/LT2NR/tS9SJ0Gt0bgyz7qNpu1jxh5h1Z+xh/AE/K4IYGeddVbyS2Pbnz5PkCUE9dO4NhjV3soS2uPE0gKhkPEaGrFlFmCj0invwVaw7kHlLM/Uz4pARWA4AjPxAeuq/ZgZYiXXcBgtJJAntTqVdyFmgWIu4djLNFZCrjDXhEYgzTSh6UozpudRrOLSfMG0h7xTHFqDwaUJxG+mR0SNH5Pc0KMAmNGoz2PiyOeFhfE+0ydSF2awrv8P85fyUNv3k4DYAgMzAQYjTVNjTBb5mHy6ZrunPOUpadbk1BqMtQmBa5kAzSXtmJjSVMgEGpNR+iMxF3KKZpaVrnLf8573zFfUGS5C2pT6MdeEQNQwXTB3nXvuuWmqCe1XE1qZDEwbDLpk2fscl3fvwfgSK+HcIcfcibSpfJgpJu0XzL4C+BZnb+X2fe2118401cvv0j558c//Js2jvDPf8o7qiyWPrhnbtRiKvd3CxeyoTtpw2r7G3MZ8+uAHP7hkt0w/dXHUWOq9FF8mHTvKqX8h5WYq00eQvuavjEfXBEK+NHwZjQk7gJle9TPm934KgS4DlZf03TfOLr744uQnxQVBnYy9Sco86zaato85aoIZOgTL3tgXhL3rq+doGhsPjG1/2jSsAj2e1I/TqDYY1d7aQPvAt9svpac82rPQqHTKM8ahNhC0uFJFoCIwPQIz9wELM0NO9D4LGdgm0MKoCST8eEzMJo9YSSWjJighTCs0aOmXFaa+JlT+eR2DxpwIGyayforVafrbuIdxFybD34HgMQlhUBhVSf8Xv/hF+kzw5ymkLuo0iPEQ5AhKxxxzTB5bEFqtFEJMRP3Ez8mzoRFJp+O9QgA76aSTen5a5XnChvz5pYUmr1ye16dJjeB1+OGHN5tuumkTq/KB6U2TNwFPOQcJR5P0i4EFGHKxtE/39rR5zKe84/pit1zlO2Fy//33b8I0nIsRE58J3W80bV/jK0WYGYRFyXPYWCr3y+dcxw5hooyzklb30zhUP+UIjWwuEgQdH0Xd+qifPhWaoVu9Mq7MC9FG0/YxPI8PYLdO3YqoX2hG0+/K5oO5ULcNJm3vcflMkk5p90l567g86/2KwOqGwMw1YIQTGoxrr712mVUuRsNpE1k5hR9HY9s8p08O5hzyi1br6KOPzonlhS98YToWl0ahUaHZ4thfhLlyzyehiACEeWBqheRdNCjl2qSftDkYvTwLSc/kOej4C1o9ZTz99NOby+JwWgz7hBNOKK8u8xn+XIkBx2O77KzWfe8nGgWCYZialsGUQ7pJe1qSrzOtaC9sBhhF0+QNY22kDl0NR/gmJf7j+sWockxyb5K+101nPuUd1xe7+XS/W3wQvC0qOFxzTl+yZEk+Mm1f48geJvYmTJfdLJb5PmwsLfNQ/Jjr2NHfuxqr/nQJ+jZT6G/DHO/LO8qgj3QFeNc4fIeZPMd1edZGl3FlXog2mraP4QXKYaNEd0yUehBiaKppBsM/rFxObXJZePYuDvnSbYNJ23tIUr3Lk6RjAYMPEgArVQQqAtMjMBMBrKzufBKATDDOuyoHIhISrALDwT1LSDij6aERIMQQyJhTCE2EGyt7Zj8D3ORy4403pgYrfGZSc4b5Ol/J6poWyp97SB7eJfwUskMq/HDKz2U+lbmUv3ujXLPbkVnRTkJlQ/JfP0ysNEf9ZFehHYDI7qBwOO4dWFjyKmmbmBxki4kRhphqMWkaOIyZ8FY0b7SDtGkYIwHTbiamjWLuKWl3y1PyKdfKbzgTwmgT5We3k0nPSrY7+XmP6XVc3iV9bW8nlUMaY4NAps8EaVfmJP1COoPqUa6XfAb9dm3SPEo68ymvNqPFHdUXSzkL7vrPP/zDP2S/dlbVuuuum0KY8YCm7WuEZ2ZnGiZtKX27erUj09CosUQ71E+TjJ1u+0ifsO28rkL6U1cjojz6Gw0WQcEuRmUzXi1suqQuXBUIIsZ2ITvyLIAIcQ6BJYxZ4KBRZV6INpq2j2lj7WSHY1lc0Xoa16WO+KV+FH5iuZtTHZ0dR8AcRMPaYNL2Lvl20/ZuERAnTcciWBnLwrqbXv1eEagITIBADOZ5UQhZbRwsmrv7ONgGs03HcDulwg8qdy5xoOdYGgM78woBIndGRfHYEXt/dhdy2rVTLFaNrd92SHLs5rQqDU71++23Xxtb7tsQgtKhlJO8nT2ckeVhF4/fwaTb448/PncPcq7vJw6vRx55ZOa1Vzi8290UglYbTLPdcMMN2xAc8hWOrxyN7Rzk9OtZGwsGUaxk06GVozVneziEUJa7t2KizF1jdkFxyH/lK1+Zuz05wYZg1YbGL5+Trh2TdkrFpJw7HWMCyo0EIZy1/kL4a2EvnTBNptNuCLWt3XChTWvt7JR3THjpXA8jeNl5GUJW3pM+Z2btxgl/o402yl2o/fUalnf/c34rzyabbJJljAkw87FzE9kBNqxfxKSc5QyTdBvm2vzOqTuOzkgc7KSMSap905ve1IbQmX1Ce/XTqDz6n/V7ruX17qi+GJrdNibc7MP6se/6pv4cwnWvz+v/2kG/QtP0Nc/bABOCS+5igzt8tX2YwLMvjRpL3u/SuLGjbxmLdjVytLfrNvy6sj8Z98aSutjwYmMHisVPG5q9HL8c6Y0LY9tuu0Fj8uzYXGHsacdCsRDL3cLGPLz0kbIpY1yZF6KNpu1jNsXYKBR+Vrmhx07P0BrlbsgQvnMzhl3dcFE/O031n0E0qg08P6y9Xccf7VoMIbKNhVFuajDG9Jnwr8udx3atjkoHDy5ko5JNGDaT+MOHbCjBXypVBCoC4xFYwyMx6GdOVlNWcrRTNDtdNfV1112XphdnBFlBedYqOXYDpbaJ1si7zjWiKaBBk07X5BeMKN8JwSg1bcHkU5NWKkLDIx/+X8POACvPTvJpxUpbxVlVfYpDcP+7NH2eVR9aBuUbZqKhtQA/DZ9n+IlZtaOYWPKMNOaJYrqhOWCWoCHz7LAy9Jdp0G9lDGG3CaEstSi+00h2Nxt035smbytsWkeaTRqNUifpjeoX3fzm833aPOZb3nF9sdSF1icEyNSKFp9AfcQGDCYo99Ckfa2kS7tkvMBaeszVNDWoYDFqLJV0yueosSM9/ZVGytl2TnYfR0XbatwgfU39meb6yTinUeObaLNLl2iJaLeNKX2rS6PK7LlZt1HBdRB/65arfNfHQtjJcW6MwZBmXVsVoi2k3cbnmGKH0ag2KOWapr0H5TMuHdpM7XTggQfmOX/SUH78DC+uVBGoCIxHYMEEsGFZMzs4ENTBpwZvIQKHXYPMeg5CrVQRWNUQYELm88ic3d0FZwNEaB56JvpVrd7T1of7wvve977cETjMDDdtmpM+X9toMqT0Y6bg0NSP3IQxWWr1qYrA6onAzHdBjoOR9saq2fESdgBa7VltWT053boKX+MQrPdXVgQ4cNuQwCdIhABaT/5AtLyOaKj0/xGwCKPJ40voqJWy22554FPbaDzKtNu0kbSUy7NtxpesPlERWLkQWO4asAKPwLnOB2I+YQYLX4KJzBnl/fpZEVgZEaDpEq7HgoMAJqyV0D2Vbo0A4RTZJb08qbbRcLSZx5m74zDdZVwLhr9R71QEKgLDEFhhAtiwAtXrFYGKQEWgIlARqAhUBFZ1BP7HA3RVr2mtX0WgIlARqAhUBCoCFYFFgkAVwBZJQ9RiVAQqAhWBikBFoCKw+iBQBbB5trXjGfoPL51nkjN9XfkGHbw400wWMDHld+K/7fnLg/hmcZRf7MQJ2gG6sybHpzgWY3n1meXdvrPGa3mlpz3EjBwUAWR5laHmc2sEFmoc3jqn5XPFkU/947+fJw56ZvmUbva5OE5FfR0RtCJo3gKYk62d5+VMG3Ed41DWPOdIzEJblJ3P00/O0+J47IR1Z3WtDCSUiPPJ1FGIJBOHRttll13y7Cwnvk9CGCgnbGFopAGLhWx8IZ7iYNpJijbyGZ1UmznRe3mRc9Li8NvsJ/rZQpJjUISCisNMe7EZ55uf9hXhoQSONokOGg/T5OMYl3e9613NxhtvnJERpnl33LOXXHJJRjKIAzZzF+K45+d7f3m273zLuhDvO0NMhI44kHm4U7DjAABAAElEQVQsD4CVnbLGYaUVj8BCjsMVWTv9Sz/T34bxxO4zK7Ks880bXxbN5CUveUlG6ZhvenN5f94C2GMf+9gmTnbPlVmcKp4xHoXYcainsCsEFBJzly688MIMTSSsjsMjVwZ63OMelyE31LFoY0ywtssLveJzHNldFSeJJ9O1i8hxHLZyS2chCJPQFgQLec+HhD6KU66HhnSaT9rD3oWPM+NKuKVhz83iuu30gp3rz7MiQeYJMxYaERWiidP8UxibT/rODxO2qnso8XzS675r0fTMZz6ze2lBvy/P9l3Qiswxccc5IH1k0KG03WTtFHc+mgXuqkSsB+Khrmy0kONweWLhKKjuohAPJGDpb8N4YveZ5VHW/jLOKk+xqIUBW5E0bwFM4TWU870KOTzRys4pzzQAV155ZbmVpg2nJTuMclwg6N5Li+RL99RqRXIaN+ZBKHvxi188tpSO3PDceeed10QolhTGjjjiiFud6j02oQkfEJfSn3iatBtzJRo6QaQJi91T7eea3jTvOe2/H/dp3p/mWXWb5blGjk+Au7ikNMTqQsiZLynjLMvZLU/3gNju9YX6vjzbd6HqMNd08cxTTz01g43PNY2V/T0adccRrYy0kONweeDhOJEIg5earmH5zZonDstn2PVJyjjs3UmuL29+11+mBTuIVcNhMIQtqsxCzv9ylsxHP/rR/CSFlglWqA4CTcSyax7zmMfk+T+jNGRMOhHfrJGm0B1CY6wfkjsqeVhlCv1BS2dCpG0i4Uc8t5zECBaERCYu2imHQBbyrBAxfC9orLpBhj1DsBSSBdGQlfAyVhQCcjvHSNgUq1bCmlAsGlyZ1VFZhUrqknc+8IEPZCgjGBBku6eBOzXdStgBlQ7wHEWYG/Uqk5VDLZWju9Jm/7a6oGFSFpoyoY8ciNvVOgkdA0cnXzu3StDo0mZ8IJRXG0e8ztT0CFHTTzDRtuonTA7NaAmx1P8sM600tZFn9aEu3XDDDZmW8gtX40+IJv3Hs8oh0oI+oK1pAp/ylKdk3aStHNrtEY94RGq9BoWKInSaGISW0gcFVtfP1FdYLXmWUFBU2Z/+9KcTE6tDbY70GdpeQrC66l/dvCYti7T0dW11zTXXZJ9Rpy5Ni+84DJQt4j1muxpX+poDk+WvvoKuOw0dhhFLMFfRs2pf2mR9l5ke9jR+XdwmaRv9UfDriAWZq1yaYGGM9tprr+xTtJN8C5kg+kMeTZK+tqe9Ma70Je0LC2McP0H6nL5izOqr7usTiP8evqLfWIjSLktT3WmbtS/eQIDfaaedcjzimZ4tC1d94lOf+lSOy7ve9a753DRh10b1v0F1o8kdRNwz9E24Ff6gbKPGDz6LDx566KGpzcUvzQX68aD+Jd9B+UzDh4xdeFsEcX2RjzbSB0o64zAdNw6H9V28aK79Ud3xTa4r3ECMC/2J6w8axA/1L/XFx41Vvp36pTkZ//Y7Yiqn8kA70PzrV3iV+cU4iRizmX73Hx7QfcY85nljq0vmfzyYJazwQNciHmzOlaN4SUnHvNNfRn1kGMauGw/maX014uTmfM9lqFsX/cj4F64Ljv00qp/1Pzvv3zFhzZsEphZcNgrTRjzHNgDIYLt+x8TVhvkr8xAQNgSlNibXDLYcTCuDBoeg0wpKK1Dsaaedlt8FFh4WkFZiAXa79957t9HIGRg7BIg2tAwZXPmWW27JAOEhELWh/WkFjRVsugTXFihYAONgeG2YXNo999wzg2SHoNbGJNvDQ0DjEH7at771rW1MPG0IWVlH7wSDbwUVD6aa1wT9RtFp8lqYX9sIa5JBw6MzZ+Bb9Y4JJQMVB+POtIP5t+ELku8KnB0TXbvPPvu04fiYwbEFPy5BiwUBDgae+an7KIrBl0F2w5bfHnDAAYl7DMDeK/BTvjADZUDdF73oRdlmMWDzvWDA+ew73vGOxDkGbAZAVv7Q2rXaTBljcmwjzl5+f/azn93GZNPLo3zR/jFwWmlpGwF8w58uMSnPlE/tFYMnAwerr8DlAjwHg89HtJ3g7sGosw8JLKzPCLoscHcM+GXaUKBzgc21l+Dd8paGMpXA4DERlewzuLuyIc+EENzuv//++bv062CCvTYLDUaWR70ECr/Pfe7ThhN/4iN4ewgvGZzYc/q3/oEmKUs+GP8Eo37pS1/aCtgcAmErLZiEcJ2PTIPvuHxf//rXtxHLr919993bCBXWbrDBBlnu8FXMoPLwg7H7AmoLfD9N/uPaN7TE7UEHHdTG4qaNeIltTNRtLEKyfQsePke1jfYM38cM2m18HXzwwZlmCCet30uXLm333Xffdsstt8zA18Z2P41K33jVnwRWj0VLto+2EZwc6at4W0w8+TsmyAwwHxrk/B2TRPYrgbDlrVzGRghdmR4eECbmbHM4q4s+jBe9+93vzjT099CmZ/BtY/nEE09M3hELjrw/7t+ofjCqbv3pjuIPozAMt5T2G9/4RovPhxmoDWGoDYEtx2d//5LnqHwm4UPawHg0T+m3xg4+bhydccYZWa1xmI4bh8P6ruvz6Y/4oCD2sQjJMuMF+i8axg+1oXEUkWV6ge311VicJs6xaEh+Yqzrr2HFyfbAE80J5o9CITQlv/Zbm3WfMTeFMiDTwPdi8ZB9V7tq/2E8MIS4oW1d8h1UxmEYm5/Mr2WM413mCYHtjRPzFTLvmqfMWcqLJ8eiqYfRqH5WyjXLTxqDeVNXAIuVXE6aoQVIBg5EhPFiLCZMjatTqbgOgQmFWa6NVUhO1CYpgzFWDEPLpkMbPCYMA8PEQHgIc08yKcKVjgJ4HSw0PzmxS1D+yhEScBvxJ1sMm3Al/3CmzzwJhIQ2Deg7MhETKosAZsDGCqongOn0BBnlwAhNWvIJLVtLECJYhNo6y0fYwqQJgoQ+zDe0QlmGwmQxCWXCXFGsMLNTGTSlnHljwL/TTz+9DR+7vEPwJPjqkF0iNERInHa33XbrCUMESYweZtrMANYWhY499ti2CKqxOm9j5ZSD133CF0baT9pzyZIlbWjR8pY0CJJdwccN+GEu/sqAkaY+ojzqT5g1sRmIJkLtLi39yaTt2dD4ZT4wNfmqh++hSWgPO+ywvOeffqsuhIhCXWZDCN00BIAigHkGIywCmDbccMMNWxMpUk+/w7yeZTV5vuUtb8l7GKX+hEFNWpZ8Mf7Faq2N1Wn2IdcwG2UoAtik+E6Sr/FE6MQ8EYarD2sTRKANzUxPkHRt0vzHta+0LOC0kfb1Z3yaeAgtXRrXNp7VN4y5spiQlnEQmqdMSr9Qt7PPPjt/d/+NS9/EExsheuOQsBhatkxCW0u3CGDqYZwVAUz/tHAhOMnH2ChjE0ahkcmFAIG/kAlSmoU3nHPOOZm/voDwIsJlaHfKK0M/x/WDUXXrJjqOP4zDUF3xUmO60KD+NS6fSfmQBajxHpqRzA5m8DIPoXGYjhuH4/rufPojHqP9QyudZfVvHD/EZ7sCmH6PBxV+bjxYUOu7hWAwSgDzXPcZC8KwEuXr2hO/VU7zgPIN44FeGNTWmVDnX38ZR2Fcxo6FVRnzr371q1MJZJxQmGy00Ua5uC9ZhAa2J4CN62flnVl+zsQHrKuG49TGlGV3X2gmmnXXXTdvU1vazsoUxwxG/RcCVDroMwVwyHWPWpjKlOM+dbbdGNSF1O/+mD2oY6kaQ/BqqN6lZxciM1lMmM1nPvOZNNlQ/1MtM+HJT5m65Fp0yPRroh6lFpUmihVimsC8W8wf5bObRvc79Tl1LN8A7zFFOdKA2ptpL7RWaU5hhmC+lFcIGlnWmPCy7t6l1kXqpkwXX3xx/ma+POWUU5pYzTXRsfPaoH/UqkxvHL+DyaeKn6kVZt7tJ6YO5g8Uq4Osr/orYzDjNOGWd4LJZ3m1E78mKm35xEBJFbZ8+olpNgZ9PmuHDbNuDJasW/dZmxu0HXW4dkPasNjpQ2BL9XcIYxmoGRZMv8yxyh/CT/qqCeSs3tpbOzCf6TPqE5rSTNc/5iImLmaeuRAMtI/4gUg9qf6ZIZVZn2Q+4ucT2t8sk3pPWxbjiYkrhMvMR52YFgpNiu+k+RpPBXN9mNo/hKzMzjhxTxkKTZr/uPaVHrNcCH3ZvieffHKO/9A0pdmw5Dfpp7HENQFfQcwhvpf2Uge/g1lPmmTvOekyS4d2uQlNQ5o9YiHTuz/qCz7AD9Q4EBOXCZNpCxlP+j5eo/yF4F7GBJ7BHKUP4BHI88wu/TyuvN/9HNcPJq3bOP7QzXPS74P617h8JuVDyoBPFLcPmBmr+PYkmI4bh+P67nz6o7b31x334/jhpJh3nzMn6oOjqPuM8uh3yPzM3QWPNw+M4oGeH9TWro+iURiXsYNXljEfFok0jTNLMsGSJ5xkUCgE8vJ17HzXe3CGX/5nhM8w0UFJmchNPjphYSSeC2ky40GyxduOHWa/3LHHSd2z3sHYAIiAHKvA3s6N0HzkdR3BH0ZmezcqQkX+iH+FyZXfgz5NqIgQU/Is1wY9370WK6r0OYkVZtbJPQJeIb40GGaoRzPouPKVtE0C/ARgo4N3iTAxDemkyoBJ+0MEXNcJOKG+Hpoc5gtH5SEES0e5Cpm8TFwwjpVO+n5os1hp5LEIhA4TcpfgHlq83D26dOnStMeHqrf7SH7HUPhc6RODqGCEaQ5zZtdXTIqhVU3fGMI8TEPblwKvz0LqoT7ynQtpb2Ua1q8IzgQvmxcsDPgCoWnKou0xDYuVYbhMiu80+RY8YIdJlXFWrnc/J81/XPsa67FSTV+pN77xjd0sFvT7MFxHZWryOOGEE3KRFZqGhtBvQTBqYVTSI4iGli99ZGzCsdiZhozJMk5gXwQ1gkXhWaPSG9cPJq3bOP4wqgzT3BuXz6R8aFCeJmhzyjhMx43DWfbdSfvjJPxwUJ0X4lpYiZowwac/qAVGoWE8sNyf5nMcxmUu7aapbQueYXZMeaL87j7n+7h+1v/8LH7PXAM2rFBFywJEQFlx+I7Brx9aCZOZlS5nWcKC31aJJi5OqVaL5Y9mzDOIFsKzhbornDIx+pRn0SyVZ0d9ctqTFuGjK4CMeodwRYAxMGi++inMgrkZYMmSJSkEFcbpOatz2h7lLEwUU0BdKd0EFSaOZBh5s+8fTGncOLeaxMqfycLRBZzbu3h5vdshYSV/mqEwdWY+VuiFpI9BS4uQqs7qdVns9MPY5dNPBqF2JaRZnQwjadG+cIIcNJgIhvoLp9HufRpUgwcRuAi9tK8mOloKRNDSNhhF9131CT+nfKb/X1lRdZ/vPkO7S3PJOb8QRm2lZVWtvhzIi9N0eWaassADLtpgmKA4Kb7T5FvK6hO2wzByf9L8x7Wv8UBTbJx3BT5a234hZVzbKNd8aFz6xon+blczYT9Mac2RRx6ZfU4f7TL+/nI4fke/4xzcv9jqf3bQbwsHQof+jR8UkqY2Hkfj+sGounXTHscfxmHYTWvU93H5TMqH5IHXdfkd3k4TNg7TceNwmr47qq7T3BvHD/Hp/vpOk/6kz5rvLCiMb/MNzZc5hsAzjAdOmnb3uflibO5RrjA1dpPtfR/Xz3oPzvDLTAQwE1Tp1MMmq/CBSK1Pkdp1fAzMRG9XhknUJG23Ig2XxiQEMbuYVKk5/dF8WLU4FJVAxeRj9YnsgrObkdnH+5iT8lgtYioEty6Vzlk+3Sv1YNoiGNLcKZuGY+Isz5R3yvPyISjZUYPxnHPOOWkOcJ3mw84V6lmCZ9jlM90iYEnDxBM+AsmYlReZcA18mjPkevi1NbCkSRpETL3KyhzXJVgyDxMWmCe7RFgoBD/CICFRu1DvOzIEc0fhP5e4EIzlZfcSIuhoE/XrJ6ZnbRG+MCm0ycNz4SOwjCBJoCGs2AFnxxBiLtFXtB989YHYPNCYxExAhHNaPcwIGWT6ECENzpgrMmGpPxPx9ddfn9cIFjDtNx2VNi1MV/m1lU/9Tdm1KzW7hYWVnzYmKNCGwEp94Up75Vnv6fuEW2WdtCyYqD4F9/AnSxxoH/3BD02K76QYlPpLG1bSp5EupH7qVGjS/Me1r/Tgoq7hc5bjzTb02ASzjMnTc+PaxjPq0a2La6j/Wv9vz4xL36RPyCdwGy+EKX0NLvgSHlAWLsacfqAPw87EhK9wQTAZhA9O9gtpFfJsl0pdSln1WWlY+BTCn+yaHkfj+sGounXTHscfxmEII5OqecAYL3yov3+Ny2dSPqTscC0WEuMYLyzzwihMJxmH4/puacMuhr6XNi3X+3+X6/pWWZy7No4f4vl4rn6CV3AD0efgi2Dvt3v6J5qkjN1nlImLhTnypJNO6rkK6PPM4cN4IF6I+ts6L3b+9ZdxFMalXIPwc83cAhPWGPWVN94FU31hXD/rFGtmX28bE/nS+aRmMiVYFH8YHdykRAthJViITZawZWI18WkwzEfjmbwBQXuiwTB9n0xbXe1PScsnZg5A/gG2uYZTfnYkDMhq3eCmCULMYuy+OggmaYJnmtPxaNKU2XZyTEA5TeAmSStFq3vp+1QfzFPa6qKchEYCjwFKKHGSOmELUyAYEg5sP9f4VvY0MHxcmOlMLpiv/AmZthjbHk17hgmqUzhaN+HYn+krLw0WrJhs+81wMKVFVEZ+T/5KG0hXHeWtzTBh95VfOxgQykP4DUfz9K2CBT+pcFLOSVGbwILAof4mSluhlZWgRPPjUEnCZJesiBxRQCgliBDq+KNhDjCz+kQGG6EJozC58bnQV5RP2/ANIxhKQ5/jIyRf5e2u/A0ywriy0XohbeZ92gp+hHAhPMKdSRPxBVN/eTpKQx0xGGZEOJlQ9ReTnvy0tVUTAZWQQDDkD2cBoJ9hQo5y4LPmOdjT7hHcHEkxrCylzbJQ8U9fUabYrZXl07cIePqBdGE2Cb7jMJAvIUB5MU/92lZuPnaEQH5gfP3k71m+jOo5q/aVnjFA2JWv+pYxYNHRJXUZ1jYEIn2VBt3kY+xjstpH37Go0/+lrT8bf/pG8bGTz6j0tf0DHvCA5E8mcHwIP9GmFggwgRXehtfoj/qp8aLvKx8TvLFc/ED1eX3VoktfM4aVR9sbm+pS+JnFlT9tACOTi4WF9uJTZjx5fkmMFcJNP58Y1w+UiSZjUN26bTCOP4zDUL/Vh/EX9TdvGEv9/WtcPpPyIW2AB5bJl2+x/C2aLNi16ShMx41DY39Q3zXezXt4y1z6I4HReJCG91kf9F9lheEwfmghoP/hQd7VZywUjQVHHBGQ9TWYU2qY8yzyCPJ+ywdP7/JEeXafsYCl5TIfG4/mSbgqr6OG9ONBPNBCmc9Yf1t3+5fv5rxuGS3yB2FsfrUYly+8tJVP48xYxCcJWOYm8oA6GPvGrvpqf76uFC/D5rv+ss3i9xoxeAc73Mwi9QFpAFSFNRaGWyZfzMM1kzmhpDD3AUksc4kWxAA0eLr+Vh7ChAkVGKYG0XmmJQxR+gQRnU0apfMPS4s0zbeDIEUIw4ARRsqUYmIvkwSmwNHZYEAwICwpu+f6hRmdSqc28Pp93DKBKf7BPHaMpC8KIU9dpdtvqiX8mJBNtHAo+cLDPcKAiVs9TD6DSH0wPu8jg0KblHp33zEhEqCkRQDXH0xcpf3gC0cMXhqlPCUNGMLVoOsn9/QJOCoLs+840h7qCRvp8sfqLgzUX8gkvnUE40LeUc/1Q5OqD/iu3cu705ZFu8sLzoR/9TM5oWnwHZcv/GGkTdW55FHqNehzmvzHta/0TYzGtkmgCNGD8h3XNoPemebasPTVgZkUA2eG1sb4QiH3CdwmGoKFdCx49PeCP/Oja4Rr/VFdpyW4S1seeGAhfNTkhv+YAAdRKUf/WBhXt/60hvGH8twwDN2Hn7GOz8FqFA3LZ1I+ZLHOmhA76TIv+FscWzx3aRim5ZlR49Azk/bdkt58P0fxQ21rLON1pnoCXHdhTmtPoMFfF4LG8cBJ8hxUxvlgbOEPE/MrHlfm9FKWYf2s3J/l53IXwGZZ+MWaFsYWW2wzFqZVtrh9i5GKAGZlYBVYaW4IEMrsHrXCpJkrguLcUqtvVQRmgwAts8Uu/5xKTVpLCGA0OnZzV6oIrGgEbreiC7Aq5s9ERb1JG9Ld8rrY6koVbbVrFVBp7gjQaDHRWYlW4WvuONY3Z4cA87aVvJ3llf4/AjQ9+B0rTKWKwGJAoGrAFqAVaMAW+0TMHMpWzyeJSY3/Ap+mxV7uBWiueScJQ4ydLyM/tkoVgYrA4kKA2ZA/FG01VxV+n8zGlSoCKxKBKoCtSPRr3hWBikBFoCJQEagIrJYITO+VvlrCVCtdEagIVAQqAhWBikBFYHYIVAFsdljWlCoCFYGKQEWgIlARqAhMhMBqJ4A5UsK5Kas7OcZhkrhxqztOtf4VgYpARaAiUBFYCARWGwHMDhhHBDgSwoGMqzM5e8dBdP58r1QRqAhUBCoCFYGKwPJFYLVywrfzb+utt85D6Qgf8yGnhW+00Ua9QzXnk9Zif3d1qutib4tavopARaAiUBFYNRBYbTRgmssRAbM4JsApug5aXR20R6tTXVeNIV1rURGoCFQEKgIrAwLzOrTIgXZieAkF4Vh/5yCJf8fPSogXpw0TeITEEFNKbCj3v/CFL+S5U+6LSygWlbAqe+yxx8DQNICUl3OrShzDXXfdNcO6uMenS5w0Gi4xoWi5Snga5zPR4DiYULgOpsgujXpXPcRrI2iJy+asLOntt99+zQ9+8IMM+CyGnBAkYsGJYycOpDAg4hAiZ0TJX/kFfXXq/KCzthyG6uRqh6OKJyemlYM9BfktoYymSc+z8BD7TAxDYT6E3ZC2AxrFqNRue++9t0ezzSapq3hZzjm74oorMnaiM8TEPhTeQrpijjlhX9BUMbyEvthrr70SI+0nXqVDS8tJ1NrDobX6iJAg2267bcbjykLVfxWBikBFoCJQEVhVERALcj4UcdDaCOzZ7r///plMCBDtC17wgjaEkTbiULURD63dbrvt2hBS2gjinM9FAOQ2Yn+1EZW8DQEgn494b/l7UFkidlM+FxN6G0JDG/EL2wgwm4+G0JL5RzyxNoSsNuKhtRGAM+9FUNn2pS99aRsBavO9CI7bhsDQRoDrse9GrKl2xx13bOMAv9b3CDXTRiDTNoSZTC8ExjYEqzaCkLcRDLqNuIXtM5/5zMwvYgJm+sqhfhG/rw2BpQ0htY0YkW0IVnm//AshpA3hJ8segkl74IEHti972csSoxe/+MW95ydNT7ohNLYRmLuNgNYtHGAAf+0T4ZHaOKG/jcDlWYRJ6xpCZz4fAYDbCFDdhoCX6cIc9iVddTj44IPbgw46qFenpUuXtnDRdtre83CIGIpthAfJtLRPBMFuI2Zi5lP/VQQqAhWBikBFYFVFYN4mSIGbu8Fyaby6QWkF1aYNodkRyTwm7+b000/PwKA0NCFUpDlvyZIlqVWhXemnc845pxFAc4cddsiI7TQu3kUC4gokSoMmMLPPsruPNobmK4TDfG/33XdPLVBJf9S73//+9zPILS2Uk5NDmMnA4aK++y0wNe2XSPfii4kk73TlEEyaM888MzVkIVA0e+65Z2rqhCXaZ599sv60PV2irdt+++17gaWPOeaY5pRTTmmUl4aOporGbdL0pO0dwcBpmAQADqEzfd+0j3YoQbE9O2ldQzjKgNKXXHJJahm1aQipmYf4atLVBjRZIXBleQ899NDUAobAnLhofxpAbeR9GjJaQQGfn/zkJ6eGkcauUkWgIlARqAhUBFZlBOYtgE0CjgmZqaqY0kJblMJMaEJyMnb/Hve4RxOampyUu2ky+V188cUZNqKYFZnNQvOUj/l+3nnnNZ/97Geb0PKkuc07KLQ/aXpjPkR3vvOdU1DKH/Fv1LuEujXWWCPNjgQqpk3C1iAiUPgjhBW68sorU7gQJ7AQs5uylbKX6z7lJQ2mQsIIus997pOmS4LKtOkRipmEDzjggCY0UYnrbrvtlun61/WFm6auoWlMM+vb3/725uSTT24EG2cmLQHHpSvvUgft6vvaa6+deWsDvwnQhNhzzz03TZiES8IrU+zq4FvXa4j6pSJQEagIVARWSwSWiwA2H2RNxnyLaMAG0U033ZSC1M9+9rMmzHvpi+Q5E/nNN9+cmrZQXw56tRn2rodp8fhubbXVVs2rX/3qZklo6K699tqB6Qy6+Itf/CI1Q8peiBBCAAnTbLk08pNQVso+bXqE2hNOOKE5/vjjsx780/hkDaJp6kpjRYAO02Hzxje+sfdHCzgNlXoRrsNkndovaRbBbZq06rMVgYpARaAiUBFY2RCYtwBWNDeDTIezAIPAQhP05S9/OQWmkiYHeXT00UenxoQW5va3v325nWa3u971rqkR+/nPf9673v0y7F3PcKT3PnPpZZdd1txyyy0p0HTfH/WdKZT5r2tOI0wSjB72sIeNenXgvWnTo2lT5vAhSzNs+Kc1Rx555DIYloymqau2uP7669OZvryvnsyS0xKhmXDLjEnDWKkiUBGoCFQEKgKrCwLzFsD4FxFUwpE7BQ6f/Jb4TnWFMhqPovUo4I77XZ4LJ/4UZEzWjkUgjBGMCDSi3NPKMF/yZbrxxhvT3GbXod12BDVnfhFIaJ78uTfqXdozflof/OAHswhMefyb1Akxs8lPOrRsSF2ZCgvxa2Las8NTXkhZ1l9//WbTTTctj/U+Cz79mHjAtWnTI1SddtppqQlkBiSg0lyVNin5SX+aujr7zG5S2io7P2MTRuJr5yPqppsX/vyvv15+x+aEhhAGQ+XSb5gm4Vh8/Lpp1O8VgYpARaAiUBFYVRC4bThLL51PZWjATJ78d5i4aHzue9/7ptaomNycmSX0De0Jv6+PfexjaRYzCXPajp2SDUd7k7njDPo1RJy/CRSeIVR8/vOfbw4//PAUZlznyO8IBUIRIcnRGPzN+Dwx3XH85iRO0DDpExJj514eojrsXX5MjpKQ/o9//OM8RuOQQw7J8hO81JVwRahxNAaHf4KgsjPpMaVxdD/77LNT8CJoOG4hdiLmkR1dzJX5oosuyqMnCIgw8alssSMwNxYwIcZu04nSkzbTJxPh5ZdfngIgYYk5lR8abRUslVde2mGSumo/wiMh8iMf+Uhz1llnpSD8yEc+MgW82CWaOEs3dlmmICXqAMGKHx5c+IzBgUC8ySabNDfccEPDn4y5l5ZPX3B0B40Y7D2jfzn+olJFoCJQEagIVARWFQRmdhL+ddddl5P+ox71qBRYON13HdBnARgNksndhF98hUzOtGLMj4Q3AhfhpSvE0ZIRvLzHfGai9/6od+0iJMR4j0bMu4StQgQHpjdarlEkDTv+OJwTyMpGglHvjLo3aXoEHLs8ad8ItoQmAtAgmktdabzUS5rwnCupDyFT+QjNvtPY6TsEU20rj+4Gh7nmVd+rCFQEKgIVgYrAYkFgZgLYYqlQLUdFoCJQEagIVAQqAhWBxY7AvH3AFnsFa/kqAhWBikBFoCJQEagILDYEqgC22FqklqciUBGoCFQEKgIVgVUegSqArfJNXCtYEagIVAQqAhWBisBiQ6AKYIutRWp5KgIVgYpARaAiUBFY5RGoAtgq38S1ghWBikBFoCJQEagILDYE5i2AfeUrX2kOPPDAPI7B2U8OLBW4WvBnh4c+5CEPad7//vc3n/rUp/JsJ88432pFkCMOHEiqTMohTqIzvZBPZ1ttscUWza677jowXuOKKHM3T0c2HHXUUYm1A1GdrVapIlARqAhUBCoCFYGVD4HbzbfIBAGCgYNOnQ21zz775CGp0vWbkONAza233jpPkP/BD34wNK7jfMsy7n1ng73hDW9oNt988zw136Gx6667bnPwwQdn6CLCo0NXHfy6GA/+FJbJQaonnnhink9WhMdx9a73KwIVgYpARaAiUBFYXAjMWwOmOuIb3uY2yyZFKCMg0I45YNOJ+Z5b0SR0khPlCV5C3hxzzDF5MnsplxPwHZq6WAnOsKxUEagIVAQqAhWBisDKi8C8NWDDqv7tb387T2Lfcsst09zX/5wT64XJcWK7k8+Fnrniiivy1Hmans022yxPtL/yyivzxHrvOx3d6fXeFdpGWBxxGWmthCJyaj3h6jnPeU4jjWG0wQYbZABo5kinwAvD4xT9RzziEQNfGZY+zZ7wOwRN8TCZXIUUctr+zjvvnCF1hEdyz0n6H/rQh7JOO+20U57ULzzQl770peaJT3xis+2222ZdFIDm8BOf+ESG5SEw0syp1zASWuld73pXau0E3a5UEagIVAQqAhWBisDiRmBZtdWMyip0j/iPBCKhdwaFkVlnnXWab37zm+lv9brXvS7jEf7mN79pnv/85zf7779/BmkmcAlF49qLXvSi1FgRTsQSFPKI8CV24JIlS5prr7023zv55JObHXbYIfMeVZ1tttmmOeywwzKEkRBHNHXK20+j0lcvYX722GOPFOKYN3fffffmyCOP7AUG99sfIU8QceZDAuJ+++2XfnHnnntuvk/gQsrCzCiMkDoT2vilffGLX+wvWu+3NMV9POigg3rBwXs365eKQEWgIlARqAhUBBYdAjMXwGiAaK9oZAR5HkWCdneJUCamYyHCG6Fi4403Ts3YmWeemULM0UcfnRow2rPjjjuuEZeRNuz+979/I2i1Mgg2PYqY8aRNU+X7ZZdd1rz+9a9PIa+8N0n6AlQzrd54443N/e53vwzQTWAkIBIg3VtrrbUaZT722GOz3DfffHOW12YEmj8aNJsZkKDUglfT/AlcLg7iz3/+8/xdytX/WQJkE9yYUCtVBCoCFYGKQEWgIrC4EZi5AMYERph5+ctffiu/sLlAQaCQFpMik936EbSZ/xaifbr66qtTE0bIQcx9zJQXX3xx/h71T5oEOA73hMV3vvOduWOzvDNN+oJ7Ezxp1s4444xlApELTK58hDFaO35cd7/73fOzCJw0e0gau+22W7PddttlsOubbroprzNlDqPnPe95jYDjtI6jTK/D3q/XKwIVgYpARaAiUBFYvgjMXABTfE7stEBrr732TGrDBEcwIVidf/756SMl4d/97ne5A5NAUwSZkiEz6CREy3T66aen9ozGi09WoWnSZ44kVM2V1A3xQ1u6dGlqwphTCXZonDYxH6r/KgIVgYpARaAiUBFYKRBYEAFMzR/60Ic2m2yyyUgQJt0VabciYW7NNddMR/0LLrgg0+W8T+ghvHgG/fGPf8xP5r9J6fGPf3xzwgknpJaq+8406avLpPXp5tH/nfnxGc94RuOIjFNOOSU3KPQ/0/+b4Mi/zOaEShWBikBFoCJQEagILH4EZiKA0c4UDU3R5NCCdf2RBj3DXEhzRWjy97WvfS13RXZhkx5/Lma57bffPp8jmPCLor1i8vvTn/6Uuxm957qdg3y7BtF///d/pwbNO13iuP/KV76ytxPRvUnSL/VSzlL3brq+e6b/XsGr/9N5anY12qlJoLMxoaRRPvvfcZTGk5/85Dxr7de//nU+X/9VBCoCFYGKQEWgIrB4EbhtmLuWzqd411xzTXP22WenBoZgwKGcY/p66623jDDz2c9+trHjj68TwcKRDZzmP//5z6ev0yWXXNLwlfrOd76TQpjT6qVjR+F5552Xh6c6MsJuQDsECRo0bJzYr7vuuuaqq67KA18//OEP5yn8dhD2a6Q8xz/LyfzK+oAHPKC3Q5MjvkNlaZ4cGeEwVuT7sPSZKPmNMVvSwHHCd1wEPy9HVJx11lnpXE/YcwisQ2g/9rGPNfy5aNcIijYrqIv8n/70p+dOTFh8//vfz/ITZO3E/NnPfpYbDEQUuPTSSxMjAiIHfBj647BPUIVjpYpARaAiUBGoCFQEFi8Ca4QgMnqr4gKXnUAmpI5zuKYxG3aLRbtESCKkENwIJnMlghPqHp0xy/THlYuGzhlqnOlpwQi03/rWt3LjwTB8CHiENBsUHHpbqSJQEagIVAQqAhWBxY3AChfAFjc8tXQVgYpARaAiUBGoCFQEZo/ATHzAZl+smmJFoCJQEagIVAQqAhWBVReBKoCtum1ba1YRqAhUBCoCFYGKwCJFoApgi7RharEqAhWBikBFoCJQEVh1EagC2KrbtrVmFYGKQEWgIlARqAgsUgSqALZIG6YWqyJQEagIVAQqAhWBVReBlU4Ac+p7/yGqs24e6f/qV79a8HxmXW7pweeKK67IA2lnlf4Pf/jDDBBe0nNsiKMxRtFClGNUfovl3ne/+92x2Awrq+NOBGW/IYLLV5o7AvNpg7nm6viayy+/PI+NmWsa5T1H0ThbsMSBLddn+SlqhvIap7Ogfh4xizSHpSHMnHjDzmFcjDQf3ucQ7o985CPN17/+9cVYtRVapkHjYpK5aIUWekzmK40ARiA66qij8uDVcZP/mDoPva3Tv/CFL2xe/epX5yGqL33pSzOm5ULlN7QgfTcc1Pqc5zwnT+p3Ltgouvnmm5vXve51yVxHPTfJPdEJHBS78cYb54Gz3iGcvuUtb8m/UYLwLMsxSVlX9DMmhVNPPTUjEnzwgx+cujj6t3Z76lOfmocNT5KASd/BvAKxIwcVl6Duk7y/qj0z3zaYKx5XX31186xnPSsPgC7nCM41LePm5S9/eca+XchJmPClv8lvPjSIR8wnvXHv4sXbbrtts/vuuze//OUvxz2+Qu7PlfeJ+OLQ8Z/85CfNlltu2YhwsjoQ3rf11lvnvDtsfhs0LiadixY1hg5iXewUkm/7hS98oT3kkEPaddZZp/3qV7868yJfeOGFbcSvbC+66KJl0o7JtI3DXds4fX6Z68vzh7z//u//vo2BuTyzzbxiQm/jtP32JS95yXLPe2XLMBhJG3FF29e+9rVzKvq1117b3ve+923f+973jn0/Ii+0Bx98cBvB29u11lqrffGLX5z5RrSFse+uyg/Mtw3mik1Mlu3DH/7wNqJ0zDWJ3nuh/WojqkX7yU9+sndtMX9Z3jzi7W9/e+ITC4/FDMtUZYvIJ+0Tn/jENjQ6rfkuQtK173vf+6ZKY2V9+OKLL25DwTB27Kxs42KS9lgpNGC3uc1tMuyQ8EVC88yarr/++uYVr3hFhvXZfPPNl0neautRj3pUrkrnu1pcJuEpfghTRLsiNNPyJmGV/FUaj4B+Oh+sxEXV1pMQbQ8tQCxGmre97W0ZI1VQ+RJCa5I0VsVn5tsGc8VklnzpDne4Q6MeKwstbx4xS6wXC8bM5szCwshp+z333LPZZZddFkvxFrQcQgaK7zws0kvJfGUbF6Xcoz5XqpnV5DTpBDWq0v33xI8UA5Lat5/xaXTmhf32268JLVkjxmSX+OzwfxC6qMRyFK9SOQmM97rXvdJXQfxJeYQGrwmtRROr5Z6p6SlPeUpz97vfvfnc5z6XMSTdf/SjH53Z/Mu//Ev6dH36059O8ytVrTKZgENblxOvGJTiR+60005Zjo9+9KP5rDiZiE8CU9WXv/zlRgB0z4mDOYw8H6vvRpxPaTMzFPr973/ffOYzn0lz19577z1VOaQBG3FBEbyFjsJQ11xzzQxYzn+txAVVTiGqhhEfkH5cN9tss3wcPnwphHWSx4477ph5DEpLCKsPfehDzY9//OOMp4nxaadCgsTDg3qcgK5d+/tJebZ8wvqCCy5IgUg97nKXu+QtWOpHBCeMh4D/uMc9rrx2q095Soc5SqzPXXfdNeOI6m8EcvFGlXvDDTds9KMuTVtuCwzmUwHtBXffaqutegKlazDSh/XP5z3veb02UxftCjfjIbTVzRZbbNE87WlPy3Kff/75GRt2jz32yPin3TKW7+PaoDxXPiep26A2GDZujEdjzTjTr4ydMtZKnv2fyqBtCM79pkf+fNP0Zfh+4AMfyDi32jlWz8tkxy8Q/vKBqz99cC5jQNmELgvNegrxeNS0/XIUj1DwQfXHS8SsZTrEH8XZ9SdGLuzxJjwUP5ikfeXzzW9+M+MHw0s9mPDxKCZWdTImhKYbxg+MnY9//OMZZxevgK/FeD8Nqs8w3sR3r8uD+XXpJ8rGj8k9i3pjSBvqJ9rilltuST4tBJ32hcOocYc/M3/DTIxh4zK0aPld/8VzjOcSIxgG4jHLB+8WrxlNO/aGlakfs/J7HF+Bu/mpy1fKu6PGRf9cVN4ZNcd4ZlT5tVVYIJIv4wkLTpOoyRbLM8yEEcB7pibIsCO3MQm2EUOxDYY9sKohMLTRmdu99trrVve9f9BBB7UxoHoq1H/6p39qgxm0Maha91/1qle1rkUQ7jQTveY1r8l0mBiYVNULBZNNM+jhhx+ev6NTthHcu40A5W0MtjaEpvYd73hHG4wl0wsG0EaQ7zZ81drQhrQhSLb/+I//2EYcyVRhS4R5gHnqzW9+cxsDsD3xxBNb7wWDyjz6/ymj9JjRwqeoDc1bG6uyNEEye8njwQ9+cKqMpymHfJThGc94RppSg+m1f/mXf9mGENaG30PiFIHS85mYVDJ/9Q3Bo7+I+XsUrr/5zW+yTa688sr2xhtvTBMqFTcs+olZ90lPelLiGoyp3WabbdrnPve5ibFn4R3MqmXaCkaZ5ugjjjgizQT9acmXGSEEtPYFL3hB9peYVNoQ/lp1YloI/5525513zt+wDY1VG6vfTCoE+TStFBOk9OTtt7aAFfzQLMstvRCc2u22267X15jAwufSrTSLwMX4kK/nQsBqg5G1MZHnb8/r1/vvv38bE0Ibk172NeWHhbbW9wbRuLr0vzOqTUa1QfhSDhw3IfC3w8Zaf97ldwj+7bOf/eyWGeyqq67KduyaIKfpy8xPsXBoP/GJTyQP2WGHHXLMFRMk3F/2spe1MVGmiwSsTzvttJG8ZdQYCD+qVh7aSN7j+mWpc/kcxSPKM8PqH5NtjiFuDfgRwldC49PjSaPa1/Pvec97eiZIYzoE+/Ye97hH9mH3UWiFkxfiE8OwMN7e8IY3tLH4a5/5zGcm39t3333/fwJ9/4fVp++xHBNdHswk/frXvz7dBKTNlWO33XbL8RCCWL5u/B999NFtLKjaEKRa7QMT5shh444bjnvqjfcbY/KRt/roL6E06PEg7gryNlfh38Yv7KYde6PK1I+F33PlK94dNS765yLPo3FzzLjy65+wDCHu/ye4wP+ttFYaWggBDBMwYRCYYjU1EAuNYQLhhzWIjj322GUEMBM1QZEAFqu9NpzY21h55KsEgjLBYqyYaRHAMIrQPLRFAAsH+Jy8ldEEvmTJkhxYEsJYQjOXwqPOWIgPkDT5EKBw7Mz8CRDIoIvVVW8iz4udf7FSa2P11MaqJa967wlPeMIyPmCEGX9o0nIU3xwMD4VmJyed0DJkGoRME3toWJJhmtj5Qx144IH5fP+/UbiGVqg97LDDMh2YnnnmmcmUTLL9hPnBtbS9tgztYzJSDIBgrR0LuR+q8mWYfbknLwKYMpvUEMaNIWpjdcYsYxND3tP++knxO+wXwE4++eRsX4Iu0h+kj2ZZbv0rtF05aUnbBKucBHd5hwYv8XQP8cWAwXHHHZe/zz777Bw/FgkIEzOZLF26NHHQRyxy9JmCSz7453+j6tJ9zvdxbTKuDYb111Fjrb8MoeFoN9pooxSYyr1DDz205wM2TV9WHgsefwWb0IQnngQwfcbCT/9RN0KkiVcflc8w3jJuDOBBxhc8x/XLUsfyOY5HjKs/IWG99dZrv/e972WSfB/59+Jj49rXC10BzG8LLfxbGyJ9lsAhLTQKC2XFL/mVDaNx9el/r58Hex/WxjPCu/iKqnMh/l54AR6AJhl3hMzQKvYWcN5TZ/U56aST/Mx0jG39RN9BcPKeZ6cZe5OUKTP487/58JVx46Lk052Lxs0x05a/5LGQnyuPo8EC6QKpeUNjlKrhYEQDc4nOkCr1EMIG3h910Tt8cw444IAmVh9NMJkmVkCjXundoya2K4bJLjRSaf6h+kdU+NTXTHddvyNmrWIeC4ae6nXmKup95HlmumE7O0NTl+Y36nwEG+93qZvfJOUo70ZH7u1cKmZH6StzMKk0FwYjbIJRNczCdqTagUktTG1f/oLhZn2G4Uqlz8QiHX9U4KGFTFV8KUv5jI0Xqf5XD7vCYF3aWz7MJV3fBKYBbUD1P4xgXdqAGY95Wf3UmQmASZJPX6zW0jQiv36SRzinNuuvv36anN3XH0q+syx3aF6bmAx7Jok73vGOWU6+ZUw0cFCOQlTzzLpMxUj78V0JLXL+1se0K9MPHNyPlXoTgl32/3yo829UXTqP5ddJ22RYGwzrr6PGWn8Z/h97dwJ1W1UcCPgYo3Zs02pETVhOiSak2wEccABdPAIGjTgEURFF0CgoAjESxzggjoAIiIKCMjTO2hIxTkg7Rjva6Y6hQyLEJnFq7WjSK3Yn9lpZq0/XV8m+nnfeOefe+//3/9//3tu11v/fe8/ZY+3atWtX1d7FxIGmQpMwe9WlkSlanmX4ly/MVUz6++2334xm0AtaAcwlTLxM4GiZrwyT9bHHHpvzdK1zwByGC7AMXUo/j0fM639omHOO6RNAR8xz2rTo+GbGf/nH/M70FkJMzie8Df0VE+EUP0Cf/vo8rlv+vP500/re5cF+lzkQgpGfOVfUx3w8BovOO2OnrwVKXdwTAHcV9GQdKmtAWcfMx2Xm3iJtKu3wuR6+Mm9elHq6a5FnU2vMsu0vdWzk5y7lA7YRiDBZMDQLL6Y6BJgg4az4VA2lGXum/LPOOit9HUJ7kkwCEw0Nw1iW2XNEGJqcZE5h9mpCfTp7t8iXkPjTVwtRWtALsfLFIAj2IXYsiQOLqTyrBAtwmKeaMEMlw4UXE8JvQNCxcDuCXxbyUj+hhTBWgB8Wn4chvIZ5L+9w40/wqle9qmQZ/YQXbYDr0Nhk3WECyfScYuGQr0GBvfbaKxmeq0EWAcwR4ytlEKoIXqHlzEMf/P6GgFAmT2g9hl7neK6q3RixuoYWBP4i3vssoE/wYF6sAqbGoF/+WsakPwb9Mv1eZq659sP4jM2RKVru1w2Hrg8ZK8uYGBv+QmF+7mdfyRxQ6KJ0uQiPmNd/i75NIJ83/QoN2MzhfC3jSwixqbXJ5RcVmuX0iyKMGKfQjKR/0RA/sPGYB/P6My9//712EX7Hxlz6jZ53pe5l5t6ybVoPX5k3L/o49XveGrNs+4fqWPWzPV4DBqGhxsxdQtnR95HMoZMGIHw++q/yN2ECQRei7iZC4AY+zDnJHMLXoHnNa16TDH/eRAy/gGQghA+OvsuChceuy+KCCRXAlCygfaD5ICxwtF7V4tqtwy41zLgpSHK85FS8bdu2TGLH5jSqCygLEH6MCedt38ufnTOn2CG8ciileSFQh/9FKSp3Y0MCrIUnzDF5B03X8V7GMJNknfBRAO6Md/jelUeTn5gQ4Z3WSNvcMedAwDxh3tjBicXE+BUIE0V+XWW70YKxv/rqqxOvpa7wbUo6sWO2SMJ5AXjgLLwKmOpLv/y1jEl3DPrlld/LzDV0Eqb8Jkw4Jft2n1O0vF3C+GG+wT2n8y5+SzqaEnwi/MO2e2+eoItVzIFl6HIRHjGv/+aPDaj5/qY3vanZZ599kv/q81rGVz6O6GHCa8I3LvFCMwhsOpfhB5mp929ef3rJV/LTnNzoeaehy8y9Zdu0Hr4yb16MIXlqjVm2/WN1rPL5LiWAFSFniFGtBykmK00TJldMPKU8J7osTBg0IWwIaGxoKuyULLbhM5RaA4uUUzWYgp0jCZ0wRdOjD3F/U+6EygLvBBktHKFNXjttZVpAMPvwH0vNlbIKSNuFgqMiDNoZKuNzcXN0ASeHCJ19wBid+LTIu2xV2TQ9/rrm2VJHN/+8dujPK1/5yuwL08Bd7nKXNDla2EH41OSJSxowp5LCOTTbYKEbgim8EvL0Ifxq8pSUXe6FF164naq+lMm8STg1fsp02pDpVn9NZouDU3zaD5SLDsKJuBSxw2fBvRfFfEd7oR6LnTE2/k5+0XDQRna1TyV/+MSlMExo0wfC2Pnnn5/1rbLdhHQLmBOlaFX7aB3Rvnfw6fSaBRPQUtDadE3pQzRR+pGZ4l//d3k+1RdCdxecQF1kTLp1dceglNWl10XnWslLeDbnaSDhSn59MI5oZxlaNg+U58QuPgNohmm9tJFpk7bone98Z/IgQpfTz8yWYIy3LDMHFqVL9S3CIxbpfxx8SasATXZXs7fI+JaxLZ/aRSiOgwXJw50wxGMLzMOFuThkESj5F+lPSetTu8pf93c3TXlenuE32oDXg0XnHdrrr4fdukv5Y8+WmXuLtqnUuR6+Mm9elDq6/YKLqTVm2faXOjb0MzqwS0DsEPN0QuzAWg6v3QsnOVk62edkyFqBA6zTeE4jcS4OhtjGYKbDa+wSJovlzOg0olNFHPo5XoewlSfYOCZzYncSjqNlCGB5UkOBMekyTTCLdMpUbyz6bfg0tKH5yXT66yJYJyk5U3I2ddLDiSkn6IKo0sE/Fqo8KReLQp7YdMoJjoIosz/aF4t3e+aZZ6Yjfwhlg33ipO/0TGjc2hA00nmaI7r8TujEIpHt0aY4sr9UO/QhdqRsm7M/JywdFAAcjfXH+/BdSCdVOBqC0NBN4tUpTrhTlnHR9iHgfB+77sQrR3GHBORzEgaOnBaNo/J5elE7jwuHaE7oQ6Ct4UeW4+KkJDoIX52Zs3EIWXnQQJ+NM4d+jrfB4NsQkNswqeYJVmMXfifpDB9H4nMs9MPpJQc8wCrbrTy0cuCBB7ZhGmljkc12hrDoVZ7MKycfOW87YeVgA9qSL8xIedCA469TgWFiz1Nf8jjF6pABGkJP5lUf5vWln35qTKbGIBa4QXpVvjk1NNf0cwg4gocQlvMc3vTVhbguZHVidRladmgBjwhTWuIprhppw28nTypyUHcwxelXY+MvhP82hOE8KDLFW6bmQJj/cq7hXVN06aBIH6Z4BL4EFuk/vm2e4b1dmBpf/T7yyCNznpg/ITzOssIjPIXv0eyZL2hiCBfyhjUiT5zKN9TXUtAi/ZHW2Hd5sDVJHWgL73AKLzZ0bQgYyeddMO6QV/jA5Tw338s65gTl2LzDH7zDJx04cJpR3fh7aM9bNAQfYQnIy5pDW906PKF+p0bxILxu2bk31aaCq+7nWvmKMqbmhXfdtch3/GjeGjOv/Xi2uVcOGHX7shHfSeq7PIQaPgnLAKwXlIFILYiIp88cxso3mWOnnZPAaSWMTV6CEQYampO8zd8pyC54b+JbuCwQCCt2QZlEfhOtlIV4/F4LyIuxYWCLgHSOEGuLNmHS6wHluNbAqZsCynQyEdMpYCwxpD4TLe/L5zy8SgfvxsR4TAHcYHoYtT/CfhkD+ULj2IZmNJ+rdx6oz9UE6KhPP8oilBcB2HiqfwrQofr7Y7DqduubMdem/lwqtGjBKKepptq87Lt5femXN29MpsagX5bfpX/LzDV4MM7mfmgS8sqTbtmL0rI8cI/u1C+fMejSjvEgzDodXGjQ5xRvUe7YHCCA2UQVfrQWupzHI+b133sbqSGYN75DeeBrim+M4WKorKFn8/ozlGe9zwpdbtS8075l596ybVoPX5k3L7r4XXSNmWq/ueyqpWc84xndojfs+02UHLvrChUDG4oBJhTmBuY8TrMFOKEzN3bNWeVd/awYqBjYGAw4XR3XEaS5v1wSvDE11VIrBjYHA6taY7gicfeJe9M2vOF7/CnIDcdwrSAxwAGSUzd/l4fELet8NPi68Adz/UOFioGKgY3FAH/LMFHloRa+P04NVuFrY3FeS988DKxijeFny8+xH/Fmo3pRNWAbhdla7g4YoOniYI/5E8BcJxE+LDukqw8qBioGVo8BByfiguY8wemwTTkpuPqaaokVAzsHA7vaGlMFsJ1DJ7XWioGKgYqBioGKgYqBPRgDu9Q1FHvwONWuVwxUDFQMVAxUDFQM7EYY2KUEsDgRkRdjWFtrBwAAQABJREFUbjT+48RR3tnkc1lwJ4v7vITNoQ7dSHAfU5xszPuCNrKeqbLjpN9oWKOpfN13cfJkp/ej256N/u5+J+FR1nLZLfOtO6PcV1Zha2DA/XHmYZyg3RoNqq1YCAPu9HMXX4Um15C18qSdhb84FZ534rlMdlede7uEAObyyqc97WkZr8sNuXEPTDpwr3rgLWouSnXxZdxRkxd5irk2FjexX79LQ1/60pc2N9xwQxPXK+SFjP2LXft51vMb0+fA7jLIVYILODnLu6l+CgioLmz1txZhVdluuncJaASmzctqp+rbXd4ZL+Nm/JaBuIcsY4MS7A877LAm7pxaJvump7UZ4dSKsaOPOP69clrd9E71KjS/+VM5MUUQq7D1MWAj7wSoOLNOzu0O4OJe0QXiXrX08Vu2T2vlScvWs6r0Nv7CuRG84l7QJu5wzMuhV1X+ppWzYRdcrKhgd3YEovNSTheiujzOhYcR0Hi7u5rWW52L9iJGWV4a2S3r/e9/f96X89nPfrb7ePB7OLjmxa3uLnEPUcQey7ugBhNv4Ycvf/nLE8/uJdsMCOErLybdiPulNqP9m1GH+6Fc3lruFkNrLvbdyuAy4bjZPC9pjZOvbcTazMuOt3Kb19I2l69GqKm597mtpeyaZ2Mw4DLZg+JC2xCcN6aCTS7VHXK//uu/nndXLlK1/kdQ9UWSbrk01iUXm8fGP9um76effnqrT7sabPlrKITR2XfffTPMhJhoBx98cIaNcaeUsBxxG/y6hdW4ULCJy0CzbCfzukCyDkLNING0WnvvvXf39Xbf4wLRPMIqAr2/EBa3e78r/LCjcDpKzMoSvHuj2929F2yj69pVy48LbDMEkEDp5gGN8FYH4XrE7YwLMJuLL744Q63QFu1uUOl31xtRvG2z+NtmYAffFldz0fWQGwPtrfBNuxqQCeIG/1ls5v3226/xtyvCTWNXetpWbrh7aiIUTMZM1E5R5PkMhUaqidAOsyCu6+nDO97xjvTZosoUNLkL7gRhWrz00kubuDl68Og200OE5Wki1EMGx9VmZqK4Xb2JG60zBqRg2mK9xS3oGSdMjDf+PBHSJC8mJUwy5fHrCk1cLrLaYWLFzbxpenKPjwDIFmHmHf4L4veJjSd4M+BXxFTlwlNqZekJg9IL4Kssd2+Fxi/LFJ9SsFpANU/IVC5hUjBY74pfm7z6xjxrDO4awaotsCbyfe973yzDv9iRNHCqv/AnrpdxGwNjyR8jdnBpGhB3UNyuCAmR/nRMWO4MU47+iYVHIHHvi/bwBXC8nt8dc7Hf+gjG8OedfjJF6HPccp3MS3vHgCkcbuFB/epQP9B+8Sb1xTt49TcExtq4A/2cogNpmCr1mW+h9GJzCjxsARnD9diYCe4szqPxQLcRgifjjAou7pqCt7/97Rln8Bd/8Rdz/NU/1W/vjT8BSzuNSYTL8jiDiaN/V48QGm1u0GqhBW2Uxxgoo4y5vFNj6n0fjHNoq/OPeUIblA9HxjRuVs935gt8R1innBfoSjD22DknvUYEjLynbl6f4R2uzBMLQmgoG+4KJQbhGG1pE58VdIQXoJsyR/t90mY8JW6/z5iQ6MtcMFZlvsszRgP98vw25ugXDvgiRuiVDLSOt0W4nNG5rk7pXVKJdgstmqMFpubaGP6n8DE1p+a1pbSp+ykPfKJ/ZXM5wYcf9ahHZbK1lDnWL7x3mXnGRM/1wzpik29OiPcpELg5BU9w3ufBxkUb0CG66tL2EG7xLPMxQvbkPDTmeIL51uVJTJrWCHXeLWLfMtVqG76AxvFaNGx+eVZgbP0p74c+I3pB8g/lm4fqKzyin964WXOktcHTbvixvuqXC4atH2XtMqYu++YKgS+Uv8KjxWMegrH5O5R2Xc92NZWd9oq1dcQRR2TYmPW2Pwg/4x2K6yYk0BCIpxULbcbyGnovBILwMlTAoaHL8CTCXgShtBEkNuOiySdMBjMnk6rwD0x9zKknnHBCqsLjNvg2CKcN4s5qmDGf/vSnt+LvifMVfj8Z68xLIUnEAovJmmGOPGOeevSjH539CAFwFkcsJkW27/DDD8/YgxHwOmMbMgsxnQhHwtTr+VFHHZUhb84777yMaRiEmmF6lCu+ZfgZZPy2CE6eIRvEJ4zA3qpPCMEr2yykQywWab4VF1H5YwAPIcxl2SeffHIrbpk4lyFMZUicU045JWPkwRmgOhcTM4SdWfwvz4yDmG/hh5fppvAXQlcbmtUM+WLsgom02j4G8BkBhDONkCTwgQaZm4PppUpcOCnfg6G3MekHizIW1OXitTEjLkIHxgC+gxlnTEt4oYafwrXQSv0xg2d1BwPNeI5ifh4X8enCrzLjyTHHwLUxRctU+lP91kF0IjYknMQOPNsoPA+Yap/34q6JwRhMNMfNGAi3Y06K6TY0pvL1QTvFz9Q/3+U1XyMYe84FdKBfwlKhdaYnNBvMPE3t8BEa30xvLs7rcwhxOcbGW1/RatcEOUVbYmEKvYVWuT2I72qu9AFdCRcEJ3iKeQHP4poef/zxs/k0D8fdcmOhbmMhTZ6BNuKyyZzLsQAnrzAOQ3QjLh68qtd4KQcPjsU8w5upY2qujeFfmWP4mJpT89rS7XP5Dt/oAX/AS9GteIjFBLmWMsf6JUTTsvMsNiLttm3bcn2AZ/QqVJSYkXj92LiMtWEMt/iP8sQvjSDlGeLs+uuv344n4S0h6CUfQHtiTWpPocXQ2eSaZT1Cj/gnmFp/yjj0P6256Do2POn+E5uwNgLM95PNfksXglbWC8fyc10ZW7uEfBOP11psropLG0Jr9l9ZQzA1f4fSr+fZLhcL0uQRNNnivgrATATQtqALTDoEsbtIwQjBTgG7tLYVQBwICqMFJguhhwAGxHsjQJ1zzjn5G7GE+S/93TzwXHmYMYhdUfoB5Y/4FzuQmQAmDb+4F7/4xeV1Bo2OHd4ssGjs2HOBNJkBHx0TyGfsXlMAKnZ1bRcoGsECee90pzttF8vRcwtZEcD4KQm6TDAqIGCuNsROqjza4dPCSRiy8AEMAt4wTKAM5RYBzNhrm3rgLJxpMyC5tBZYAiuYwh9cGi/jb+HB/DCCMSAESVNoRJvuc5/7ZCw7+AsV+Mz/gvAVGp2xojKd/hHAwDw6kIa/lz4TGsAiuB4aM/nULXA2QDeEADgsPnhwY6ylneo3YUngeO0H0vot2PC89sljA2GjYl4Yc3OBoDE1pllR7x/861PhCcoyn0MrlykFfTYv1ONPgG1CF0arHfKWtDJM9Tm0lxk8vQSdlj4059sJYFO0FQd8cp7Bu00JgajgXVldIIiGyTY3XmgUyI9HENrm4bhbVvlOUMaDbPYKXykBnC1SYIhu8Bo0UoRFC7zFWRBrMDXXpvA/ho+pOTWvLdmg3j+BqONgURuaqXyjHwKZFwFsLWVO9WvZeaZRBBubT3kBHoyObZTA0LhMtWEMt+jKhsPmq4B4s12e5Dkh/dBDD53FoDVvKAjKPCt9vPTSS5OW5q0/pa7yac3RBuujeWkeqBNfLby+pO1+UmQQTENjl4+n1i7yAgUK0G/CpH5O8eep+ZsFrfDfLnEKsqviYy5was4JllUA/w3q/GCGo0dZY+BSBUytuUpglmEeCYLIYpkWizqY6pRKmTqWCRGENixNNfkj/lG7FlUtU0rs8DN9ec+cyrQQzCwfqYvJjOoWMB9QIcfuMM2gVOYxiZrYHaZpKoST2elGeQuuMvO//JO/gPpj8Uy1fnkWTDpNF0xMU0AVXnxpmJxD25SmvKk83hkTPmvCqsQuLf2MxJWchz+4pK6OydnErjj9lOQZA2bhEPgS304wylfoopjVmFCDSeUJ0nCYHysqx9zYF5iig5Km/7kIrofGrNTFtAHQFjqARyeMQaFzdDHVb2PKzMEEAKSlun/84x+ftDhFCyH4NBHkPU0PsXinacUJZPN6bEyzkpF/xq6cQkTj6KmY6WLBSDOeevwxDzHBmHfw4c+8KzDVZ6Ye+ZkwCzBjdWGKth760IemCYXZi/n1uAk3CnNb20KLPjN1GzemvtBSzMVxt0397yFgz/iKtjArMc+APt3gjcw7cFRoRPpYnNPkP2+uTeF/DB9jc2peW/r9LL/58cJjCDT5CG2UMV9rmVP9WnaelXai/eK6wPc5NjRpIva+Py6eTbVhDLfy9UHZ2twFvF17zCegXb6X+Q6HfsfmIF1E5q0/3bJ9Z64MZUDOB/Py3HPPTVcWpvyy5vXzDP22boytXcYYnQJm0xCu8gT6FH+emr9D9a/n2U9Wz/WUskl5CRIhJeeVBX1iWWsTEB7/JQsqxjoECAXTczXDRoI+YbohYOfizg4fO4OFquTDZMH0WcAEMVm0fwiK8FbeEfj4BDnee9BBB6XtvLxb5JP/WuyqG+0uoH7tMG6LAjxY1GIXNDeL8TvrrLPSTzC0Uk1oinIih3kw2zGGP35YoRVpHvawhzVhIp0tPmMVWmTC7JIHP2KnmkJsmH8yuYWcX4JrIWLXmf4SGIKFfC3QpYOx/KvC9Vj5aBBM9Tu0IMl8penDvPbZPFjEw3Qw2xB0yxgaU8fshwAz5dwfGoIUjPj5wD3GS0gObUdzz3ves4lTyTtkD/PLDs+m+hxmxyyz4GeHzPFgirZCi5604oCOgy7HhQAW2sjZIjdUXvdZ4Q+ezcNxN9/Ud4ushcpCOgTmdGgSki/BTdl0EeIIgnA8xqvm4T+0HYP4GJtT/ECn2jLUfhtJvN0Gd2jc5vVvqMx5/XKwaxEYak/JRwjhg2uzMgTz2jCGW5uTVYI+rGX9QW/oxoYtNKnratK8tYv/tCuiQuueioypyqbm71S+tbzbXuRdSwmblIcDud3n85///JmmZIxhLNukMKGlFqBoivr57VTvFpqo4qzZfz/2e5GFdCwvocVuN9TQydBLOk6IQ0DQwUgRGq1EAZOUk+884HRMeAiz3JoFzfDjSgHMqbcC6ickcRZdBiwupd3ym+RDzMqCYPKH30Q6NVvUXvOa16TgOoW/8KnKhYPWhTAwD0xw2lc4spPuAs0LzcD555/ffC6cuLWHALGRsEpcT7Vzqt8WwzAbp6NuKcNiZ57Oa5+xsUiZ1wUshObg2JhijENgF+5eNFpTp6MdUOCsTNtBWLCI2WB1BfowY4wK3VN9NvYEzzC/DDUln03RlnmmnQ6o2PHTzPi+FpiH46kyu3MJvglStOVDgBcRiOCfMFvA3C4brLG5Ng//Y/gYm1Pz2lLa1v0kcJif+NLQZnQtZc7rV7f+Zb73+Rxegp6HYF4bxnA7VNZ6n61l/SH0WyMd7OiuWXgC/r8ozFu7yAk222jAJozGzBzuKgq6dU3N3266VXzfJQQwqk0LGrW0Ew12uJAU9u9V4CBNWAYIIfRNZU6mYJDqI4SNAQKiJfOHoQEnLOxYi0DiRImdWHnfn2yl7MIcSevyWvTt1AljFvkC3fwYpN21EyBl94WI7RaZ5ECXyPtlYKwIWfukY0pCuBhzEXQx3H4Z3TbEnU85Rk5gSgsIjPBGozYFpc/SaL/TPC4VBEymNFlMWvDLFEjbpw6MOpw28yQQFTmBimZFO8fwJx9NhvKUYzEN37HsKwFiCLQHjrRDnU5QFbM1mnECDzCH0r55NwYFZ6XP5Xc/fXnvuX4bC+0Fi+J63phlYfFvqA2eTfXb0W9aEDtL85JQQwupznnt23///TMvDRjzFkHOKWCMcWpMS3u7nzYdtEjGn6BPICMEFmHBvECH4VOYx9fNJScKLbwArcBtgXl9Ro+0oeaKvkovvzGfR1uEeCd1bSpsdrgJ9OdUaUcZky4ddN/Nw3FJO/RprhdAy3C3bdu28ij70W0XHmK+2GAUcBWAzSsYm2veTeF/DB9MU2Nzal5b1NkFuKYhRQNoDP+lkfdnXoFly5Rnql/el/HzvcDYs/Ie/RceROA1p5785CeX1zuMy1QbxnBrTSK8Ee4IIWihtKtLa+XZrPJ/+dJN45Hfi6w//XJYOWipnbC0vuqv095OfxbzcD+P3+aaeVbWpam1Sx+51BDq8AjtBNZiuO3DvPnbT7/e31v+GgqIc1eJTwu7Y+RxOigFBH4cdoGOwGNmGJLd7lqAeRFBuEvFTtlOCQNQZ5y2mNR+IWL+RI7xImY+NY4Sa0s49CYBuHcF4+arhRF4h5khOBI5n5I4pZH9s8jzg8IQLUaXxXFfQgbhinmQ5qEwE0zQ7lN6phhH22kB7Cy0n78cFS8hg3mROhsRaov3NAN2iExxFjK4ZE6D13BmziPudv3s55iicqm2qfNpK7QNY2by8dyCEk6Z2T64cJTZAj22uzZWGI46LUwYEDzyAyh3RhFk4U/bCMP8Iiz4JiKhnCaBltLksZiHU3lObHfiDOGPQOg5EyJaItRYPAl28BLOuTuQkDESGUB/CafqDSfuFMiUR4BXpvG1+LvZf4gWpUErjlEDWj5tnqIDwqEF3xjS1tHsyDeFa3THH607ZvqIKau7aCWNsT6hd0fU4RBe9BEd0yiO9Rvzh2NzhECDkfKD40dozKba5z28GVcbKRsLNEyTSRNmpzo0pjsMTDywoNJ4MUHiD/700zxw9YXxVCa6cu2CtOF8nWPoGZpCw4Q3c2NqrEXhMP+YmC3m6BvOzEM7bH476hqjLUyfv4t5xH/HQhhO1jkHu30zVmhC+wgK5pdP5Rpb81O/1LfMfIMruEFLFjDCqCtcmES5YgzRjQ1NnIDLNsOfBRcvMlf5TxJkx+YaXBnnIfzHYYAciyF8oHl3Mw7NqXlt6eKxfIc/G1Lt11/zwsJNeIZLGlRjMta/Uk73c6xf6H7ZecZXFk7xVPwfbs0pOLIRFV2lP5+Ny1gbpnCLd1s/0A2eV1xwCk+ysbKOwJN5YW3Ca81vfAH/MU/MI/SPppRhro2tP3DbB8/icFWWyTcLHeCfaJFGbQgIadLBFeHK2mdtcRXL0NqFX3IxQYc2FLTbFDjmlU1D35qhTcuuDUPtXPTZTWIy/bOzx6I5tmA6xGoimWQWlvUAxkcQQXh292Wyr7VMxGmRM9DKM5EsdMvY4U0W7bFA2d1PASLDVDFrjMAiuigQJDFgk5og4rudcd/JeF55yiFMWci0YRGHSnjSbsKYSdnvp/54rzwkCx9FYCAwWwRpUbS97HJKO4fwV/BkgioHc1bHlKmUQEnroQ0AftCcXbQ+Y+jab5wwx82AteB62XaN9bvQsH7TZMUVDg3H3y7Ma5+5i1aMmYUQoIV5Y9qtw5wiJFqwCQPGVpsIdgRlQhPAIzBwY8xcPwXz+myRRI+YvzHHuAvdTdEW+kG/BAw0sgqeNQ/H3X7CN2HDhiuuoUjB23wjEC8C8ALfhTf28wzNtZJmCP9j+KC5nzen5rWl1Nv9pPlGG+YoTTua6/KatZQ51K9unYt+t+mwEbWB0A6mR4LDIjDUhjHcKg+/tBm3SewLIYvUN5am0P4y64811wEQmjnzYZH1ol8/WlnF2qXc0odl1oZ+exb9vVsIYIt2tqarGKgYWD0G7Fr5R9JM2skO7XZXX+s/l0izcswxx6RAEVdYzKqxwNAYMH0TMCr8MwaKAMZawFxcYetgoAhgTHA2vhV2fwzsUqcgd//hqD2sGNj1MEBDylxsJ7uZwhdM2TUz9zOF0R7QbtnB0ggcffTRVfjqkRNTEg0jrV2FrYUBrhDGxhhV2DMwUDVge8Y4115WDGwYBvhfWDgcQODTtDOAUy1/FqZBZui40HEybuvOaOPOrpPPF/8X48UPiL9e3Ii+6ULzzsbDVqvfhsFhL/64TGl8+9DvZrkxbDV87EntqQLYnjTata8VAxUDFQMVAxUDFQNbAgM7Hk3YEs2qjagYqBioGKgYqBioGKgY2H0xUAWwkbF1mseR280A/iquoKhQMVAxUDFQMVAxUDGwZ2CgCmC9cXaqykkuMence7KR4KSWm7D5YbjnaRXAEdo9VC4H9Z1vjiPNFSoGKgYqBioGKgYqBrYOBqoA1hsLd1e51HXqPqheljX/5LDsklQX360KONm6BNQNw5xsX/va1+5wu/+q6qrlVAxUDFQMVAxUDFQMrA0DVQAbwBvBaLNOc7k4dpV1ubzPbcpu2XcJpUvt1hvodABF9VHFQMVAxUDFQMVAxcA6MLBzzoyvo8EblZWpzj1CQim45ZkpsgvuzRE25brrrsvbr2nJHBkWLsW9LTRnbpd2gR5/LjddC+HgaL6yha0Ry1G4EqFa3LDfhxLn0C3QbtiW1/F6/mhutBeuotwS7JZjoYSEkBF2QvgdgpxwQMJDCLXhhmPPu8eZpXdruBiT97znPVMD133fb1P9XTFQMVAxUDFQMVAxsHoMVA1Y4JTgI4wJoeVFL3pRhmnoOuATiMQzFH/PbdviSD31qU/NcEJulhar6xvf+EYKPDRahDBx6AhZ7t6Rh8D0spe9LGP5MQ+KA9cHoV3E1DrjjDMyTpf3fotfJW+5PJGQeNJJJ2WcPmFWBBk+88wz8wJKMQkJWGJGCickjqbQSoDwKFi1uJfPf/7z804gJtBlIs9nQfVfxUDFQMVAxUDFQMXAujBQBbBAn2C8hJrnPve5GYWdcEU7VIBAI8YcvzBxw0SnZ+bj7H7EEUfkxXk0VTRdgPD22Mc+NgUxAUvFuTrqqKOyDPHyxB8TdmIIxGTrxqmj1Sox5qSndXvlK1+Zwpf2aCfNGI0WTZwYicKMaCfNmDZ551NQUun333//DGJKWBOnUlDWChUDFQMVAxUDFQMVA5uHgWqCDFw7ichcJ8o7IGzd+ta3zu/+0VYRbERhL3DqqaemYCQdgYxwI6iwYKI0aS94wQvyFOJVV12VZTE9AuY+GrDzzjuvFLXU51//9V9nEOASuJjW7IorrpiV4btAqMp34zWtmdOW4vV9+ctfTmGtJBZUmqmTMMlxv0LFQMVAxUDFQMVAxcDmYGCPF8AIKMyDQnO0bbsD1gkvf/u3f5uaozGtlTh45557bkPb5fvP//zPZxgU2irmS+XSQBVnez5ma433JV6Ycpk2h4C58q1vfWuaIAUi/sxnPpPJfvSjHzXy+ixA0Nxrr73Sj6w8q58VAxUDFQMVAxUDFQMbj4E93gRJg0Q7xUzHQb0PhKZf+IVfyDhd3//+92evaaKYFoHYc4cffnhz5ZVXNu973/tmpw4JOMyH3/3ud1OIK5kJdQSfIRBcWEBj8cGGQD5tZjbtpuH4774vmjcHBPh5dUE+pk3+YN182sK3rULFQMVAxUDFQMVAxcDmYWCPF8A4zdNaOWl4wQUXpKaKCc8f53zwmMc8Jt9zdr/22mvTBHjhhRemqbIMFaGHMzshzUnEAk95ylPSfOlaiALK4CPWhaJ9KwKh2/GdxPTJp8ylqgQnAt2v/dqvNe9973ubN7/5zam9Y3YUzJWmjhBGoyetfDRltG1Mpfrx+c9/vrnxxhuzau2lodPGChUDFQMVAxUDFQMVA5uHgZueFrB51W3NmvhtEUbe8pa3NJdffnn6cBFmCD98rVxoShhy+lEapsbnPOc56eReesSHjGBFEOsKYE5C0mjJR8giADk5+Xu/93upyeJ/pU713/3ud0+fLMITM+K73vWu1Mztvffeea8XLZaynYyk8XrHO96Rpk/lOiWpDQ4DXHzxxXmlhrZzsucL9qAHPSivpHDYwAlNbXKNBWHOSUi/5dN+Tvy0fhUqBioGKgYqBioGKgY2BgM3icV7R8enjalry5f6V3/1V6lFute97pVaIgKM04QFCGTMiU4fdk8qlve0X8yZTI99oJm64YYb8o6xoTvA+uml5et173vfOx3o+ajd8Y53nCXjU0aoIxhyoKfJA/L8xV/8RZpFXUPhu2sxSl7C3fXXX58aPk747hcrQDDURwJpKa+8q58VAxUDFQMVAxUDFQOrw0AVwFaHy00tiUnStRmf/exn0x+snIrc1EbUyioGKgYqBioGKgYqBtaEgT3eB2xNWNsCmWioHv3oRzd3uctd0pS5BZpUm1AxUDFQMVAxUDFQMbAgBqoGbEFEbbVk3/ve95o///M/b+53v/ttZ0bcau2s7akYqBioGKgYqBioGNgRA1UA2xEn9UnFQMVAxUDFQMVAxUDFwIZioJogNxS9tfCKgYqBioGKgYqBioGKgR0xUAWwHXFSn1QMVAxUDFQMVAxUDFQMbCgGdikBzMWorl3YDCiXsG5GXRtdx9///d83X/jCF2YXy25kfUI7uXR2LFTSRta9lrJdwOvC2o0C98nBvWtDKmwMBjZ6DDem1bXUzcLAqulj1eVN4cG1Qe52FHmlwsZgYDPHs9+DXUIAI0C4+FSMRTe6/9Zv/Vbzv/7X/+r3ZWW/EfsJJ5yw7josvkIUCQ+0swS6P/qjP8qb/uEPHjcSBCN/3OMe1zz1qU/N2/9XUZfJ8clPfnLWdocPhE9aLxDkL7nkkuaAAw5o3vnOd663uMH8Ltl10a172gimuxKIBCFaw/Of//ydRrvz8LUZYzivDfX91sXAqulj1eXNw5z1wwXbD3vYw5ovfelL85Iv9N4a8PGPf7xx5yUQCcX9j3sibPZ4DuF4lxDAPvShDzVHHnlkLurnnHNO84EPfKB597vfPdSflTz7xCc+kXEdhfdZD3zta1/LANy/+7u/u9Ouinjwgx+cIYjW049F87o09klPetKiyeemEzIJ7p7+9KfnaU9BGwhNq4Bb3OIWeeu/S3U3Cg455JDmEY94xEYVv6HliuoACI/CY21F2Iwx3Ir93p3bRHP+wQ9+cCVdXDV9rLq8eZ10kfaxxx7b+FwF2Li+5jWvyTm97777ppLhjW9842AM5FXUt9XL2OzxHMLHlhfAXDhKi2QxExjbAr/PPvtsF9x6qGNrfWaHQOAjHYu3uB5ti7u6zj333Nkt9Gtt03rzIbTNglXXJd6lcEqEMJEGCOLoYBWgnFWVNdaeVeNjrJ5VPxcU/rzzzkut86rLXmV5mzGGq2xvLWsaAx/+8IfzcunpVIu/XTV9rLq8eT252c1u1piLqwBaeNaJ//pf/2vz9re/Pde4+9///hkCbxXl74plbPZ49nG0mpWsX+oKfxNiShgdxQos7fdv/uZvrrCWnxT15S9/ubnzne+c5he+TO7a6sZ2JJBJ47ng1nZr1LgEQyF8CvzN3/xNc91116W69573vGfGW7zVrW6Vr+3yCHff/OY3M36j94ceemjJusMnHyVaOfke+MAHpkB685vffId03QfiP37kIx9pTOC+6ZFfwRe/+MWGiUyII22/053ulHEqf/jDH+aEF47J3ze+8Y30kRJiiTmNQKHsP/iDP0jT1MMf/vCMHSmWZB/4LjAhMhvLS6VOlY6hiDd5hzvcIbMwz2orjaFg40cffXSGT/qlX/qlrLv0XUzObhgnflXU6V/96lczBJR+dN/32+O3PNouJqY+E7S7IGSUMf32t7+dbXnyk5+cY9RN0/9urOUxnv2xLmmlEWsT/Rx11FGNvhkH7WAmhh8xOuVH28uMuXKMJV+zn/3Zn02hSXzPEkaLSV370MHBBx+cf9o1VTf6gPdF6M34iY9qThhTFwQbc21Bp0P0pv8WBOZlY2As9MEYion6sY99LBcK859ZW/zTAvPGcBm6ELi+mHce+tCH5p16n/nMZxJXxsLcl8bYwAWciqGKTgWx14crrrii+dGPfpSbhHkRKcZoXd+m2r1sG4w1OjcOd7vb3dJqIL6rueXZFO2NtQMNozE8GB9gGhPmTFza73znO80v//IvNxb0sTkEV+ar/Pid2Lo22M985jMT72joRS96UYZ6g2PuAXjxEP0O8ZtF6UM7CHr486/8yq+kJrzw5lJG93MevQ3R9zL8dBH+oT2L0Kp0YzRm3LnxXHTRRcnf3CGJ5ruwKG/v5rH+GTsh7ihHhOKjYYPnRfj/ouO7zNo7xY/XMp741YaAWJC7CsTEbc8444z2/PPP35AmK//4449vg3HlXzDbNsxe29UVDKjdtm1bG8JWpj3llFPamMRt3EjfhqYm0/7Zn/1ZG4tQG4JBGz5LbSyobQgPbUy0NoioPfXUU9swo7Y//vGP2wjK3b70pS/dro7uj2BYbRBzG4tbGwtmGwJGG0G4u0l2+B7CXfuoRz2qDTt/G8yxjQWtjbiPbWiQMm3EkGwj2HcbAl3Wr8wQftpgSNmXgw46qI3Jk2nh5GlPe1qr30DdoY1qQ5hqY5HO9K9+9avbYKT5PphqG4tT1q2v8BOmyVnd+h2LdBshlDJ9+PJleRF4vI2J3B522GFtaDvz3VTfw28h8a8f2hqq9DYmyaydWUDvH3yfeOKJ2Wd1hYanDQG0Df+4TGmswmSbfYwFNcfwiCOOaENA6JX0k59TYy3Vy1/+8jYW5TZ2nu3JJ5/c3uMe98jxCH+5NnaiWUcsYvk+fBuTvqf6/ZOaf/ItFpP2d37nd5KeQnBpf+M3fiPHRwo0+Nu//dttLIptCDs5NqFVXFndxuEJT3hC9tN3tG3ewLO6wRC9hXCec8CYhRk408PRpz/96fZ5z3teG0Jq0qcxQr8R0zTLmjeGa6EL8z0C2bdwB2JByPn9kpe8JOfs6aef3sYCnXh89rOf3R533HFtbEjaMI8n7aDxED5yjqt/DKZofard+MYybTDW4dfY7r333klfz3rWs1q0FQtw8iLzfoz2ptphjocLQM4ZfLgAvhGCc9Lc2BxS7vve977kX7EJyLmALkMozHkci2LyzwMPPLCNjW0bm5Isb4x+S939z3n0YQyMV2yi2xAaW7wufB3bsXGbV576h+h7UX46j3+EAJNzFn8EU7Tq/RSNjY1N4W/zeLvy+xAb9KQpPAtPNXfNf+1chP8vM77rXXu1fT3j2e/7Kn43qyhkM8oI6T8njgUzJOw2pPiVV0uAeuITn9hafBETZkD4KYJLqZBQZiH9y7/8y3yEiAgVmDNixoxe/OIXl+TtV77ylTa0drm4hoapjZ1dG7vmfI8JlMk1y9D5guFpEyED4yT8YVxjEMHC2/3337/96Ec/OksSu8qZAEaQIxCGtiYnqz5j1IQDgNETGGI3k7+//vWvt+EH1BLE9JcwVYQnCd7whjdk3yyooCuA+e19VwAjtMWudlZG+PS1oeGYCTn6+6AHPUjWZPZjfb/ssssSjwRBgIFi7EV4y4e9f6Fla0OL0aIlIO8DHvCAmQBmkYff8H/K99oeGpBchPNB79+8sZacAIaGMD8A3wRUAgoIU0Abu+WZgOHZsmMehzxSgNMei6TFN5zo29gJp7BAsMCYPbMx0Cc0vYq6Q2uV/TGuQP/MhdD25e8pesOgH/nIR+b4oy+gzQSxCy64IH+bW+iF8AjmjeFa6EIdxqQIYHD1kIc8pCWAAXTv/dlnn52/4ZmQax7DKTBmxrHwhHzY+zdF6/PavWwb8DB9CC3dbG6deeaZyTstjmBo/Oe1A18MzVcbrgCzcs3597znPVnm1Bwq422ThZcBtBtas5yL3ofPZNKsd/PoV5o+zKMP6wbebIz9ve1tb0vhmgAxBPPKm6Jv5U3x00X4R18Am0erUzQ2NTaL8PY+frQffb3yla+cvSLYWk8KjU3x/7WM73rWXo1c73jOOrqiLzvajTZEz7b+QqnP+aRQd1MHxq4jVd3rL/knJcTgpFqdepttmBnnhhtuaJgi+3Cb29wm1e+eU7dS54awkqpdJkpq/wKhfUpVNxOLfNT0J510UhM7sVTHM2WMAd8nBw5CM9CEtizNXFSoY8CcQlXNHFCga8INhpGqd+YwBxqojpkAqPtBaHzSTBYTKH9rM1MDfOgXE2W3PCYt7WFGWxbku+aaaxJXxaSqv6Wssb4zW1x11VVpSmEaBUwIzBpOYo6Bwxuh6ZiZPqnKqeULMCGHcJkmUqeP4DwWhTTXlDTdT2bKqbEuaTmxF18wZl0HI4IZ5msmNu+0pcBYv8v7/iczgvEKrWeaiEJDkyYdpg3+Ht4Za/6ITHkce+F7FXVri3EsZm4mOv0t/ZmiN6Zoc83YoS8AF0x6TJHme2g405RhHMDUGK6VLrLgiX/aCFfMNwDubnvb2+ZcLvRnXoPYYedn/98UrS/S7rW2gSmszC30Adehdcnm9cd/kXaYL8zy+Iy5xsyExg466KAsc2oOlfE2B9EJgNNYiJMP5oPOv3n020k6+zpFHxIxrccmIeeDOYFXhtY2TcqzQjpf5pU3Rd+KmeKni/KPTnMmv07RmIxTY7MW3v6tb30rebX1rwCXFnS1CKxlfJW71rVX3vWOpzJWCVveB6zfWYMdJrsmdqd5fLYrDPTTLvM7NBTpS8TnI3aKmTUk/BSyYneXfihlEe2Xi8EREE1GviCYsM8CFqO99torT5sgzrPOOiv9q2J30Cjbwsg5cghCo9XEji2FoDD1zZjnUFrPHC+2WIWAPpiEAIUJh6p48HSNSUqQCXNBCqCESgwX/OAHP0h/nX/8x3+cla1f+ufagmVBO5UVO9HBrGN9Ny6xE88+Yjpl8bbYhCZlsCwLBWaLQYzhRllOBan3tNNOS/yEWn6wPA/njfVQRgspmnWgYAzG+j2Wni8iIesVr3hFnrokgIW2Jn0G4ddGwiGWRWDZukNbmdeccOol9NvEFBpS3xS98Z0ZAkI5wcsct7DzyQLzxnAtdDFU/1qfjdGV8qZofZXtnmqDhYsAFdqnwS4u2o7QWibPsnnznRAVWo8sc9k5RCgba7N2LkO/8+jDGPBD5dv3qle9ahAH3YfzypN2ir69L3NhiJ+uhX8ocwymaEyeqbFZC2/Xd+NT+O9Yu8aeLzu+Q+Uss/auYjyH2rCeZ7uMBqzbyTAHpNak7D6779b6naYnTI7Na1/72pycJigBiXbKbo+DeBcwjS7jMJk4jBJIMDqCS3eBMTnCbJmTQNrwNUsnaNcUOBps4RuC173udcm8aak41M8Du8swxzWhUh5Milm63iHMorP3GK/+AwIiYVCaN73pTelUabcPwjSZAhhn8wL6Jc/YdQ7e9XFV8hLctCfU6tv1n+MmGOu7fGgAzjDUAtoC/0NAK4NetN3Oawgs/GEOznvb4HEezBvrsfyYHVoYg7F+j6Xn9EyrdvXVV+fCaJfnu8WWwBfm6O1o0dhrwxAsWzdNRpiUsn6O6uaAhZkzPphHb/026It788L0nE7v3ffzxnAtdKF8OJoSBLptWOv3KVpfa7sXaUuXR1mAbVA4ng/Bou24W2j3nUy/8sorc6PWFe6XnUND7SjPlqXfefRBULBRptnuboA4gRetYKnb57zypJlH31P8dC38Y4pWp2hMW6fGZi283Tpn3jioNQZT/H/Z8S119NeTRdfeVYxnacOqPnc5AYxQ8/nPfz41UoXJrxcZBBYnvqjo++AySqp5C3NXoJKHRA0IAiYxTRHBgEZCGwkxwGJHY0OYY6pxtYK8ThARrGikumVnpvhHoKDRstOgVSNUOW2EiZa6S9ry6aSWe2Nocmh8lEFVLI9+hH9YnjijAWPGo/kLf5vtLuOzmDOVWVC7zNXJRadcXNOhXEBYwpCLCaIw/PKpLTRc+sDUwMSnLyW/E3+EIouuUzSEsThkMbfvcKnMz3XMw+6uMl5DgBHYrWuv/lqMaO38aReAJwKd9honQjeceU9I7cO8sS7pCy78RhPqcZlwAbgo4+/7smOONpmD9JHgwuStPJo22kwXzRKs0KlTh5/61Kdmptf11m2jQduGlgnhBDIbliIYL0JvxqKAfIQwtKsPToPaKaNfdDNvDJelC/U6rWkhKRsLp3fV321Xn+nLN/bMuyEYo3VpF2n3WH1d+lJW9zdcFkDPxmnbtm3lUc6zQnseLtIO6dAZvkaQYTUoMDWHzKOhPsjruTEgJFlQaVbAPPrNRP/yb5E5jjfjAeGD2eAXeM6FF144M5kvW94i9D3GTxflH9pUxnQerU7R2NTY0GTP4+1d3Phus+XuR+4sxaUCPsvYSTPF/xfhT8row1rX3kXoY5Hx7LdnXb9jYLc0hLYiHaU5DnNydyKPY18w41m7OVY6TeVkz7LAOTr8sVon0TipxqI+K4LDqbpiZ5EniEI7lu/CPNWG9N/GbfnpfMpp2LNYpPM9B2eO7k4+crDnNM/ZMxa7dOjm+M25nONqCGB5InFWae+LU34huedpQyfMOP9yclbeGHCKDcLPPjlIoC0xcdvXv/71ebiAs3FMfjbKNlS46WQfzHG74uDUyakQQLZ77iRKCGd52oXD7nFxIswhAxDCRTrnwhe8xWKaTslOuTntFFct5IkhuA4/pzwpaRyd4AvtXrbHabLi0D3Vd7h0EkvZTsUaO3jujt92DY8fMXGThtQVQmM6fzsgoAyHFjjfx04w8etgQJj0EvfwMFbu1FirX7lhhki6vfzyy7PfcUQ6mxYm6xwbY+BEHVoEU/3OBL1/cVt9Ovpzqg5BK2kK7YIQKvJgQixurb8QlHOcVlV3CHV5chQtdf+cDOb0C4boLYSqxI0TjmjRoRTzx3P06rCNwxjoiBN+MMY8VTlvDNdCF2gfPcZGKB3C0ZW6w68znXaL83pc4ZAnhZ3UDDNWHsTh1Osk2zHHHJNtRjNjMEXrU+02lsu2IYSYdMKPRTXnvRNu+FFoRrN5Y+M/1Y5uv+DMYaPQtnYfj84h+MXvnLjGP0Ljnqe6Q6BOXorfxKYyndaNfWz28kDHGP1uV2nnxzz60G4nz/FU9IovxUazU8L2X+eVJ/UQfS/KT6f4h7rDXSXXHyeNjdkUrcLpFI3N429TvH17rPzkl0MB5npYF/JQinXQYZRwichEnPun+P+y47uetVeDVjWeP8HA+r6RrLc8WJhC05FXKkBgHzAbTBDz2AxABIQoxBW35eci16+X4GLCeF9OSkljkUF0sQvLd05BTkEpR12+m7DKnQfqdAUFISh2PnnkupsHzkJTkUfuu8/Ld+8Jv0OAUTomHnfGzITOoXTlmTaEk2cKf04elb6U9z69x9C9L7BI3+ED4yD8LQrSOrWJWTlCb9EvoDyCPEbnTx+lm4LSzv5YlzzGHPMzHt26yvv+Zymv4GnemBOC0JExGZoH5oVj8U4olk1Cv87ye9m6nZYNE/rs2hL50Y1nRdBU9jx6K/X7RF+uXClCL3qHgy5MjaF0y9IFvFhMQvuYJ37Rxbxx77Znme+O7hurIVpYtt1j9cK3U5BOMKMjc92zRWGRduDLxqoP8i47h0oZoelMOu3ynmXot5Qzjz7wYDyny29K3qHPeeXNo2/vu33q1lHm3Bj/6Kb1fRFaHeKn8s4bm2V5uzLRsU24svFLG6YigHk/j/8vM77rWXu1pcB6x7OUs97PXUIAW28nV52/EAHCqrAaDLjLKnzN2riAcTUF1lI2HAMEVDtz94p1wSJKK0norLBzMFAEMFfQVNjzMLCz+OmQALZK7O9ua+8udwoy1MY7HWJnnP4h/FIqrAYDfBBc5cExs8KugQE+O06/uR7FKcwwNaTfFl8TN67zD6mwczCAN/FhC43GzmlArXWnYmBn8dPYlCXd+dwI2N3W3puGRHnaRiBqdyyTs6p7ZDjcc0AMVXCGvnEUtsLaMWCyupvHou0QQYVdAwOcWp3i5ShNGAtTQp6wC5+0PBW5a/Ri92tlmIRSIHbqi9O209P4lTGqsPtjYGfx0zBB5ml6hwvwApuzcoJ+vVjfXdfem1APrhc5NX/FQMVAxUDFQMVAxUDFQMXA4hjY5a6hWLxrNWXFQMVAxUDFQMVAxUDFwNbEQBXAtua41FZVDFQMVAxUDFQMVAzsxhioAtguPrhucJ6KfzjVPZeNxhUOs4tIp9LWd+vHAKdoPoRxHH1WGId18U0rVAxUDFQMVAzsWRioAtguPN4cHd3q7s/3ZUDAa7eKP+c5z5kFUl4mf027PAbcri7IN6HXeAkZJPyVqAUVKgYqBioGKgb2LAxUJ/w9a7y3623cMt7EDeQZ7HhVQc23q6D+mMRAXMCYIbWcohU/sULFQMVAxUDFwJ6DgaoB23PGeoee3uIWt9jhWX2weRhwjYPYdxUqBioGKgYqBvY8DFTuH2PujpGIo5WmIffmiHD/+Mc/PgMLl/tHvI8YZU2Ey2ki7mRecCiwsbvAIvZV5vdOIOQ+uDcswrKkqe/ggw9u/AGBpyOEQwbxFlRasNy4Wby5733vm4FiIwRLBmEVdPxhD3tYBjllvlLnQx/60Ly0VGBlgb4j1lqWKfiuur797W9nYHABwm9/+9vnO//ipuIm4tfl3UB8wPrgvUs13SXz8Ic/vBGA+6d+akc5XV7pXJx6twjGzZwWcdXyLq9ymap2Rpy0JsKSZKDoiK+YfYPTCDXTMINGfMgM+h2x9RqBZOe1f63tlW9sLPtllt9MhgKSu5tMkOm4pT9xKmCxCy5pD+PG8cT9Xe9618w21X7BsK+88sosr953VrBcPysGKgYqBvZQDKwyTMCuWpawDQJCi/0msKqA1yXM0Fve8pYMjizelSCugsmKIygIrQDgAo2eeOKJrYDcgqH2QXw5QaJjYW5DYMvAw0K3iHV3+OGHZ9ys5z3veRncWuy2EOAyrp+YlwL8ClytvgICLp9++ukZpzDMVq3g1Y997GPztdhsD37wg1uBd4UiefSjH90eccQRs/h/733ve9tHPepRGe9OXEKBkNUnhheQT9BcfRcQW5DVV7/61TsE5BYv7J3vfGcbF+1lHc961rMycHcIXhlIGa7EN9Ovo446KmOFnXfeeVmfAM3ixGmbvsGbYNcCIM9rfzay82/R9pYsQ2MpRuIQiNsGzwI0Gz+B4AUeF3RW4OzwnWtPOeWUxL8gx8Zrqv2lPIHKBeUuIOi3MapQMVAxUDFQMbBnYaDGgozxfsELXpCCQGhsUnAgXAhmLQhwaGUyeLagrYIZEzpOPvnkDPwdTuytBVTsuyEILVIu2oQ6+ZVJ8LjPfe6TQg9hKrRtKZDIT4ALLdJMkBNQNbRf7SWXXJLFa5/FX3DdAoSvIoARbrZt2zaLwRc+XlmXxV/A5v3337/96Ec/WrK24sQVAUyZETqm/exnPzt7L3/4hm0nAJaXJdZcaINmAt6ZZ57ZEjAEYtV3wlUcEMgsBFFBWgmhQN9Dc9hqc4Gp9pc05XPZ9k6NZSmz/6mOuNW5Pfvss/MV/BPODzjggFmAdWOjH9LOa78gzMqrAlgf0/V3xUDFQMXAnoeBaoIMzSdz3rHHHtuEdijj2oWmI81un/nMZ5rrrruuufjii2dmuGc+85kZ805YD6a50JCM+vG4boD5jemSqREwL4aQ1HC85gPEtHW7290u3wnbwCdIvCsgNqKYXu95z3uaJz7xic3Xv/71JgScNIFmgvgnfTkB+au/+qtNCFCNqymctmPi847p7Utf+lLDpBYas5K16Treh7DX/PCHP9zuGVNpaKaynAc84AGzfN0vzK8lFBP8OdGnft+Z6ELobEL7laZPZrvSVn3ng6Y/BabaX9KUz2Xby5w7Npba1b2OQ7uYfI2vdjJJA/0soTVCE5bPbnOb2+SnMRP7cAz/EilryJybBdR/FQMVAxUDFQN7FAaqABbD/ZjHPCb9mV7xildkbLvjQgALrUcKJASsMKXNhKRCHYSaeSAm2z/+4z+mP9khhxwyL/kOsdoIAvyNTjrppPSZ4jPGZ2psEXfPFAGIr9Fpp52WbQ4zXdb7V3/1Vyn8xB5jsB0/+MEP0rdMewvstddeKSARohYBwgj/L/0G11xzTfPWt761eclLXtIcdNBBedpyqpyp9vfzLdtewuXYWP73//7fmzAjp4CqHj53fOvE0lsECk6Xaf8i5dY0FQMVAxUDFQO7LwZ29K7effs62jOO0+E71Vx99dXNueeemw7lvtN83HjjjTPtlQI4lnPIXwQII4SlMPulFqrkoQ0jQCwCBC6BdMNvLAWr+9///qPZCDzvete7mjCpbud4LwNH/PBTasJUNpifE7m+ffOb35y9p62itQk/t9mz/pcifHhOAAlzbAZkhlPtoLlb1OF8qv39epdt79RYhi9cQ0DVf38OMAwdpui3of97mfb389bfFQMVAxUDFQN7FgaqABbjTWhxmzxhg8Bg8aXhCp+pPOFIA3bVVVc14WSdl54SZAoQOsaAie/QQw9twqesed3rXpcClJOTtCuEsyEtGoGmK9QQnJyMJMQxcdHidKGb3q3q4UDfhL9Znrh0qtJdU0407rfffqkRoyFjiiRcSU9gksZpx3322af50Ic+NDMT0gw54Uh7NQYErQLqC8f6NLFqh3fq0s//8l/+S2rG1Fc0ZMU8WvJPtZ9g1IVl27vIWHbLL9+7+J33bF77S1nd8VVm/3epp35WDFQMVAxUDOy+GLhpmKpO2327t1jPXIJ5zjnnpLZKqBh+VXHqLbVGBJA4JdlcdNFFzfnnn9/c6173ap7xjGc0n/70p1NwozlhsuK/RIDrAu0XoYnwEc7aWQftClMnAYV5jm9SOGancOSaA+UyffH/Kn5GfMSki5OaTfE5IjTRxF122WVpKlU/wdEVFJ6pk0D18Y9/PAWyI488srnLXe6Sflluznc9BAHo2muvzXpoAPmnXXrppQ3Bi/AkzUtf+tLUaHX75TvBk+BKo0aguv7665twLs++KYdvV5zeTP8511XQWMUhhvQFI1S6joF/HBzFoYQULJlcx9pPCOz6i/Gd099F2+t6kaGxPP744wd9+FyzoX+f+MQnZlpA7Ydbvn2uIoE/Jl645hv2iEc8YrT9cIKOlAcIxK78gDPaUFo4/nn8DW0CCJiu9ahQMVAxUDFQMbB7YqDehB/jSktDC/Gd73wnBYG+MEXjRUNGUCJILAuEJY7pHPeVXZzWFy2HBongtkjdRetUTGhxMi/rLP5MtGOEpbhiIu+yIgDpVwE+YPpKGFLGWFvh5LDDDktn9biGIoUSwiZBp4Cy1E/wIUT6TkPWdf4vacvnvPaXdOVz0faW9Osdy1LO2Oey7e+Xo300aX0a7KervysGKgYqBioGdm0MVAFs1x6/ndb6IoDR1AhpVKFioGKgYqBioGKgYmBxDKzrFGQ59VV8ehavtqbc1THg2gXmVzTATFmhYqBioGKgYqBiYHfGgANpcUH6yrq4Lg0YHx6n8l772teurEG1oK2PAQ7xzIlMtze72c3Sd4l/GXNmhYqBioGKgYqBioHdDQNC/p111lkrPTS1bgHMxaQEsQoVAxUDFQMVAxUDFQMVA7sjBvhPO3zlc1VQVRarwmQtp2KgYqBioGKgYqBioGJgQQxUAWxBRNVkFQMVAxUDFQMVAxUDFQOrwkAVwFaFyVpOxUDFQMVAxUDFQMVAxcCCGKgC2IKIqskqBioGKgYqBioGKgYqBlaFgSqArQqTtZyKgYqBioGKgYqBioGKgQUxUAWwBRFVk1UMVAxUDFQMVAxUDFQMrAoDu60A5oJQsfo2GgS63h1BfMIvfOELedHq7ti/eX0SUkiYoz4IK/WVr3wlA6v3323E73/4h39oPve5z80CmG9EHfPKROPiX64FxNRER2WerIKuVlHGWvqyqjy7evvNC6HRRMPYqiCerRitFeZjQJg84ecqbD4GdjsBTJBrF8M+8IEP3HCi+uu//uvmhBNOWPe9INp8+OGHNy94wQtmC9VGkMLf/d3fNY997GOb5z//+XPrsWi+7GUvy8tWN6Ity5ZJEPnUpz7VfP3rX8+soi+s8j6W0h4C1gc+8IFk3iV+Znnn4tnnPe95zaGHHtp87WtfK4837BNTfNzjHtc89alPzYDrq6jIwvTJT36yIRiB733ve3M3KuKBCqz+3ve+t4GfReGP/uiPmkc+8pHNc57znFl9Y3S1K9Pmovgo6cZwUN5v9c8zzjijOeSQQzJ27lZrq0uiL7nkkuaAAw5o3vnOd2615m259lBSXHDBBfm3GQqLjUbAWvjbRrdpsvwIQr1miB1Ge9/73p+EXgAAAEAASURBVHfN+VedMRaH9g//8A/bF77whe3tb3/7Ni6IXXUV25UXhNtG8On2qquu2u75sj+uueaaNgSj9vvf//6yWZdK/9nPfrZ9zGMe08aiu1S+nZ3YuJ5++untvvvu2/7rf/2v26c97Wnty1/+8vbaa69dedPe9ra3tcZ1DEL71Ubw8vYP/uAPxpKs9PnFF1+c9UXYp3WXG8ypDYGu/fmf//k2LhRsX/nKV7avec1r2n/6p39aqOyzzz67vfDCCxdKWxK9/vWvbyOo+1za3lVps/Rzoz5Dy9TGhmCjil+63Nj4tEcccUT7H//jf1w672ZlgLODDjqoDcF/s6qs9awDA6ui8fXyt3ldiE1ie5vb3GZesqXe71YaMKFwDjzwwEaA6Fvc4haTgud6X9IgfOhDH2rsuGgG1rN7uOlNb9qce+65zR3veMf1Nmsy/01ucpPmvPPOa2IBnky31V4yJ9Ok/PEf/3Hzrne9K0Me/cqv/Epzz3vec6VNVf4HP/jB1DqNFUwbtJkhl1ZNx29+85ubP/3TP22e/vSnNyHwN0ceeWTz0z+9WEjYo48+uvnwhz/cfPWrXx1Dzw7PF23/rkqbO3R4xQ/gO4TTFZe69uLwvRNPPLH5tV/7tbUXssE50fOiNL3BTanFL4CBVdL4evjbAk1deZLFOO/Kq93YAjFzfxsJX/7yl5s73/nOadLjo/Pnf/7nzX3uc59ZlQQyaTwPrVMu7GJJPelJT2p+9Vd/dZaOb811113XfPzjH0+B4vGPf3xzq1vdKt8zsxHuvvnNbzah0cv3zF9dkJ9JI7QYKXQ+7GEPa37u536u+U//6T+lieCXf/mXM14nf4gvfvGLzSc+8Yk0zzJ5Eib4coQGr3nAAx6Q7cBgf/u3fzvDS33+859vjjvuuOZ2t7tdCpof+9jH8jmBkWkstJ8Lt1NCwupYGd7zE/rIRz6S5r3QMjUWfH1hCoTb0Drl4r/PPvukoN0VhJgoTWS4JJw98YlPTDz+v//3/5rYrSeOQluZwicchyZNlTOQLrRfzS/+4i82v/ALvzB77gscv+9970uBRbtii7Pd+6G6+cksMi6ES2NPqPk3/+bfJH1owxAwA1Kx3/rWt84FkOn6S1/6UtK6Tccd7nCHzMZU+v73vz/b/ZCHPKT5jd/4jVyQhNFAB2gAbf36r/969rfUNa8tBPd73OMezdvf/vakKXQwBH/yJ3+S4yhOaDF1SgfHwpZ16crz9dJmKaP0i/tBoe9Fx/9b3/pWttn8YWa98sorm3vf+94NWimL+Tz8aEeBsXp/5md+ZgccDKX9zd/8zTQVv+hFL2oEADaezGp4DtcHGwW4Pfjgg/NPvXCLHp785CenyTisATnG0jCZ2zDe9a53zWDCxbzO11FZ+ADalhevGQPzBj6Ufb/73a+55S1vOZjUXP4P/+E/JP9Dl49+9KOTbs1BfEef8SNzE07wRfRpLjGR4xV3utOd8r13d7/73Sd5h7HBH2yi5JO/C12679JHN80i88vc+v3f//3koXBhXODtKU95Srb9iiuuaH70ox/lBgeuwTy+V9qAZ1x99dXpW2fNsNn84Q9/mDxYHXgj/1ObUWNaAH8yhtYJm9KyhoSFIPGPXxkDtF34kjY99KEPzTHh2mFtsikzLmuhoyEeaB2bmlf4Nxrp07i2Tq0Ta+Vv8IU3oRP0+fCHPzyVNd11pOB00z6X0pf1EgdRbykTZGleDF4bjGrDTJBMNscff3yaoZiimMVOO+20Un1+xuLbbtu2rQ1hK9OecsopbQgGbQStbkMDkWnC+bENxtTG4ptmwWC6bSyKbUyoNgS49tRTT03zw49//OP2937v99qXvvSl29XhB/Nc+Dy0wcTa8M2YvQ9BpA3G1cYi3cYCn+a7EAbbYFBtLPDtO97xjjQLveIVr2hjorSPeMQj2tjZtuHTlu3Tlr333rul1lVH+D61Rx11VMsEEVq0NhhiGwG5l2rnWBkaHf5cbTCANphOG8ygPeyww9rwM8n+UFHD91vf+tY2Jnr7xje+MU1ocFzywm8IvO13vvOdND8w6coXQln7O7/zOy0coosQRhInmbHzj4mPWe4tb3lL52nb/uVf/mUbQm/70Y9+NPH1hCc8IXFt3IF2D9Udi+PccZnXL+X/+3//72cmSDShrhAMZiY95qlgWG1oSSRvYxFpjV0Z62DcbfhE5rsxOvBykbZIx0Rr7EMI8HMHiA1D+6hHPaqFz9gEZNpigkT3XbqSeaxNzPGL0OZUGd4tMv7qYtLmToD+ma5iQU1zQwhiilkYP5k4/o3VO4SDobR4gLSh0U+3gfCnS7rFK2KD1Ibg1IagkrQRu/7ZnDXe+MRzn/vcNrRUbWwmcr6YW7/1W7+VfTJ/AFeEBz/4wckLQmhIXsS8GItzvu//M39isUyaND/333//9hvf+EY/WeLKPIFTdIWP4ZH4i/YD88x8xk/wNjwJ7aJn8zCEzkwf/o/tpz/96VH+oyxzW9nKwTvwJ/ywmCDHaEzeLsybX8aEKwR+aQye/exnt7FBbWPj1P7u7/5u1md+xqY3+bi+T/HObt3WlBBGMm8IV1mesuDFb+sL2oR3Y4qPg6k1RP3HHHNMG5vYxG2pLzZQ2Y8QQmZ14peg0OcydDTGA60dU/MKvvs0HgdUJsd6rfxN36x55oE1MYT/XI9f/epX5xh5Pw+qCXLTxNLpimi17BhoHewi9ttvv9wx200WsNsIASxNk5zrmf7saEje4UeTpwtj8HPHEowsNTMvfvGL0zx06aWXZvm0WHYqdqscmWMhK8XPPknvwTRTg2UHZycI7Pg43NMgMTXRGtmR0b755ODN5BlCVe6C7JqCIaYWiLZJ3gK0a3Zi+mvXR6uiHjsueFiknVNlqOeyyy5Lp/pg3Nkeu15aGmCX5KSOttpxO/igD6961avyvd2f5zQF2mcXb2dth61tTp3BUwiZuTsc0o7GQtJwBLfTLEATcs4556RGjRYJvoyDXXyBsbppIuaNy7x+lTrKJ41TCMXlZ37S1hUzn91t+HVlP+HCbthO2TiBMTrwbtG2qA+ezIE+2Jm+6U1vamJhau52t7s1sbinibOk69OV52NtWpQ2p8rwbpHxVxeaMa7mB6dk85XWRX6wKH4ycfwbq3cIB0NpaZmMnzaZww960IOStrWN5pIWiSaHFioWlqRNWhPzDN2FgNOcf/75qa01j6ShucSTzAuaDnMXb1GOerhvmAddrWXpD62bOWru0WaFb19qzbSnD7S5tP/aSQsSPpvZdhpzvC42bjk/aSm1l7Yan4vNRrYdr/JnDGiU8NIx/qNuWiOarxA6k3c4tNJ1TxijsX67580vmkF0QgMdG+nk43BqDdBfh7+0+SUveUnOD/XO43ulDcbbuKE/7QiBK8uiHaK1ceiBht644mX4Nx48tYbAPX6l7HLKUZ7YVGY/8A11dtcV9LksHY3xwOuvv35yXulnn8bR4dhYr4e/oWtjgxbNJ2P2jGc8I/FJ47ezYLc0QW40MqmCMQUTwR/hJXZfzefCFElw6EI47eWAexZO5MkwneSj8jdpu6pkE4H5jPAQu8Y085x00klpnnJykZp7CDAEjMFkNNFMYkRF8ANUy7ETSrVuaEpyQbZAg9IHZXSB+agIKiYqRmjhRcQYApVz7GAa/bv//e/fzGvnVBmYQhxEaJhLLSxAm/0RgphItY+JDmAsTLHaAiwoJi1hqQD8EaZMtGOPPbYJrUyOUexYs88lXfkkpGGWzCEFvvvd7+bJS0wQnsBtb3vbmcDj91TdU+OySL+UvwxYJDE9wimwuBq3AmN0sExbCLjSo4U+EDoJYcaxAOGmC1268nysTd4tQpvzylh0/NVlQSgCODowfoSXZfCjPWCq3j4OxtKqtwtMTea1tjFFAULNthCqzBvt947LADBPbEwIzYV+LT6hJU5axyfwA5sbJ56dWjWnCWd9UC/zPjOmBR3EYac0SffT+m1OF0EOzaDFYq4kvCsrDpjM2vXMZz4zN1B4jrZqe6lnineoy6llwhHTFVBPl59N0VhmWOJfoZPiRwvveAIo/AlPBKGZS14xxjszUe+fPssPZ8B4+b7XXnvlb33zG13OW0OMDwGd8P6e97wnBV1rjzKYewuo07gXWJaOpnhgwdfQvCr1dT+nxnqt/E351lprRJcfWXud6EX3XHB2BlQBbEmsO7Zvh2encOaZZ2ZuuzcTBZHzjUJEQ2CyYoYYED8BE9RnARPDRMNoTYKzzjqrude97tW84Q1vyLI56tvdDQG/AO/t1H3HIIq2hCBBu0ZoJKRhuMsCAYmGzO4uThg1n/nMZ7KIZdo5VobJb3czdK0E3Nqph3o4mXphyvw8CEzy8oWykyoasW7fjBObf5izUjNEAIvTfDMG103ru3oKGIdSd3nW/ZxXt7Rj46K/pWyLVb9f3XoW/Y6elFs0h/18Y3QwD8fdcko74b4PYXbM8ejisJ+m/3usTf10U7+nyrCbX2b8Sz0WDsKAviyDn5J/mXrH0hJaumBcja8NH43IegHdhTky77Q7LTQuBDeasiGwQTH2NjNF0BlK55kFH93TDhHGbVgJe8V/1UJIwHKlSxEWS1lDwp93Y7zDRpDQT/Aco7sp+ij1rvqz25axtq+nTuXPW0OUby2ycbdBpiW0doVpeib4rqcN8s7jgTaEXejOq+7z7vcxfK2Vvykb/ZrH5k8Ba601d2gzWdJs9Oc/b+s3upbdqHzaKap66mYLvj8CEiKnAejfD2WidCejScOR1uDb6diRdJkOgubojDlKG75POXGYz+LKgNELQJl8qPQ5D3MY7zLo173udTlR7DLtvpcFplXaNKYC5oouLNrOqTJMAgIj5oBZFuBw7p3dk+cErQLwBIcWBUJt+ImkOau8t1siaKqXKYyZgoBqt+x7H+xilWWSF7CjtQjS+HXHqLyfV7d0Y+Myr1+ljv4ngbdPUyUNfGiv/nXbW8xoY3SwTFvgRxvKrr/U7ZMWIvxO0sTRfT71faxNU3n676bKWHT8+2V2fy+Dn5JvmXoXTUurYwELf8Ttxpc2zAKzLFjouEWY21OO98q1mTOnHHQoYDEz7/pAQxO+SjnvOKzjdzaGRXAz12+88caZFk9+iyPeOgTwM8Z/0Lt5ysxuwzQEU/TRTz81v/ppF/k91fZF8k+lmbeGlLwELmPghCA+ymKxKliEBy5T1xS+1srf1M8qgMaKO4Zn1hDjXaxBnm027JYCWFmguovQKhBrccGAmLP6wGeKyQBD69Yrj10aQPyYGHMhocLO14kwzAhgorQihDnqexNGXto1wpNdY7fszNT5R0BSBt8Dmh+AyGgm7Dotnuz/xQRR2qXMvkaj4FAZBB8Tw05TWv5lduPy6NMi7ZwqQ1nhnJ2TA6O1ayKM8WEB8KH9nwsTbwEnfIqfGjwS1hyP91x+fnYWTuPBLGuiwQ8z7xAO7dQtcPpZgJ8HgTOcpGdCG7W/hYfgCabqLuUMjYt38/olTRHeyyeNAU0hfPAnZEIyrsYZTWG2Ts4aE+PF/OHE2jw6WKQt2mORg1ebhD7AlfbRqqhbnU5BoZNiTuvS1bw2KX8ebc4rY9Hx77ar26+C90XxU/JO1duvaywtDZwFzkas7NxpkVwwSqgw95wYdIqtmNz6ZWtP6UNpW/ltbMxL9ITf2DwaJ3RlseqCTSdtPK0Vk/y73/3u/N7nG/LYVNIy41vFL9PmtGyg+IHRYCuLewGrAl8yvLJAmV9+T/EOtE/bZv4rQz4aDX/6MY8+Sn3lc2p+lTRjOC547aabavuQpnqobOUNlT1vDSntIFzzrSW4O9lrHenCUJ1jz/r5/J7igUPlyFP606dxvHtsrUHja+Vv/Jf5FTKhowmAZmyQWXR2Ftz0tIC1Vm7imEAcM7cKYCKcOe0KOfQ50o8RAD4HFkODQWuyDBBqoIqGyQ6OSt1CBDAvizSzHK0L4mLuI1zZ1WFwmAuhgAN7nEZKxsp5n1rYLtHO1pFmBMbEgLHQrrnKAMHAM0fwosYfaruJRgDRxyKAKVf7mBZoxpSLyVq47R6lpzGxoGOWJnVhZt7pK4bpO/wx59hNxOmV1Azpw0UXXTS3nXDlkMBQGRZu+NJOjr6EB7hj7iQEGUP94IAKt97BJ7875ZpEFgzjLo3dNudTuPadb5j8fBUsaJzE9b0LmBKhj1AKz0BaDAuutIn2jIBLiLUgwjHfgbG6S/lD4+LdvH4RnJl9CZB2f4RHWgS0Bo/GjY8HurMQ8geyUNJ4GW8aP/ji32MujNGBRcd9YFM4Ln1hZqdFhUP46YK2aSehz2LoKDnaRTu0FHBMeCh0Bbdwtx7anCpDv2x45o2/Tc/ll1+ewgyTDWEcDgmy5i7BA89YBD8FH2N0R2iCm4IDpnNzaqiNzGrmokM5aHBb+HqZ/zZAbnuXx4aAed3Yon38x5zF3/AVZaMB/MqcNb/wbT5A5i4Has+UaYGKE4PZZ4tS4W/6pC3mqPagP3zLRhKvgpcuEIL0nwkSDv0RMrXH0X90b84qB++w0YJjTtE0atKiffSk3Wh3infgmeal/htH/moEHwKmuvj9DNEY+uj7/qhrbH4pixBjE140JwWnNiZwit7VBZ+0xDbrU23Hb4GNhvms/XgxGjSnzRdlwYW08GpewbH5Dp9ja0h3XPSV60ucCE/LizqtA9Yn469OuAbL0hEBeIgHWk/mzStrSZfGWXpoqYbWCZYMBzvWwt/QM/5pLqmPkAePcWI4/a6z43P+Eej5HXPnWRnE5FwzBGFsyWsoxjoUO8k8thuTZCzJSp+HwNbGBM+rDNzQH4S1Q/kxCfLKAO9j1zZ7HwSd6YNY8nZ/1yssAsFc86qGbtpShysVfA9hMuvsppn3PQSTPPocEzWTxmTOcpZp51gZ3brDWTKvz4iFr/s4v2u3qydCY7jDOw/gV/5u3ljw8moKx/hjccprMwYzx8PQsOXR/WDe2yXRxzBD5jiiIX2Hxy4M1d19PzQu5f28fpV05VP79DMEh+xrGdfyXnvdWh9aku36uwgdTLVFfa4rcR3BFKDjYJJ53DsWwcT/WPpF2jSWtzyfKmOZ8S/lTX1O4aebb5l6p9LGIpxH9WOBnxWPf8VGM58b6/WA/oTA0sbikn/oPDZp6ymyDS1GRlgw34Hx0X5RF0Lgm5VtLoVmbPRKk1nC+LII78AXQtjJ9ruGJzRMWcQUfXTrKN/nza+SbtHPRdq+aFlD6Ur/+mtIN600sRnpPlr593k8cKzCPo3Pw9d6+JuyrQXofNm5g6+F29BYN9b03O5ozbCrCWBr7ugaMxYBrL+gr7G4PSJb7D7b2Dm2oQ3c9P5iUu7Mip37pte9ygot0O4Mcu/cKpmuO7FCK7lw6KJV9qmWtWtggCDnDrDQGG/XYItsaLo2JHzYdhXVH7s9BjaKv81D3EYIYNvrjlemV6sFwQBzH1UxVXKFxTDgBBWzWvFpWSzXalJR2ZdA5Y4t76rAPOKuJubbvql1rX1iMqO6Zxbumx7XWmbNt/thgE8Ph33uARzx+XnFhaJp4mZGYzKuUDGwHgxsBH9bT3vWk/cmpL61FsDWzjncZ4WfYIA9n+Mzfwa+QvwMLIh958ef5KjfYICN3Z0sHHSHnLw3C0vGj78En49yH89m1b2Kevj4aD9Bdui04rJ1oGHOsXzeML8KFQPzMMDv6bPht8aHjr8X/leuxZmXt76vGJjCwKr521Rd3XdomZ+fz1VBFcBWhck9qBwCCkdUp7M44laoGKgYqBioGKgY2J0xsBECWDVB7s4Us0F9c42Fk3VMrBUqBioGKgYqBioGKgaWx0AVwJbH2R6fw9FrV2kcF7fKV6gYqBioGKgYqBioGFgeA1UAWx5nu2wOdwW5V4yv1XpA7DqXoK7SFr6e9myVvHHEOS+LHbpgcS1tXNV4raXuoTxMz3x73IXHD8PdS+jJQZONglXjoF/eZvRho3Cz2eXGKeG8XzGuzdjsqrdMfWUOuF+uQsXAejFQBbD1YnAXyc+53YV5Lii1CK0HXGjq8lQHDSr8MwZclioOqFidLjVcL6xyvNbbFvldfOvSwhtuuCEv63Q5rwsnmaLder8RsGocDJVHgNzIPmwEXnZGmcbYiUYXwfbDre2M9ixTpwtg0atDAeuBuE4oacWFtG72r1AxsF4MVAFsvRjcRfK7RVjIiFWAKxpcR1BCAa2izF29DMfrn/SkJ+3QDYKZqAzLwirHa9m6h9LTejlZKaSJIPFilKInAoxTbhsBq8bBUHluct/IPmwEXnZGmU4wHnPMMTvlepj19JfGyu3+3CUOPvjg9RSVYbYEI3erfIWKgVVgYPtYIqsosZaxZTEgzMp6gfmSCVJIiArbY6CPX7gSuqKENto+9fxf/fLm59i4FHb8rqC4+c1vnn/C32wGrBoHqy5vM3CwVeow9t3wNlulXVPtoO23URTiZhUgDJe7zipUDKwCA1UAWxKL/CDE3vtcBIZ2r5cYZkCE+aKWJqC4f0k6DEC8txKbkZ+QWGMRKiNjUInbOHQ/mEsvXfVwyCGHpNmH+US5zIhdJhghFTLem8VeXLASs650y/uPfOQjGb+vb3q0O2ROFA9MrDcaHPecaKMgvxGqIe/k8t47sbSo4TEg5kdmyKG2q1vZ8tEuiK8mPh1tg3u11lJv6U/5ZBIRO1MMNjEfCTnlglDPxLiL0BiJe/WWdooPBx/MCMaSZof2Shr5h9otnps4kWIGxu3yOdZ8oYyRcbaztjh1gclOLE+xE8UixbjdhSQGmbaJ4Se2m2s8xIosMDVexkP8MvfuEYaYPMWDG4J5aadw1C0PzaBj9Bo3UGdcPzHe0LN2iMtJuwAPfpsD+gQ/aISgDj/MVgLhiv1GkzJ1QewUDrRtHs1321/SD80BY93tQ9FszBujfvn930Pt4yfHBLYMDZVy3cGGZ6ApFxUbE8HrBb1GgyVIsbkJ/+YnPuDi0zE60Hc0TTtrvPAzY0TD2aUpdCKGbIQsSnrtXxu5KB3pi3aLTam9dwutqdiqYlYeffTR22nWhvBXeJ7+ag9a1D/0dfe7373hdynmpDlvPuG5zKUEbrgXX1I/0SsXATjCu/194xvfyHiL4pWKK2muDvHFMh71s2JgZRiYd/3+1Ps9LRSRGGmnnnpqe/rpp7fimMWC0sbi2oZfVaIpmEsbk38WK08YmAhwmuFbJAin9TZuhc44fmI7HnTQQW3sztpgrNuhWb7wt8iQPHHaMMsXgy+EpDYCpc7Shg9O+/SnPz1j7gXDyNAzr371q2dxCoMhtSE8tBHYNmPzBaNqQ4jKGI4KUVYEe86YaXFzdRsXj2YstWCMbQhibSy07YknntiGX1MbwlT7tre9rQ2G1+pnBM5tQ+hsxfobAiGFIvBrxmUTOzAEpGznWurtlx+LexsLUMZkjEC0bQgyGUJIOvEeQ9BpY3FpxV+UTptjoch+v/zlL29DIMxQPcbtKU95Ssb3EmYHjLVbWfvuu2/73Oc+N9MJrWJsxPosMTwjGHi2Bb7RRwTObUPwbMNkl7H7lBFmsNa4ea+dRxxxxCwm2dR4CZOEJo466qgcr9CstcbzL/7iL7I93X/z0k7hqFuO72gejuEwBKmkIzHf4iRs4jZMU20sirPfxiJ8xRJPsZi1scC2b3zjG5NO4UssNb/HYAoH8syj+X65U+X1+yDvvDHql9//PdW+RWioX565aMzRlBiLsemZzWEhWfCT2EDM5rT0IZi0IewlHxijGWN6+OGHt3e+852TrqSLjUyWXeLOijEaQkwbAaizfCGG8CDzHyxDR2LwRWDpFr2g+2c961k5f0IYSzoqcRun8IfXxIY1ceE73habg4x3ii/rO3rFy9CgOWoORmDrnGfaLEakEF14rzYB6Z72tKdlnFm/h/ii2JsAraPxEOjyd/2352CghiJamdi5toLs4EWmF1qDVsfui1aogB1ZVxNip9e9iZzm45a3vGVDg0ATZEdGS2S31QVaAjtRZQWjaC644ILUmhxwwAH5XVq7NuatYBypYaEdC6EoI9nb1dMQvelNb2qe/exn526T/8uRRx45qyYW7qw7mHCGSqKJs1sOIaIJoaDZZ5998k8dV1xxRaPuYHCpbaIREgHBrtgufAhErHfCzM6V+p+Gya5z2XrtSLvgVvZXvvKVWSY82unSsNj52umGAJrPON3Suolc79qMSy+9tLnjHe+YODd2IRgnLvXPDlp7wVi75QnhYdYU2jIarDGQXvvspmkVQ3hL7QfND82h9wceeGCOI83AvPESzsrOnWYD7dD66a9+92Eq7Twc9cvSXtpdfUfP6EiIIxqwrg+g33zC1I1+YhFrIvafWLOpnYiFtYkYm822bduS3mlg+jAPB/Noftny+n2Qn4ZqbIz65fd/z2vfsjRE2/OGN7yhOfnkk3MO076arwVoQfu3y9MoFTPrFB0YUxpZafCQc845p4lg2XmymcaNdtgzddIumzsO8OgDWJaO8D08DW+jaUIfaELIok996lOpgZuHvxAI0xqgbSE4NiF0JT81ZuYt/mXstBNfNkfRYpdH++6gTGxyG/cZAnjGK8ypMf4UwmOmrf8qBlaJgeqEvyA2TXrmKuFpLETA4lqY3SLFELQIAxibPwsOJjK2kBPAhOUBTGiEGOYRwBHegowxFiCIYIzMlUwRyo/dX3m9XVoO1cxKF198cbYldoopVBG0CEoEJ3UWsx7GFtqEPAmFYV5yySWzWJezCjpfCITMDYQ1Zshiplq23k6R+RXjtEBg5EC7CIgWd2Y9eLlbmDcKYLgWEYIu0C8LV8E506vxLFdHjLW7lLeeT0IfMxT8OnknVBVTCmFk3nihM/1kCiY0huYyTcXy92Eq7SI46pc39hv960sBeIXPYspDPxZeQkHBO3OsC3wt/H2Yh4N5NL9sedL3+zA1Rv3y+7+XbV8/f/83Ey53gC49F1N6P+3Q7yk6kN54EebLeNksmu/Gx1UT5vl+++2XYye994XfrYeO8LSyUcUf9Cm0aXN5mk0herPxDW18bmSYZG0OCJQnnXRSbo7RVmi2NTmh8LDym1Bm3uBPAG/gkiDdFH8q+etnxcCqMFB9wBbEJM0Ljc5ee+21YI7tk5nwfDRobPgGrQXs0sqCpy12fNpVQNsseKEqzefqpIEYAsIbxhemhxkDLumGtBPeEX4IjjQdYUJIBl3y9D+lweA4a9OAHRd+QmeffXYKjcvW2y3b4qDPRWDqvhMayXufBeADXviqDAHBAE4LnsbaPZR32WeE4zC/5eJ22mmnJd5pAUCYmHJRKO0YKvuaa65JwcsJVJpRvlljMJZ2LTgaq2PVz+fhYB7N99szr7x+er+nxmgofffZsu3r5h36TkODNtHoWmGMDobKK7zFO/OFZmmMHldFR0Wzaj7Pw59NE57y+te/vnnBC17Q0ErZlBCanczlz0VjyO/y3HPPTU3XUD+l5x/Gl8ymlhafNQJM8cWhsuqzioH1YGDtM3s9te6CeS3kNCXU1WMXmfYX82437a5oAmg9mO4KEGrs/oYA8+syQIJH2QHTABHAuiYoApddLdMXR1ROu9T2Q0CYu/HGG7e7IkF5RVPUz0PzRrVvx4pZlR1sP135LT1z1dVXX53MkPnS92XrLeWVT8IUrZeyuoIiE4R3GDqG2n0HL4sG9x5rd1kIu+WWNi36aTHkDGzx6Dreyz9vvLRLPqZiJswpmEq7ChxN1b2ed/NwMI/m+3XPK6+f3u+pMRpK3302r33L0hDtNoGgyy+69fluvvf5REkzRQclzdgnM6F5xiF+iObXQ0ddnkbgpbGipZ6HP6Z67WLa/lwcGiAEEryU4burUcK3LTd8zKljF8bCGTMk/sdNg2atuIqslz+N4bM+rxgYwkAVwIawMvDMpOWP5HQXYQKEU+12zJF/BCZbhCJpmQExCEC7QoALx/bm2muvTVPahRdemFqrTND7Jx9tFmACZcpz0hHwBcI4+KURMICy7xbmN9oRizTTAo2LNkjjBCBmpyw+UkwBNGBXXXVV9oWvGaGtQGm339phIWD+szN2QlNau/QhAZKg4Q4seCM0MAVi5MvWW9pSPu2CjQNz6Jvf/Obsm10wc413cOykE+YK7Kq1t5gkxharsiiMtdtihPnDIUHVJ39AuCwLVCmjfOq7d3b3ogbIQwvqu8XEqTP5CfRMPVPjJZ8F1VgqU93KNZ59beBUWpuIeTgquC6f6tNGf12aGMLl2LNSls+Cn+4z3+fR7DyaX7Y86fvtnRoj4z4F89q3CA11y2dWs3EjcDBFqr/vc4lm0BNBzfgwcdMCm+9TdIBmCt126yz44OdnPJy+tNkBzI42gWhgkbnWLbf7HR0XMAeYpbdt2zaXp/FtdfIZwA1TovljLuEFcKQs/qk2qqV/pU+lTp82hzRmLml10rzAIvxJ2jEaLuXUz4qBRTBw0zCFnLZIwqE0BBCL9wknnDD0erd7RnWNAdp1UV8XxmenWnwZOHHy0cG4MEdMi2DEF4uPFibK0Z0TKr8rWiXOn32Qj5BRhCfH6C0OVOwEAb4bhBrO5crH1FxR4LZyu0kHAuxSCScEK+8wZYKf/Hy9CHDaedFFFyWTx5A48tPSEUSYcJSj3xgbIYzvBS0ZB14CFgGMgKXMLugbcyWtIN83C4kDAbQShMRF6yXEdEF5zLg0Xsx3TA2YIZ8qTJcgYxeMsUqLYRPYmBrski+//PK8YoMvizFRDjwbS/13NH+o3XybMHS+V3BDyOYAbScOz+qGRzjx29h4RqNy2WWXpfCqDQ5i+E2Agn+XRKrbAQmL3th48XUxdnz2mGFoC/gT0lBYKC2IBWhrCf9DaZXDqXoMR3DWBQvuu9/97qRZNEZToN9MVOhKm2gN1Kk+wrjftL3GQFuNDxrSXn3HNxxMoKntwjyatWi6ImGM5rtl+T6vPOPDjFX6gK4IqGNjZHxsgGx6DjvssJlDeql33py0OZuiIfTX1SzjK4Q2wgXcujLCPLS5cCGo9tv0mUveE5Tud7/7pWmaYG6Oi1wwRAfK1g8+T2gHrzJXzH11oimHRAh06rfptJmhUUcTDpUQXBalIzgiuJk7yiAA2syZj9wUjOs8/OFzcbI6BS78kc/gC1/4wuQ93DpsUPE4axIax2/xKjSn7WjQgRsAz3CEDxwX7hHGBsDnEH+iXSPgmp82n2jaeCkXnowr+qyw+2LA+FvbHexaFdwkCGnYSWiBGuxI7DZ87ilgx0UIs1BZBGkTCDwWI4DJWGgIGjRMGKDFBlMrQJCiHrcAMZkNAYfeOH6ei7qyOAtbIPoCCWZo0cdILPpdBq5ciztGp412iNrdXaxpseT3TH9WBQRHpEVAs1Bgft22r7deeLZwYtr61i0bM9RnAiOcFPPCIn2b127jCefuDrMIEMwsZmNgd27B1A5jVLRYfgMCO9wU+pgaL/VKb4GwYPpuQR6qf17a9eBorK+rej6FA3XMo/l+O+aV108/NkbmoIMrFmEbrm2htRmCee1blobQJH6B5mjMbTz4/5VxR+foHU2Zc7RheI65Po8OhtrffWaeEdLMYfWZzzYORVBfho7MeYIrh3c+pIR4fSonK0u9Y/ijyfaOZg8vIwBplzbSzhO+CPfmR5fHlXL7n9pjUcVf+7Aof7IewL36CO8Vdl8M4CPmlc9VQRXA1oFJk9ex8K4Ato7itstaBDA7RDu5ChUDFQM7HwMEoTPOOCM1rjRsmw20s30BbLPbsNb6igDGVEuTX6FiYFfCwEYIYNvbG3YlbGyBtlJh233Zla0amCqVTcirUDFQMbDzMUAzxqTlFOrOEL5ggOYH36Ht2dWg8Et9qFAxUDEQ1yJVJKwNAwQkzJjdn6mR/8GqgO8Vsy4TJPX/X8dJyQoVAxUDOxcDTHAuLeXftjOA3yDBi/8l38P+4Yud0aZF69RWvlPMttwu+IUyX1aoGNiTMVBNkHvy6Ne+VwxUDFQMVAxUDFQMzMVANUHORVFNUDFQMVAxUDFQMVAxUDGw9TFQTZBbf4xqCysGKgYqBioGKgYqBnYzDKw7FBEHdMeDK1QMVAxUDFQMVAxUDFQM7I4YIOc4GLdKWJcA5sJFEezdu1KhYqBioGKgYqBioGKgYmB3xADhy+Xdq4R1OeGvsiG1rIqBioGKgYqBioGKgYqBPQUD1QdsTxnp2s+KgYqBioGKgYqBioEtg4EqgG2ZoagNqRioGKgYqBioGKgY2FMwUAWwPWWkaz8rBioGKgYqBioGKga2DAb2eAHMbcwCqu6O4LZ+fxUqBioGKgYqBioGKga2FgbWLYD95//8n5uTTz652WefffKEwBFHHNGceuqpzXOe85xG0FWBqt/73vc2H//4x5sHPvCBmUYw2a0Cgl6ffvrpg2ExhAA68sgjs83HHHPMdnEZCW1bSXAjSHaPyAph9O/+3b9r7nOf+zQ33HDDVkF3bUfFQMVAxUDFQMVAxUBgYN0C2P77759Cyve+9728ksLvs88+u7nwwgubj33sY81DHvKQ5u///u+bhz3sYc1P//RPZxpX+m8FILRcfvnlzRVXXJHt6rfJ9Rr3vve98913v/vdmcBF8Hrta1/bfOUrX+ln2Wm/xVl761vfOqu/BPL+8Y9/vJ1gNktQv1QMVAxUDFQMVAxUDOw0DKxbANPym970ps1P/dT2Rbmg9f/+3/+b2rHb3e52zU1ucpNMt9N6OlAxLRHB5Zvf/Gbz+7//+wMpmhQa+y8+/OEPNxdddNGg1qyfdjN+09S95CUv2e5C3P3226/5kz/5k0YA33vd616b0YxaR8VAxUDFQMVAxUDFwIIYWNdFrFN1XHfddc33v//95rDDDhu8vOwHP/hB84UvfCG1Mz/3cz+X5skvfvGLzT/8wz80t7zlLZtDDz20+bu/+7uGiZCmCtzxjnfM7/Le4Q53aA466KAUkL797W8373vf+5q//du/bfbdd9/msY99bJYx1T7vPvrRjzY0RMp///vf3xx33HFZ7lS+D3zgA81zn/vczPe5z32u+d//+383j3zkIzPLV7/61dT63epWt2qOOuqo5s53vnNqz/74j/+4adu2+aVf+qXmHve4R3PppZfmO4LRf/tv/y3fMdXSrF155ZWZ5ilPeUrzr/7Vv8pyPf/DP/zDRn3/5//8n+bAAw9sDj/88Ow78+Kxxx6b5fzbf/tvG+27//3v38A/XN7iFrfI9F/72tcSnwr8mZ/5mebggw9uaPWuvfba5md/9mebQw45JOv70pe+1Hzyk59MgdrYPfjBD54J19/61reaSy65JJ894hGPyLbVfxUDFQMVAxUDFQMVA8tjYHu11fL5B3NY+N/+9renQHTzm9+8ufWtb71Dutvf/va5+B999NHNy172shRCmCYJEwSc//k//2cKXNdff30+e9azntX80z/9Uwo8TJtMg0yaf/qnf9ps27at+frXv575zjnnnOYJT3hC1r1DpZ0HhIm/+Zu/aV74whemZu7P/uzPmmuuuaaTYsev2kdgotkjtH3nO99plAMIVfzFCI4/+tGPUvAUJeBOd7pT8653vavRzzPPPLMhWKnzjDPOSMEHnrx75jOf2Vx88cXNBz/4weaEE06YmRM50Z900knNG97whvzUBv17/etfn/XSchE8AYH1xhtvzO/+KfP4449vCKjgxBNPzLrgzJjc9a53bd797ndnXwh7F1xwQQp2BMMDDjigedzjHpdtLgLwG9/4xuZVr3pVc8oppzT/43/8jyyz/qsYqBioGKgYqBioGFgeAysXwGhPCCE0JbQ+U7D33ntv95pQdrOb3Wz2jPBmsScMEOre9ra3NbRMr3vd61JTxc+JIMMERxtG4/SABzwgNTiXXXbZrJyhL1dffXXzoAc9KIUZvl7K4g+mnjG47W1v+//bu7eQe4sqYOA7vu8uiCAvisCKioq6yEw6YGRCJlladsKQspNmmpVnM89HPGd2QJPKQow0UMsOnuqmgsDoqiCyj6C7oMtugvnWb9W8Pv/H57D3fvf7/k+z4H336Zk1M2vWrFmzZq1ZqWSxILEsnXzyyaksqZ+CRKE57LDDFkceeWQea959991pVdIv8NRTTy0uvvji9B9TlnIGJ9CGO+64Y3H88cenJYwlClBA77///rRoyUVF8fzPf/6zeOKJJxaOeSlJhx56aD6LThdeeOHi5S9/edJHGyuwcFWrFWuY/lLY4GPpoizy3Xvuc5+74MfnCFO7KbSUPIDG2sl69vznP7+ibq+NAo0CjQKNAo0CjQIrUmDjCphF3lHZF7/4xa2jqxXbtMfjFnq4HEs+9NBDqQBUhYPj/+9+97u0hDlGA8973vPSojNlzWJFogwdffTReSzoOA/89re/TQUvP6zwj1WMH5kj16uuumpx7733plXtT3/6UypLFZUjSJGg/LXOPvvsPejz4he/OJU6Sidg+XL0+LKXvSwtWSeddFL60fHpAhQovy8LrIWsixQsR7+UMP2lLKoTPVjz/M4aRhGmaDrurcEGH/jABxZ/+9vf0rppPBo0CjQKNAo0CjQKNAqsR4GNK2CawfJisT/kkEPWa1Wv1DHHHJNWNUdhrEH8rgB/KFYgAQBdy5nfpixZTz75ZB6h3XLLLWkxgo8C5/Wee+5ZSbFRlyNAChNfNsoVS5pjSI79FJ8KLH5dq1T9fui1HvtpF6uZI0NXYVR8c9bFIZyULRZCli9HpvzERKmCf/7zn6kswt8NqFAPhbVBo0CjQKNAo0CjQKPA5iiwIwqY5r361a9O5++ppoqeXAb4flHmOLdz1H/wwQezGIXHER5lxTOgXjzKYX8I+G9xaL/tttvy2NDRIT+sejznaJJiMgaiOfugDaxIfK34hY1BVZ7Gfh/6nlLouPLGG2/Mo0tHnH0YalP/GZ/Rrypxrt5Ao3oE6jhUHxxvoifrmveUMceOgNXNETCrWINGgUaBRoFGgUaBRoH1KbARBYyVpFpkquWGpafrJzT0jONClitKkz++Rhb5LsDHn4vzOid3z1GeONC/6EUvWrz3ve9NRYF/FPC9IzRRiENA+WKx4i9WgWL04Q9/OK1TjjVFElao/an9016Ko+8pfaIIWZUcLzqC5MiujZQxSo7nKo6hI8OKt/+qft/xBaMUusrDcWTX+R1eba/WP7T7f+GPph3KDuEUsSniUhQp368KLGH8wapVkWWRFc+zLtQFHP8958iWFa1Bo0CjQKNAo0CjQKPAehT4P5cHrFf0v6VcseA4i2XEgs/C9MIXvjAd0rsWn0cffTQVEhYdCoxFnRL061//OiMLH3/88fQ5cjcXRcLCD8/VV1+dkXrvfOc7854rCgkFgwLgOgY+Va5i4M/kwtcHHnggb+EXNdm3sLGefeELX0g/JhY1zuqsPnyf3AcGN6sPx3fWNX+33357Pk95cqu8P1GElEXKHByc0ymDvwrfN3W4+Z+vlChECpNLabWZwsa5vfqw8cNifXP8x9Lk5nqO+zVqkbLDQuVqCt/99a9/zfr5cCnDakX5c9yKfvBRRDnJi2501IqW2qaNwJEmC5aylNoKfL/QnLJX/b7+8pe/LL761a/mtRaeM1b++Kspy0esQaNAo0CjQKNAo0CjwOoUeE4oTdOhiqvjXKkEhcwVECxIY8eGcwhZgihhrq6gRFA4dhIoNSxflCMKWAXKj+NL3zuC7fpS1WfWeaV86Rvlj8LIud+xo77WOkQxUkDdg9ZVfIfqo7xSKGt0ZvcZCrS+oan6us72lFPKpyNJFrkGjQKNAo0CjQKNAo0C61Fgrytg6zW7lWoUaBRoFGgUaBRoFGgU2H8psBEfsP23+63ljQKNAo0CjQKNAo0CjQK7T4GmgO0+zVuNjQKNAo0CjQKNAo0CBzkFmgJ2kDNA636jQKNAo0CjQKNAo8DuU6ApYLtP81Zjo0CjQKNAo0CjQKPAQU6BHVHA3IM1dOfVvkpr11C4xqKCaxhc9SDacQxcCVHTAo09M/b9dsr2cbqvS5SkaNJ9GfCDlEb/+Mc/9olmSh0ljVWDA5MCm5xjcxRyDYwraNyht7/ATtOH7HStj+jtBvMU2OnxmG/B9p4QgW/NFEXfYHkKbFwBs9Ced955i9/85jfLt2IvPelaBZeuuk/spptu2moFRvrKV76yx6Wn9UfKpUTjEl+7s2sV2E7ZsXokI5doe+oG/rGyu/W9u9Dk85Sk3V1lexMsDO5IM37uOGtwYFFgJ+bYFIXkgX3f+96X2SrczbcJsJg98sgjeZcgfK632dQGazfo4zJo9zC6sNmdigcDuNrnhBNOyBy/qyghuzEeO01/G1kXfJ9++ul5FdJO13cg4d+4AvbnP/85L0N1Gem+Du7LkmDa5ahd8B0lzH1XfXDDv1vzX/Oa1/R/mv28nbJDyO283aH2rW99a632DOHcie/kwJQCST7LvQ3uUfvIRz6yeN3rXre3m7Ir9bPK/OhHP9qVuvaFSjY9x+b6JHsEftoU2BS6fPr888/PO/1OO+203BzK8LEJ2A36kJtyAbvc+WABdycC4yYTy7KwG+OxbFvWfe7Nb37z4vjjj1+3+EFdbuMKmATUdnA///nPF08//fQ+T1y35c9dXNrvhOdXLVNxbKdsxVFf0flzn/vc4uijj65f7bOvFJ96aezebqR21PRNe7stO13/j3/848yIsNP17Ev4NznHlumXRXRTYFMl9+tTTz2VWTJYSA4//PA9Lnzebl27QR/za1+Z79ul1zLlXYzNoi57y6qwG+OxaptWfX6Tc2DVuvfn5//vJhtvlyY10Ze//OXFlVdemWb0M888c6kqnIFLB+Q4za32zJpHHnlkmjbrRCacLChum3cLPEuUBNN8uCToftvb3pa+Z1L32JmyZGFuwF8LfhYB6YuYxykFfXADPOEn5c4pp5yydeO7o6uf/OQn2T9pfAjGLkzhnys71q8u/qH3dpj6JyXSG97whj1urR96nmlcqibpnuSClEeTVUp6IrQYawcfs4ceeijTHqE9xe9LX/pS+newrvhdeqKTTjppj9v18cN9992XaZj83k26gH4//elPk9aUYMc4Q4nGu/3AI/CxEmj/Mcccs7UwOfbQFm2Tislf5Zsujv57PipyjRKgn/rUp7bG23PaDyd/sde+9rXJT/jt97//faaFQjvKr9yi/F3gkGJL2ik01l/txJd89VhV9Rtfy9Yw1Gb1mkP4H24bGnW///3v99MgDPEevjDWF1xwQVpHf/jDHy7sVPV3CPcQDjxhPkhzpe34xAJjXlXrhpRc5gXeki5M/6fovsxc1cYpvhoiwjpzrI6JFGEWEOMk/Rh/UEf6r3zlK1P5gduRoHRr8teyeMnLOgRzvIEfAHqRWY7kzY2PfvSjWTeeQuM777wz55V5jV+6sCrNlZ2jz7o0n6ML2pqzLERcEOpmcV2Z0qVD9/3QXJriw1VlibrG5qW5IwWd9WVqbem2d248xmRxF0f3/Zw85QZCBpBpUty9+93v3lobx+Qc/GPj5Dd8iIcp2+RuH9bhUzjIJ7Q0fmRN97RiDGddt8lh65B5aF20RlgLzLP7778/UyQ6jZmyUs7Rst/PbX2WimhTEL415eyzzy6R0LqEAlTCt6qE/8Is+pg8JXyESqTwKbEIljhLLscee2yJXIPljjvuyPL/+te/yllnnVXCt6yEcCyR27DEmXuJiVQuueSSEotDCXN9lo08hSUSgZdQxLJsCIkSKXpKLIolJlEJ4Vm+/e1vb7UrFv9y4okn5udItVNisStxbJa4ffnvf/+7hKWpXHzxxdmf2Olk27QTTOGfKzvWr/D5SNxj/0J5KbG4lnvuuadEUu1yxBFHlEhHNPZ4ge9DH/pQ0sr7c845p8Qimv2KhaWMtQN9L7300hKKR44JOqCzMY4FPekYSbtLKHNJw2DebEPkkSwhcMvDDz9cQiHJuo1nLNYl/ARzvCNhegmFuKBnpHQqkWJptP2xcJdQuEvk2CzeH3fcceWJJ57I57U/cnyWWERKWF5LLGglcniO4lK/8kcddVT5/Oc/nzwTaZmSFrVQHO1mn+DWVzwRk7mEsCqhACYv4nF9A+FLWGJxLZF/M2kdk7zEYl5CEFSUJfJ+ltiYZPmxNofyn/UqG5aQnA/h57eFo/9mjPe0ES+bg3E8UEKoZduMUx/3GA51xYanhLKdcwDPheAuoXBmM8yhT3ziE/k5FqASm6Jy1VVX5fj22+kzWs3N1Tm+GsK77hyLRaOEP2fO5S6NY5NRQsnKfpkrp556avn6179eYlEs4StaIm1aCYV0qynmIJ7Dm3O8oZC5hm4/+MEPUp6Yv7HxTHxz/V+V5pDO0WeuzmxY798cXdAnNhk5b8gMsoC8CXeJ5IN1ZEqvCVsfx+bS1gO9N+vIkrF5OTV3etVufZwbjzFZjOZDMCdPySDyq65/ePWaa65JVFNyznwdGicFw8UoZSiejw1Lyu/IZbwlD9fhU3itBWS5NeWWW24psRlJ/H6bwlnXbX0LA1A544wzSij7yYPmrPlGt6AX+DwGc7QcK7fu93bpGwFMRfExGODyyy/PCRea7FL4Q3MtkQsyFQoFMBuhZFBB7AjLhRdemMILg5rIlAITAGNRmG699dZ8NpxhS5jtS5zH52dC1uJNgFrwLbwGuUJXAfNdWET2UMBCyy+xsymxi8giFqBIgp0Lty+m8M+VnepXVjbwD9NTpuKIN+lBOGBUyu8YhBUjFwkLJcCwFIa77rorP0+1A30xdn1WAcoSOsbONstff/31JXJHbikohK4/DA0oS+qjgMXuP5WLb3zjG/kbARqJ2VN5yi8G/ml/+OptKZnwUSrgCktloRzgi3CGTQVGW6py1EdXFTCLQhVqFFJjDAcl0gKM3ypEBGfyZ12o9bergKGrPjwZChiwUdBfvAHgPPfccwvFdK7NFLWwsk4qpIk0/k3xHmXARgZ9KgzhnsIRATU5VtqPbhF4kjTWD/2v/YUfTczhrtJZ662vc3N1iq8qjv7rduaYDWJYvsoHP/jBHCO4KVT33ntvVkMWRMDGltKJX2JHvaUw1eerAubzHG+QU2RO3ayg/5ve9Kasb6r/69J8jj5TdWajBv7N0YUCRiabl4DspfyHNSM/rypTstDAv7m5NFCkrCtLVp07Q3X7bm48pmTxEM4peYruNk3aDqzTNnY2FcvIuaFxikj23PDbXFdgDKgK2Lp8GlaqEhbfXM/hxZc+h+Uq5eacvPnOd76TMpeRBdhIWRfpImQXeWjeMdzUdSkf7PybomXnsY293dgRJDOsI5hXvepVeZTFxMk5nDO+ownHTHPgyMPxHnDUw/wYO+b8zMQryiiEV372LxbNNN8zVcIfQjB/C0tLHq05bgSh/aYTeAiD9IdxpDTlRM+kqi8VREpKXB0Lan4lQXXXoXwK/1zZqX7V+vuvjkgdBTKp1iNWzp+veMUr+o/u8ZnZu5qKHSExw9Zk21PtQF9/3T5LNh6LbwYBiBhlNg4GzyMrV0384he/yOMv5YAE5dVPwOv3v//9hcghfhPMyiEosvweDe58wFfGhElZlC0zsj4wkaOHMXfNBXCUedRRRw0eMXdQLg455JDkM98ZX0dSaORIURQv03WFEC557O04Dq3nwNFRLKqLWMjzqFxwClpLOo8+U23Gy2hUx2aqrineGyo3hHsKh+MvDtVhMVyEBXhxShzLG9MQvjkfQ+Haqga9ROXihdigbH3ffaPs1Fyd4qsunu777cwxPO3IIix3CxGN6jc2eCyEdB69e8bRIyCXHKXh23UAfz322GN5vFldINDfH5jqP54kA1el+Rx9puoc6uOydDHO6AXwMpcRMhvgA3/LypQsNPDP8dnUXBookmvUOrJk1bkzVLfv5sZjShYP4ZySp45mRaK+5CUvyaJkPtkLHMPOybnBuXG/AAAf8klEQVShcXLM50jTEX2FLk+uy6fkhqNEchngS3oFiE3RLO8bH+vAC17wgiyD9/Addw/9AFwMuBdUt4P8svNvipadxzb2dmMKGL8rnb/tttu2GsdPy4KFASxgqwJfCBPFwm5R5AtzxRVXPAtNP9QZsZULNTWfteCFNSN9PAhakYPLAsUAs+lbxdcvO4Z/ruxcv/r11M/uKaN4WRirUlh/G3ulDAgVjp1QTpzYhSWDW0zm2tGnrzosJK7u0PfYYSTTh4k4qycUhc6P0ctDFqE41llcdNFFi7e//e2LsGhl2bF/lGu+Rtddd10ujq4AIUjUQXGirPMfXBfwjMkPX5i/F7FTzNeKz0QmGPRtGTCRwyK84APJdySsfOn/oh4bg020WTvGeG+ZNtZnpnCIbkL3OIpYhDUtFbCbb755gQdjB539qHjQB50o1stCf65O8dUQzk3MMfOC3OIz5z25I3LXGFU+1q662bFJJMDXAXMN3rC0Dhaf6v86NJ+jj0ZM1TnUSOO+Dl1swioNh/Cu2g441plLm5QlU3NnqI9z4zEni4dw+m5MnpJj+K0aI7rl15VzcQKTa8aYfF+HT7UrrMvZTnzQh3Vx9vEs83mMlsuUXfWZ/6qFq5bqPU+TRqAbb7wxFSRKkr/LLrssFzGL/TJgQLuDinFosSYtLfbRRx9NB+eKi3a/jDJ17bXXJsN8+tOfXjn6zY7B7pfVbGzxHcM/V3bdflkc9J2jYgW0Qp8xYC0KX5N0xObYHcdlueBQ4NZpByYNH5ZUhliPuoBe+s6yRanpA4dfFgY7Yk6rywDLHbxf+9rXFr+KSy8JD/xmB20RZ5Hp1sUahifXAYpE+AosWK26OAnHamW02+rza78uDsfoHP5oqSiJZgObbPMY7/XbMvV5Coex4rz/y1/+MpUUu3fv7agtxOZFBfRBlynrcn127HWKr4bKbGKOvfSlL82gHJtIDuNVkadMWqwtsjaAFfSz7tLrd93XKd6Ak4JHIYe3AhkKpvq/Ds3n6DNXZzaq929dupjD1SLWQ5kfp/o+9Lzv1plLm5QlU3NnqM1z47GOLJ6Sp/hUneZsV5YJNFlGzg31gbynLMVR49DPa8uGQw89dBH+iOlAXxFTWFnc1uH9imOV1ylaroJn2Wc3ooDZObKwdM3JGhCO4RmN6Bgy/HFm20TzrbtnZm6RV44vgZ04IRV+RRlRwyrzzW9+M3fcYwuh7wlLGjvTvd0ApqkmSINboav4dfERpnbF6g6fpdwtaqO/OC+exO/3qbJz/apt67+6OFZkiMtNRbm5WNT7qV05ZYLlggnWAkkhw9h1YZmir/pN3i5+0WzK2skTaKJMjJk+M0dTrESsmvjAUSEl0Rgrh9FZFuFlZrZDg39op6a8YwZRPIAiE0ETWZ+6WPFYxAhDi5orUByB9vkxC//vX3eM+99bdNFDJGy9SoUyZ9fPqgWYufUdX+mz41j8hd8qEFThq5fKYfgvbC0+y7QZnq7ArDi7r3O8zQpMoFNW0R7NQRf3HA5KtqM584DCzJKtXaIdHQs7BocDmCOUGRbNMZiiuzJTfEXh68Pc/PT8HG97Rt+MMTkV/oO+SjDexpjSX0FEn0s3K1TZUV/neENEK8XVJoQco4zZWICp/pOxq9J8GfpM1TlEc+1cli6VJniELIjAG8UTVpEpY+1YZi7V+urrdmTJKnOn1td9XWY8luHXLs4peUoG2ghag20EyVwnByIEl5Fz6umPE9mOx52AwIcmeIj8tgasKxvwN+uyWxSciDAyhD9l4l8W55B8qTxYadb/XL/3OkXLsbWpW37l99GYtSEmRTrlcnSLMOoioqJCDEQ6yIuMCgtFOsGHIK8/P+uVE35o5CUUrnQsFn3BMVbEI4hFLqMQQ5t3rpjRDWHJSafpuLiw+P6UcDbWBk57oU2nA18wWkYw+V1bOFtzSuQgzQk8rEb5vd84jIokDGFcYpdXwsKSUUocbz/72c+W8A0rscCkIx+HwFBkMspPhNQQfoECc2XH+vUsAvW+CMGdkS0iR7WdI29MhN5Tz3wMxSSjFtGu+6csZ8exdgRDFvSNI9h0POYwDzjfx64k6cix0XihgUiTWLDSAVKgQhzFpbM2/tBWwQMhALPtcMakS6dlDuwiOSv+Z1r+33fGiWO6er73ve9leXhALGbZtlA4ir9QADJA4b8l9/yPRvhGJFscaef4c9oMRTkjZETahCKVDvw18lG0mqAN41lpzNHU+Iv0CgGX0bqiC8OXpwiSqMARVDBJCJP6Vb6OtZnTq3rDPyid9kWoTcEU7ykn6hKdQ4BlVPAQ7ikcAjtEEHPiDQW3hBV5K7KZozWnahHMnLLNP8EKYyDAYW6uzvHVEO5NzDH8L/AiLHx7VGG8BV4Y61CSyg033JC8gMeBQBhyirzgfG++zPEG/hJZSp6Yi+FLU8LvJ/HN9X9VmkM6R5+5OrNhvX9zdDEHyFmR0oJ3RKaFr2gGQa0rU3pN2Po4Npe2Hui9WUeWjM3LqbnTq3br49x4jMniLQS9N6EYTMpTa5poaLIxFMB8NjZjiUWg0picGxsnBQWqhBKWEdVww+EmgnARSfmwDp/Ca+22NpsXYS3N+VZl7hROfQw3lCwThoaUweFWkG3SNg7+IuSt29Zw0d1DMEfLoTLb+e45Ckdn9zpw3LM7igiQdIjmCM/ny46hCzRtVg5WHMdEywAN3k4TTk7QdrosWHCsAiFUUkNmfWIZCQUkLUnL4B8rW+tfp1+17DKv7lZzt5L7uxwhaHNMsKS3XXUsIolmlXZUK1b17wtFLv3KQhFLXKxdIbjS8mOnyvKoLkeGLDKeZzGxm/Kedc5zQ8D6pIw2s1wag+5xhp2X42hWH86b1cF5CNey39VxxSv6yIelC77HV34zjVhK8Jf+VYCD9Q+v9GETba5tHOPtEF45Bo7w+0fFtT1TOOxw9c3YoTfaduekMWEh4/OGDpug+xxf1Xb3X7c7x1i/HHObH33QJnPIDn3sDrBumWV4wzEQZ37BSl1ZNtf/dWk+RZ+5Ort9676fogu+wjesfXHNTPrVdcsOvV+3HavMpU3Kkqm5M9S/7ndT4+G5VWTxnDwli0PRzvUqNt17zOHahzE5121z970TAPIPPjKZ3GNVq7Aun2qH9YAsJbe6sC7OLo6593O0nCu/yu/7nAIW1o09os9W6Ux7dpgCzPeiBl00GfdebT1kcSb8HRk5ImvQKNAosHsU4HPm8l9z0BFog0aBRoGDiwIbi4LcLtkoCbT0ML9uF1Ur36MAqxDHfdcIiGhj+bPrscNyA3dTvnoEax8bBXaBAnxeXFcy5au4C81oVTQKNArsJQrsExYwplgO245qRI25UsDRVIPNUkB6Bs7iTMfoKxURxaxBo0CjwO5SwEbTvUeONGtk7e62oNXWKNAosLcpsE8oYHubCK3+RoFGgUaBRoFGgUaBRoHdpMAz3sK7WWurq1GgUaBRoFGgUaBRoFHgIKZAU8AO4sFvXW8UaBRoFGgUaBRoFNg7FDggFTDXEQiNHwMXh8adIms5/At3dsu6qzA2AS6vrPmutouvj8t1G/opuKHBgUuB/riv21Ph16uAKwNWLbMMfnNLkMiq0J+b+F5evbEMFqvib8/v2xTAM/xcXeBZYX9YC8wh/s9xP1ht9uzrdtawipwf4tgFt/WZnXht69IzVD3gFDBXK7ix3p/3feD46nb6008/fSsxdf+Zsc/uRHLjvJvX3fy+HcD4cXnq4q1vfWve4r4TuChfEmVrd4MDjwKb4iH3A7mmxK39y0QhU3SkJLJxqHe+bZK67hRyP5Y735aFobnpO/xvHjQ4sCmAV4y1q3Zk+AD7y1oggb30V+5MWwa2s4bBT3mz/kmJJQLXVSgCs3YL2rr0DKUPCAXM1Qp240DqFcqXNEXe90FeO6ke1gERgxaqTYSNu7jS3T+rXgY71O4xXKJJMfuBFFHKsskC2WCRl59ul4cIYxYnl2VKpbQMSLpuwYubzve4dHaZsss842LHt7zlLXltyrLpP4bmJr6XTqpeMrxM3fvSM125ti+1a19si8ucP/7xj+elzrV9+8NaYLPBSucuuGXXgu2sYWgjfZg54eLoW2+9NTdT0tntFhyI69K6tNvvFTA38UaalEFr1xhRKCzrgpu+uzedr4tHOQJiSElcB+cmca1T/26UYZ1hGdnU8e9utHmn69juuNtMsAjLLLAMRNqmzKgQ6aeWeXztZ+SbcyN9pHpZGscm5+bSle7Qg+vItR1qyn6DVjYIdx6uAnt7LbABkt9YvsZVYN12s16/5z3vSYsb2RHptzI7ySrW5lXa2Z6dpsCzTUTTz4/+SmC4y8s5tgsGMVbkYFpIAs1HhaDHZAaaidhEkWAz8j7lOXTkYcyEy9KcEO6HHXZY+oFIVMvicdJJJ2VCXEd/jkr8Ll1B5GhcRB6oTHj8+te/PhPpSsQs3UTk5dtq7x/+8IfFgw8+mOmItK0LrGfS9DiHl0pBXd20LXxI7rvvvkzU6/d+9ia7GH2PvH+ZloFVopsmp1sXvxQ7WwuZO4D6Z/CbwsUfQtJZFoDI0be1M3Rs9LOf/SyTXlvkTEYLl+cff/zxtJhFTq80T9upSNrdB8/yrfF85BnMSSxtBF8GCXfxACujRM52WepHN/Q3lhb8d7zjHX20W5+H2ohOV1xxxeLee+/NlEWELX6SeNtvaKk9BIqUOEM4luknPjE+lD2J4PHosgq3dgzx8VbHem8ckUkwjr9YfFiUqkI+1n4o5nhojp97zciPy/TRuNupS8VTU4ToQz3yOfLIIzNdk0S65phUYhJbeybyb2aCdvykz/hBQmf8LjmwhOHma03ZpD2OZVwebD5GbtehZiftxuYmRd1t8/jcH1h1jPgTkQ36g2cr35pb+q1t/I4kNz7mmGPydzKKlUFfWMzHjmnHxmlIrrkseYjXpfgZ4znWQ0mYWTfJM+PBfQLgoUceeSQTgUu/ZN5MpVia4sdE+L9/ZD35YuykbnJchi/M+cpjY/IDL2iTpM7aGfkGM7lz5B/dkl9jNOu2ob4nj1ZdC+b4Y5NrgXaaD+Y8/nEp71AarNqfqTVsjKa1bH21vnbTvaG1z9bqIYDXWmUcyVvzGB95fmqtGhsn+Prrku+WXXuG2rhffxfKxLZBAtvI41jiQtUSilgJYVdiEcyExnEOX84666xMginxJ/C8hJtxKWgJjTyT+SovEWZYOEoIlUwQLUlyKAhFomYJf/3FQpW447w8kzCHgC4h6EosmiWUvfLAAw9kctsTTjhhq18hhMpxxx2X7Yv8a4m/tk+yYwljJWGORaDE5aTlxBNPLDERs7zEuiEMMum29ksmLbmx+oAEw/oXuSwzcbhE0OqWcLUPkvDGbieTioeCmH2FK87j89FN4vrjH/+YCVLjaKaEUEz8IdwysbLEsmgbAjf77UfJSSUI1kZJySXSDWU5y/X/3XHHHZng3HihPzzwVdrHIpWJpNHFbz5ffvnl5bTTTivvete7MoG154dgrI3GBn6J3yVJj0Uv+SgUv0yUjK4nn3xyiYmcSeAlkF61n3hAMm39lhxZovKrrroqeXSord3vpvi4+1x9r/2SxNY2hkJSrrnmmvx5jAZ+nOOhOX6u9fdfzzjjjBwn+MfA/EZv498FcyEW+OQb34fSUiJnZLnoootKLFiZEFxiXQnNJbUPhbzEop88gvfxiYTUocDsMW/QBl1CwepWt/V+am7WemNBy+TtCq06RhLDa3MsJpnIV1tuv/32UueWz5JMo10sTsnXN910U/KQpPSR37H4PART4yS5dFeuoQOZ2ed1SaXJxCHZSe6ec845Wc6YwqetgGw69dRTcw7HIppthDvcFYaaOjmfugWMu/ZEztSi/8b22GOPTXnZ5Zkh+WE+GOcqLyJlWtJesnttNXZTNNMOcs6YxMavhGKxJY+WXQvm+GOK39S/ivz2PDl7wQUXZGJrcvGII44okkoPwdQa5vkhmkpAPQVoJNG8JPNjEMpSromRpzflq3FVZqqvU+NU5053XVpl7Rlr5/76/baPIO14rr/++swxyOeC/warSgUaN/+MLtg9VxMqDZyVhKXBboAlwO7Mru3www/P29o987GPfSzPq6+++up0GGRxsyt2cz5crF8SPYfylBaQWp/d9y233JKWMu1zft71CWEps0O1Q2b5iczuaVGz440JmXXqE+uEnQLnRc9VsDu2a3F+r/12xLR5FqI+sA6F4rEIgZ0WwVAYcjdRn9skLpaHEDwVdb5KNoxGduaSKnut0aISA4tOsUsNoZnZCIbM+Xbn+meMjQtrn12jHJ5oX5M1h8KVx4UhYBZ2bnbErCchKLKOWu8eDYwPY21EczSuSaff+MY3Zn3648/RJEuKXdoYDnWN9ZMVFQ58Jim4XfsnP/nJbK8d2xxM8XG/rJ35ZZddlnTWJztKlhU8D6baP8dDU/zcb8eqn9FIotxY5PYoyorNuliBtbsmLmd5MSd8Z77yzeQygL6xaVmE0pl0D2Utk4brewUJqo17tbDV773OzU31SrNV26HMKmOEp/mSsmrpG/nAQsH/jRxg4YUPz+PpWMTSMs7q5Bl9POqoo1IO2OH3YWqc+nINj6inz+sczsdkJ/x4XT/IN3KLZRjERib9jkJxS9kVG6OUBSzMQzDFj93nyROnE+glvyz6kWkCjbwHY/KDtYtcJj+Uv+666xa33XbbgoxkfdOfKZp12+E9q9Kqa8EUf8zxmzpXkd8sq9/97ncXaC8jif46gal0gq/C3Bo2RtO77767onjWayhJi1DQF+Q0GX3XXXc96xlfOGki661xocQnb59//vmTfZ0ap6F1aUwmDzboAPty20eQTKdMkZSbCmPHb/X37ivlycJJsFsALdbw1QhGChzFhpMlIFBNrtjVddHs8d7vtTzhjYFjh731TNcEa8KHJS4FkigaplZlCU1HGEzYGLSaz9VflUcIKVrVmbFWgLH7i5TfRI5ZGCxYAFNbmCpsEhecfZ8IRzyORBxZ6LMFn3AHFkROrGEpzIkWVoqtPucD//sXu/E8ajVhK00cEVQ8aG/hNGaAMuP9IYcckp/12WcL1RBMtbH/PAVRG/CbeitM4Rjr58MPP5zj2OUNSpEIJTxB4ZuCOT7uliV8bSAsWMACaQ5UmGr/HA9N8XPFv+4rBd0i5dh5FTBG5rGoK2CBrYqR4y+AZ0B3XnsOv5i/fVhmbqqz8qjyq4yRoyaKt77WoA+LEaVKu+D2W5VLeFBbbS5rnXhfZBuadWWGtqw6TkO8PtUf9LSBPfPMM/OY8eyzz84jX4rEQw89lHKn0l7bHfmRv0MwxY9Dz6MPlwAAN1eGSy65JD9PyY/aRzSt8gPPcAdAw1VppsJV1oIpei7Db6vIb7zFZcVRdZVdFJuhtFRza9gUTZPoA//wqfG2yaTk2kTYVHTlXy2G19EGf1eY6uvcOPXXpTGZXOs6kF+fWbXW7CUBUyfOmigWjz32WDrb2gXbOfEhGQN1rQJxbJIKVZgoB4uxtsUxQSpbl8duwOS3gwWEMG1+rCxFjU8bC8bY7rFWSqm0kBDaQ/g2iavW2X8lRC688MIM1Y6jtVQ66zMmH9+nSy+9NC0zp4QCdvPNN28JwvocZZNQjaOGrcWn/rbK6xANlJ9q47L4p3CM9ZNywVrAOlWB0kjo2BwsA8vyMSVDPWNK6Fj753hIG6f4eZk+LPPM2NgtU3bqmT7eqrhZfPswNzf7z9fPy46RsTFGlAfW203DpsZprD8WzTiqz+AKJxR8J1mUWIWqTNOGuvhTmIborN9j/LgsTShRVW5PyY8hS6FylS+2S7O5tUB/xug5x2+ryG/1kDdob9NbN+S+H4K5dk/RdAhf97tw1VjE0fTC2st3d0gB6z7v/VxfVx2nMZlclfB+/QfS520fQRowDNA9OugTiDAwiepE6v7OWe+8887Lo6zqKNv9fbvvWZwwVpzfD6Iy4TiLa4Nnu2CHyDrBKjckHEwgO4nwxdij/ywcQou7AA98rE4mcx82iauPu36+9tprc/KwWNmFdME4OJ51xEVQs7R43wfC9Omnn96yCvid4uJYchMw1cZl8U/hGOsna5R+1GNAdRE0eLda96bqX4WPKXb4AX27fMUUD8baP8dDyk7xs9+3A2PWZ4pSd6HcTh3dshQCY9Kfl56Zm5tdPPX9KmPEMq1fLKPdMWINs3huFzYxTlP9sQgKbAj/qXR74FZQ3TdY5ylVNo8V8Hq1Utfv6usYP9bf+699WU+RtWkD25Ef26XZ3FowRc85fltFfqMDtxzrhICFCuhkLenDXLu3Q1N14YeXxgmWPi4Dc31ddZzQfZm1Z5m27W/PbFsBY+Y2IHwg7NAJTJGPXWBVCqe9VNSYkx1/sQJUTdoAsA4RdM777T4JX69d4Vdxdie4uuGCtx5VdH+n1Kmflcvv6vz73/+e+JnjvSeItI/flwgm38NHuVRehGNVRpzTmygEHKC984MTSuxCS0dL/Fy65lrPWchFAnnWOb/yLCv+1AU2iQu+Lh30206KsoxeFNJ6PGLcKKH8srSTXxd/kSHah6NoHi+wgDnK4EugP5Tcfp35xf/+aUsX+p/9NtdGbdMmfGG8KtSxWAbHWD/5IPKxcSSgHcBYEUyssnOAh6b4uFuewOOrJkItnLqTLx1BOs6fogE+meOhKX42N8egjnV9HXrOMT7FRD+7wE+LAlaVV1GB5lp3XLq8WMuOfVd/r+M8dPzLT2publb8lddWGSNz37EcPxoKCIVFFCKXhOo2UPHX9nqtddXv+p/r93PjNCTXlO3SdKo/2ou3zG1HoTZdlCDjK/qUHPjVr35Vm5Oyq+8z6scpfoR7CKps8xtZ6i5CEcVgSn5Ueg7RzHdzNMsK4l+3fMXpt7m1YIqeaDjHb8vKb23ha+zqF3KUi4t7uLwfskLOtXuKpuqaAvwgUt7NA1OWOHzQlQ1TfZ0bp+6YaNuYTJ5q9wHzWxBjWxATLCODYnJnBEqYuDOqqUYZQi56JKwIGSUkWkjERjB0RgvFOXhGg8XRXInrK0qYyzPqUURIODWWGOiMmBJ9BE8ckZWwBJTPfOYzGXUY5+MZgRVn5+XOO+8soShl9JoINu9BOHiWUMKyzmD8rC8WjRKOj0X5sH5kVGYw4RZ+0R4hpIr2xQJQ4gw8IznDsTejfERDirqMRTEjjLQpmCL7GKG6WW//n+gjUWBhfSqxsBf1RXh50iZ22hvFJZomFKkSimBGDcaxQ0Y9aSfaiJAS6RiTroRzfAkfkYyQDOfhEgtOCYFdlBkC0TuhRGR/w9+jhO9CCaU0I8VEs4UPQL4XvRU+ZxkFJcIvFJoSARElFrCsO6yEz0If9z7l+A61UeSNiMqwxOT4o5mIWW0JBWYrcnUKx1Q/RYGFUMxIrnCQzWi9sHhkG9ETT4cPUAnl4lntDmVhlI9F0/UBPrwYiksJxTLLhmKTj021f46HYhMwyc/9duBfUYzh31TiGCojBsfGPRS4jAIW9dcFOMJPqJABsSHLKClzOZzWS1w9Um644YbkQ3PHfBK9F8f2xZz1Oz6ofGJ+VwhXhOTVIT7xzNTcFFUnAjGOMbLN6L3qGIVCWeL4McfIOIUiXsL6m5FqcTSZ/Y1j+hIbmxJW40KmiGwVfRbKWs5t81yUVx/mxqkr18zJIV6f6k8oiim3yIA4fsz5jK9ALKY5RmSyCDjjI9qTvBuCKX7sP6/dYUkroXCVyPSR8jSc61NW12eH5Ecoc8mHoiDNwbCoZ2R1bDgympRsNxdfMiKrw5qUco68I5tjM7nyWhBK6+QcnuK3VdcCtHBjAH4hz8g79DI2QzC1hpmvQzQ1L/sQpy/JF+EMn2tRBB3lmhub8v6j+ZkM10Zy/txzz81IVD9MrXtTvG1e9telMZmsDvPMTQh4/UAEu4WNAOa10BhIi2xXAVNB7C7yqgbMYiGlTFHegMnnWoIqAAx6HGnmb8v8IwBNgCkIS1OJI55sR2joewgEdQm3NeD+4sgx+1HxWXh8p82uQ9C+2vb6DGHtKgp9mwNCHCOilUndZ65N4uq2RZu1vdJev30Gxs/VHuFwngvimCCo+NCBsCX4NglTbVQP/qljNVbvFI65fuJFNDDexr0CegihJoSejOtThmBVPoYfHxiDLr2n2l/rneKhOX6uONZ5DatJXrlgPndBX8x/czF28cnXY0K9W27q/ZVXXpmKAXqMwTJzs1t21TEyLhQqY9/lhy7Odd/PjdMycm2sP9pKjtj0hGV1D3lX26t+mw68NAXL8GMtTya4NiiO1lKmo1uXt+tz68qPOZpV/FOvU2vBGD0rvmX4bRX5XfEu8zrVbuWXpalrIsxj66EN3XZgrK+rjNOUTIZ/02vMdvq76bLPgXDT5jzpDTiyc6Zfxqlv0/U3fI0CO0GBEBQZFSladspcvxN17ys4HUNw6uYvxL9op8BRPzo7/nNk22D/oICrRVxv4VoaUcQNGgUaBcYpsG0fsCHUsYvIs+zY+Qz93L5rFNjvKMDvSaCBaKGDVfkyaBzTXWkQluK8x2snBpJ/n9vy+cY05WsnKLxzOMNClH5q+KNBo0CjwDQFNm4B40QvcohTtosLOXbWCJjpprRfGwUaBfYXCrCExdFppq/ZdLi4YBZO9vVusP2FJgd7O+PINAOWWC9dkO0Kj/CBO9jJ0vrfKDBKgY0rYKM1tR8aBRoFGgUaBRoFGgUaBRoFkgI7cgTZaNso0CjQKNAo0CjQKNAo0CgwToGmgI3Tpv3SKNAo0CjQKNAo0CjQKLAjFGgK2I6QtSFtFGgUaBRoFGgUaBRoFBinQFPAxmnTfmkUaBRoFGgUaBRoFGgU2BEKNAVsR8jakDYKNAo0CjQKNAo0CjQKjFOgKWDjtGm/NAo0CjQKNAo0CjQKNArsCAX+P4KnpUmLx4AfAAAAAElFTkSuQmCC;" vertex="1" parent="1">
          <mxGeometry x="30" y="71" width="518.31" height="289" as="geometry" />
        </mxCell>
        <mxCell id="Ng-HdXcxBQFtPuZuPeWe-5" value="" style="edgeStyle=orthogonalEdgeStyle;html=1;verticalAlign=bottom;endArrow=open;endSize=8;strokeColor=#ff0000;rounded=0;" edge="1" parent="1">
          <mxGeometry relative="1" as="geometry">
            <mxPoint x="310" y="410" as="targetPoint" />
            <mxPoint x="310" y="379.9999999999999" as="sourcePoint" />
          </mxGeometry>
        </mxCell>
        <mxCell id="Ng-HdXcxBQFtPuZuPeWe-7" value="Logar no sistema" style="rounded=1;whiteSpace=wrap;html=1;" vertex="1" parent="1">
          <mxGeometry x="262.5" y="400" width="95" height="30" as="geometry" />
        </mxCell>
        <mxCell id="Ng-HdXcxBQFtPuZuPeWe-8" value="Visualizar as informações de devolução" style="rounded=1;whiteSpace=wrap;html=1;" vertex="1" parent="1">
          <mxGeometry x="168.5" y="558" width="95" height="50" as="geometry" />
        </mxCell>
        <mxCell id="Ng-HdXcxBQFtPuZuPeWe-43" style="edgeStyle=orthogonalEdgeStyle;rounded=0;orthogonalLoop=1;jettySize=auto;html=1;entryX=0;entryY=0.5;entryDx=0;entryDy=0;" edge="1" parent="1" source="Ng-HdXcxBQFtPuZuPeWe-10" target="Ng-HdXcxBQFtPuZuPeWe-42">
          <mxGeometry relative="1" as="geometry" />
        </mxCell>
        <mxCell id="Ng-HdXcxBQFtPuZuPeWe-10" value="Realizar a Devolução da obra" style="rounded=1;whiteSpace=wrap;html=1;" vertex="1" parent="1">
          <mxGeometry x="167.5" y="725" width="95" height="50" as="geometry" />
        </mxCell>
        <mxCell id="Ng-HdXcxBQFtPuZuPeWe-12" value="Enviar comprovante de devolução" style="rounded=1;whiteSpace=wrap;html=1;" vertex="1" parent="1">
          <mxGeometry x="303.75" y="840" width="95" height="50" as="geometry" />
        </mxCell>
        <mxCell id="Ng-HdXcxBQFtPuZuPeWe-17" style="edgeStyle=orthogonalEdgeStyle;rounded=0;orthogonalLoop=1;jettySize=auto;html=1;entryX=0.7;entryY=0.5;entryDx=0;entryDy=0;entryPerimeter=0;" edge="1" parent="1" source="Ng-HdXcxBQFtPuZuPeWe-12">
          <mxGeometry relative="1" as="geometry">
            <mxPoint x="351.25" y="929" as="targetPoint" />
          </mxGeometry>
        </mxCell>
        <mxCell id="Ng-HdXcxBQFtPuZuPeWe-40" style="edgeStyle=orthogonalEdgeStyle;rounded=0;orthogonalLoop=1;jettySize=auto;html=1;entryX=0.5;entryY=0;entryDx=0;entryDy=0;" edge="1" parent="1" source="Ng-HdXcxBQFtPuZuPeWe-24" target="Ng-HdXcxBQFtPuZuPeWe-10">
          <mxGeometry relative="1" as="geometry" />
        </mxCell>
        <mxCell id="Ng-HdXcxBQFtPuZuPeWe-45" value="" style="edgeStyle=orthogonalEdgeStyle;rounded=0;orthogonalLoop=1;jettySize=auto;html=1;" edge="1" parent="1" source="Ng-HdXcxBQFtPuZuPeWe-24" target="Ng-HdXcxBQFtPuZuPeWe-28">
          <mxGeometry relative="1" as="geometry" />
        </mxCell>
        <mxCell id="Ng-HdXcxBQFtPuZuPeWe-24" value="" style="rhombus;" vertex="1" parent="1">
          <mxGeometry x="193.75" y="655" width="42.5" height="40" as="geometry" />
        </mxCell>
        <mxCell id="Ng-HdXcxBQFtPuZuPeWe-33" style="edgeStyle=orthogonalEdgeStyle;rounded=0;orthogonalLoop=1;jettySize=auto;html=1;entryX=0;entryY=0.5;entryDx=0;entryDy=0;exitX=0.554;exitY=0.411;exitDx=0;exitDy=0;exitPerimeter=0;" edge="1" parent="1" source="Ng-HdXcxBQFtPuZuPeWe-27" target="Ng-HdXcxBQFtPuZuPeWe-32">
          <mxGeometry relative="1" as="geometry" />
        </mxCell>
        <mxCell id="Ng-HdXcxBQFtPuZuPeWe-27" value="" style="shape=collate;html=1;" vertex="1" parent="1">
          <mxGeometry x="350" y="660" width="40" height="40" as="geometry" />
        </mxCell>
        <mxCell id="Ng-HdXcxBQFtPuZuPeWe-28" value="A cada 1 dia de atraso = R$3,00" style="text;html=1;strokeColor=none;fillColor=none;align=center;verticalAlign=middle;whiteSpace=wrap;rounded=0;" vertex="1" parent="1">
          <mxGeometry x="324.57" y="705" width="90.85" height="30" as="geometry" />
        </mxCell>
        <mxCell id="Ng-HdXcxBQFtPuZuPeWe-31" value="se atraso" style="text;html=1;strokeColor=none;fillColor=none;align=center;verticalAlign=middle;whiteSpace=wrap;rounded=0;" vertex="1" parent="1">
          <mxGeometry x="230" y="644.5" width="60" height="30" as="geometry" />
        </mxCell>
        <mxCell id="Ng-HdXcxBQFtPuZuPeWe-41" style="edgeStyle=orthogonalEdgeStyle;rounded=0;orthogonalLoop=1;jettySize=auto;html=1;entryX=0.871;entryY=0.45;entryDx=0;entryDy=0;entryPerimeter=0;" edge="1" parent="1" source="Ng-HdXcxBQFtPuZuPeWe-32" target="Ng-HdXcxBQFtPuZuPeWe-42">
          <mxGeometry relative="1" as="geometry">
            <mxPoint x="478.5" y="780" as="targetPoint" />
            <Array as="points">
              <mxPoint x="480" y="788" />
            </Array>
          </mxGeometry>
        </mxCell>
        <mxCell id="Ng-HdXcxBQFtPuZuPeWe-32" value="Realizar PGTO" style="rounded=1;whiteSpace=wrap;html=1;" vertex="1" parent="1">
          <mxGeometry x="431" y="651" width="95" height="50" as="geometry" />
        </mxCell>
        <mxCell id="Ng-HdXcxBQFtPuZuPeWe-37" style="edgeStyle=orthogonalEdgeStyle;rounded=0;orthogonalLoop=1;jettySize=auto;html=1;entryX=0.5;entryY=0;entryDx=0;entryDy=0;" edge="1" parent="1" source="Ng-HdXcxBQFtPuZuPeWe-34">
          <mxGeometry relative="1" as="geometry">
            <mxPoint x="215" y="552" as="targetPoint" />
          </mxGeometry>
        </mxCell>
        <mxCell id="Ng-HdXcxBQFtPuZuPeWe-34" value="Informar o Código da Obra" style="rounded=1;whiteSpace=wrap;html=1;" vertex="1" parent="1">
          <mxGeometry x="167.5" y="484" width="95" height="50" as="geometry" />
        </mxCell>
        <mxCell id="Ng-HdXcxBQFtPuZuPeWe-44" style="edgeStyle=orthogonalEdgeStyle;rounded=0;orthogonalLoop=1;jettySize=auto;html=1;entryX=0.5;entryY=0;entryDx=0;entryDy=0;" edge="1" parent="1" source="Ng-HdXcxBQFtPuZuPeWe-42" target="Ng-HdXcxBQFtPuZuPeWe-12">
          <mxGeometry relative="1" as="geometry" />
        </mxCell>
        <mxCell id="Ng-HdXcxBQFtPuZuPeWe-42" value="" style="rhombus;" vertex="1" parent="1">
          <mxGeometry x="330" y="770" width="42.5" height="40" as="geometry" />
        </mxCell>
        <mxCell id="Ng-HdXcxBQFtPuZuPeWe-46" value="se não" style="text;html=1;strokeColor=none;fillColor=none;align=center;verticalAlign=middle;whiteSpace=wrap;rounded=0;" vertex="1" parent="1">
          <mxGeometry x="150" y="690" width="60" height="30" as="geometry" />
        </mxCell>
        <mxCell id="Ng-HdXcxBQFtPuZuPeWe-54" value="" style="html=1;align=center;verticalAlign=middle;rounded=1;absoluteArcSize=1;arcSize=10;dashed=1;whiteSpace=wrap;" vertex="1" parent="1">
          <mxGeometry x="290" y="930" width="180" height="100" as="geometry" />
        </mxCell>
        <mxCell id="Ng-HdXcxBQFtPuZuPeWe-58" value="" style="rounded=0;whiteSpace=wrap;html=1;" vertex="1" parent="1">
          <mxGeometry x="340" y="920" width="10" height="10" as="geometry" />
        </mxCell>
        <mxCell id="Ng-HdXcxBQFtPuZuPeWe-59" value="" style="rounded=0;whiteSpace=wrap;html=1;" vertex="1" parent="1">
          <mxGeometry x="350" y="920" width="10" height="10" as="geometry" />
        </mxCell>
        <mxCell id="Ng-HdXcxBQFtPuZuPeWe-65" value="" style="edgeStyle=orthogonalEdgeStyle;rounded=0;orthogonalLoop=1;jettySize=auto;html=1;" edge="1" parent="1" source="Ng-HdXcxBQFtPuZuPeWe-63">
          <mxGeometry relative="1" as="geometry">
            <mxPoint x="490" y="976" as="targetPoint" />
          </mxGeometry>
        </mxCell>
        <mxCell id="Ng-HdXcxBQFtPuZuPeWe-63" value="Registrar a devolução" style="rounded=1;whiteSpace=wrap;html=1;" vertex="1" parent="1">
          <mxGeometry x="317.5" y="958.5" width="75" height="35" as="geometry" />
        </mxCell>
        <mxCell id="Ng-HdXcxBQFtPuZuPeWe-71" style="edgeStyle=orthogonalEdgeStyle;rounded=0;orthogonalLoop=1;jettySize=auto;html=1;entryX=0;entryY=0.5;entryDx=0;entryDy=0;" edge="1" parent="1" source="Ng-HdXcxBQFtPuZuPeWe-68" target="Ng-HdXcxBQFtPuZuPeWe-70">
          <mxGeometry relative="1" as="geometry" />
        </mxCell>
        <mxCell id="Ng-HdXcxBQFtPuZuPeWe-68" value="Gerar o relatório" style="rounded=1;whiteSpace=wrap;html=1;" vertex="1" parent="1">
          <mxGeometry x="492.5" y="962.25" width="57.5" height="27.5" as="geometry" />
        </mxCell>
        <mxCell id="Ng-HdXcxBQFtPuZuPeWe-70" value="" style="ellipse;html=1;shape=endState;fillColor=strokeColor;" vertex="1" parent="1">
          <mxGeometry x="590" y="960.75" width="30" height="30" as="geometry" />
        </mxCell>
        <mxCell id="Ng-HdXcxBQFtPuZuPeWe-72" value="Devoluções" style="text;html=1;strokeColor=none;fillColor=none;align=center;verticalAlign=middle;whiteSpace=wrap;rounded=0;" vertex="1" parent="1">
          <mxGeometry x="360" y="900" width="90.85" height="30" as="geometry" />
        </mxCell>
        <mxCell id="QS2LKlXVZH9JBuo4vUgu-1" value="&lt;font color=&quot;#ff0000&quot;&gt;decisão&lt;/font&gt;" style="text;html=1;strokeColor=none;fillColor=none;align=center;verticalAlign=middle;whiteSpace=wrap;rounded=0;" vertex="1" parent="1">
          <mxGeometry x="133.75" y="640" width="60" height="30" as="geometry" />
        </mxCell>
        <mxCell id="QS2LKlXVZH9JBuo4vUgu-2" value="&lt;font color=&quot;#ff0000&quot;&gt;intercalação&lt;/font&gt;" style="text;html=1;strokeColor=none;fillColor=none;align=center;verticalAlign=middle;whiteSpace=wrap;rounded=0;" vertex="1" parent="1">
          <mxGeometry x="372.5" y="760" width="60" height="30" as="geometry" />
        </mxCell>
        <mxCell id="QS2LKlXVZH9JBuo4vUgu-12" value="" style="line;strokeWidth=9;fillColor=none;align=left;verticalAlign=middle;spacingTop=-1;spacingLeft=3;spacingRight=3;rotatable=0;labelPosition=right;points=[];portConstraint=eastwest;strokeColor=inherit;" vertex="1" parent="1">
          <mxGeometry x="224.14999999999998" y="420" width="130" height="80" as="geometry" />
        </mxCell>
        <mxCell id="QS2LKlXVZH9JBuo4vUgu-13" style="edgeStyle=orthogonalEdgeStyle;rounded=0;orthogonalLoop=1;jettySize=auto;html=1;entryX=0.5;entryY=0;entryDx=0;entryDy=0;" edge="1" parent="1">
          <mxGeometry relative="1" as="geometry">
            <mxPoint x="309.15" y="430" as="sourcePoint" />
            <mxPoint x="309.15" y="465" as="targetPoint" />
          </mxGeometry>
        </mxCell>
        <mxCell id="QS2LKlXVZH9JBuo4vUgu-15" style="edgeStyle=orthogonalEdgeStyle;rounded=0;orthogonalLoop=1;jettySize=auto;html=1;" edge="1" parent="1">
          <mxGeometry relative="1" as="geometry">
            <mxPoint x="230" y="462" as="sourcePoint" />
            <mxPoint x="230" y="482" as="targetPoint" />
          </mxGeometry>
        </mxCell>
        <mxCell id="QS2LKlXVZH9JBuo4vUgu-17" style="edgeStyle=orthogonalEdgeStyle;rounded=0;orthogonalLoop=1;jettySize=auto;html=1;entryX=0.39;entryY=0.008;entryDx=0;entryDy=0;entryPerimeter=0;" edge="1" parent="1" target="QS2LKlXVZH9JBuo4vUgu-32">
          <mxGeometry relative="1" as="geometry">
            <mxPoint x="344.58" y="462" as="sourcePoint" />
            <mxPoint x="344.58" y="482" as="targetPoint" />
          </mxGeometry>
        </mxCell>
        <mxCell id="QS2LKlXVZH9JBuo4vUgu-21" value="" style="line;strokeWidth=9;fillColor=none;align=left;verticalAlign=middle;spacingTop=-1;spacingLeft=3;spacingRight=3;rotatable=0;labelPosition=right;points=[];portConstraint=eastwest;strokeColor=inherit;" vertex="1" parent="1">
          <mxGeometry x="200" y="594.5" width="156.25" height="80" as="geometry" />
        </mxCell>
        <mxCell id="QS2LKlXVZH9JBuo4vUgu-22" style="edgeStyle=orthogonalEdgeStyle;rounded=0;orthogonalLoop=1;jettySize=auto;html=1;entryX=0.5;entryY=0;entryDx=0;entryDy=0;exitX=0.5;exitY=1;exitDx=0;exitDy=0;" edge="1" parent="1" source="QS2LKlXVZH9JBuo4vUgu-32">
          <mxGeometry relative="1" as="geometry">
            <mxPoint x="354.15" y="610" as="sourcePoint" />
            <mxPoint x="354.15" y="630" as="targetPoint" />
          </mxGeometry>
        </mxCell>
        <mxCell id="QS2LKlXVZH9JBuo4vUgu-23" style="edgeStyle=orthogonalEdgeStyle;rounded=0;orthogonalLoop=1;jettySize=auto;html=1;entryX=0.5;entryY=0;entryDx=0;entryDy=0;exitX=0.51;exitY=0.544;exitDx=0;exitDy=0;exitPerimeter=0;" edge="1" parent="1" source="QS2LKlXVZH9JBuo4vUgu-21">
          <mxGeometry relative="1" as="geometry">
            <mxPoint x="214.57999999999998" y="644.5" as="sourcePoint" />
            <mxPoint x="214.57999999999998" y="664.5" as="targetPoint" />
            <Array as="points">
              <mxPoint x="216" y="638" />
              <mxPoint x="216" y="650" />
              <mxPoint x="215" y="650" />
            </Array>
          </mxGeometry>
        </mxCell>
        <mxCell id="QS2LKlXVZH9JBuo4vUgu-24" style="edgeStyle=orthogonalEdgeStyle;rounded=0;orthogonalLoop=1;jettySize=auto;html=1;entryX=0.5;entryY=0;entryDx=0;entryDy=0;" edge="1" parent="1">
          <mxGeometry relative="1" as="geometry">
            <mxPoint x="224.14999999999998" y="610" as="sourcePoint" />
            <mxPoint x="224.14999999999998" y="630" as="targetPoint" />
          </mxGeometry>
        </mxCell>
        <mxCell id="QS2LKlXVZH9JBuo4vUgu-28" style="edgeStyle=orthogonalEdgeStyle;rounded=0;orthogonalLoop=1;jettySize=auto;html=1;entryX=0.5;entryY=0;entryDx=0;entryDy=0;" edge="1" parent="1" source="QS2LKlXVZH9JBuo4vUgu-29">
          <mxGeometry relative="1" as="geometry">
            <mxPoint x="689.5699999999999" y="478" as="targetPoint" />
          </mxGeometry>
        </mxCell>
        <mxCell id="QS2LKlXVZH9JBuo4vUgu-29" value="Visualizar obras mais requisitadas" style="rounded=1;whiteSpace=wrap;html=1;" vertex="1" parent="1">
          <mxGeometry x="640" y="408" width="95" height="40" as="geometry" />
        </mxCell>
        <mxCell id="QS2LKlXVZH9JBuo4vUgu-30" value="Informar devolução obra mais requisitada" style="rounded=1;whiteSpace=wrap;html=1;" vertex="1" parent="1">
          <mxGeometry x="639.9999999999999" y="480" width="95" height="50" as="geometry" />
        </mxCell>
        <mxCell id="QS2LKlXVZH9JBuo4vUgu-32" value="Obras Requisitas" style="rounded=1;whiteSpace=wrap;html=1;" vertex="1" parent="1">
          <mxGeometry x="307.5" y="520" width="95" height="60" as="geometry" />
        </mxCell>
        <mxCell id="QS2LKlXVZH9JBuo4vUgu-37" value="" style="group" connectable="0" vertex="1" parent="1">
          <mxGeometry x="314.57" y="560" width="10" height="18" as="geometry" />
        </mxCell>
        <mxCell id="QS2LKlXVZH9JBuo4vUgu-33" value="" style="endArrow=none;html=1;rounded=0;" edge="1" parent="QS2LKlXVZH9JBuo4vUgu-37">
          <mxGeometry width="50" height="50" relative="1" as="geometry">
            <mxPoint x="5" y="18" as="sourcePoint" />
            <mxPoint x="5" as="targetPoint" />
          </mxGeometry>
        </mxCell>
        <mxCell id="QS2LKlXVZH9JBuo4vUgu-34" value="" style="endArrow=none;html=1;rounded=0;" edge="1" parent="QS2LKlXVZH9JBuo4vUgu-37">
          <mxGeometry width="50" height="50" relative="1" as="geometry">
            <mxPoint x="10" y="7.199999999999999" as="sourcePoint" />
            <mxPoint y="7.199999999999999" as="targetPoint" />
          </mxGeometry>
        </mxCell>
        <mxCell id="QS2LKlXVZH9JBuo4vUgu-35" value="" style="endArrow=none;html=1;rounded=0;" edge="1" parent="QS2LKlXVZH9JBuo4vUgu-37">
          <mxGeometry width="50" height="50" relative="1" as="geometry">
            <mxPoint x="9.75" y="0.35999999999999993" as="sourcePoint" />
            <mxPoint x="9.75" y="7.559999999999999" as="targetPoint" />
          </mxGeometry>
        </mxCell>
        <mxCell id="QS2LKlXVZH9JBuo4vUgu-36" value="" style="endArrow=none;html=1;rounded=0;" edge="1" parent="QS2LKlXVZH9JBuo4vUgu-37">
          <mxGeometry width="50" height="50" relative="1" as="geometry">
            <mxPoint x="0.25" as="sourcePoint" />
            <mxPoint x="0.16750000000000398" y="7.199999999999999" as="targetPoint" />
          </mxGeometry>
        </mxCell>
        <mxCell id="Ng-HdXcxBQFtPuZuPeWe-4" value="" style="ellipse;html=1;shape=startState;fillColor=#000000;strokeColor=#ff0000;" vertex="1" parent="1">
          <mxGeometry x="294.57" y="360" width="30" height="30" as="geometry" />
        </mxCell>
      </root>
    </mxGraphModel>
  </diagram>
</mxfile>
